<svg width="993" height="954" viewBox="0 0 993 954" fill="none" xmlns="http://www.w3.org/2000/svg">
<ellipse cx="496.5" cy="477" rx="496.5" ry="477" fill="#29294B"/>
<g clip-path="url(#clip0_68_163)">
<path d="M503.57 79.1899L507.5 79.2799L513.22 79.4399L516.83 79.5599L518.53 79.6299L521.85 79.7699L523.4 79.8499L526.43 80.0199L527.83 80.1199L530.57 80.3099L531.82 80.4199L534.25 80.6299L535.35 80.7499L537.47 80.9899L538.41 81.1199L540.22 81.3799L541 81.5199L551.1 83.8199L557.33 85.7699L560.18 86.9399L565.72 89.4199L568.21 90.8499L573.02 93.8299L575.14 95.5099L579.2 98.9699L580.93 100.88L584.2 104.81L585.53 106.94L587.98 111.3L588.9 113.64L590.51 118.42L590.99 120.96L591.19 122.44L591.32 123.79L591.38 124.63L591.5 126.4L591.55 127.42L591.66 129.53L591.7 130.69L591.87 135.61L591.92 138.31L592 143.84V146.64L592.01 152.89L592.03 156.32L592.05 157.72L592.09 160.3L592.13 161.31L592.21 163.15L592.27 163.84L592.4 165.07L592.49 165.5L592.68 166.23L592.8 166.46L593.05 166.82L593.21 166.9L593.55 167.01H593.75L595.16 167.22L596.31 167.55L596.95 167.79L599.7 168.94L601.12 169.7L603.95 171.31L605.13 172.14L606.25 172.98L606.71 173.37L607.55 174.16L607.83 174.51L608.89 176.18L609.42 177.4L609.59 178.09L609.86 179.52L609.9 180.34L609.92 182.04L609.83 183.03L609.58 185.08L609.36 186.26L608.84 188.73L608.47 190.15L607.68 193.1L607.17 194.79L606.09 198.29L605.44 200.28L603.7 205.72L602.71 208.93L602.33 210.23L601.97 211.47L601.83 211.99L601.56 212.96L601.47 213.34L601.3 214.01L601.27 214.22L601.22 214.55L601.25 214.58L601.89 214.56L602.78 214.4L603.39 214.26L604.73 213.93L605.52 213.71L607.17 213.25L608.05 212.98L613.38 211.55L616.87 210.8L618.57 210.52L621.96 210.02L623.6 209.87L626.86 209.62L628.44 209.59H631.56L633.06 209.68L636.02 209.92L637.43 210.12L640.2 210.59L641.52 210.91L644.09 211.6L645.3 212.03L647.65 212.94L648.74 213.47L650.86 214.59L651.82 215.23L653.68 216.55L654.5 217.29L656.09 218.81L656.77 219.64L658.05 221.35L658.57 222.27L659.54 224.16L659.9 225.18L660.54 227.25L660.72 228.34L661 230.58V231.76L660.67 234.84L660.13 236.92L659.71 237.96L658.77 240.05L658.16 241.07L656.85 243.12L656.07 244.11L654.42 246.08L653.48 247.02L651.53 248.87L650.45 249.74L648.22 251.43L647.01 252.21L644.53 253.72L643.21 254.39L638.67 256.39L635.06 257.75L633.05 258.41L628.91 259.74L626.73 260.37L622.29 261.6L620.03 262.16L615.53 263.24L613.33 263.71L608.99 264.58L606.96 264.92L603.02 265.53L601.29 265.72L597.98 266H596.65L594.46 266.08L593.12 266.2L592.56 266.29L591.54 266.49L591.18 266.6L590.59 266.85L590.51 266.99L590.34 268.05L590.41 269.2L590.54 269.96L590.84 271.6L591.06 272.57L591.56 274.59L591.87 275.71L593.28 280.46L594.18 283.03L596.07 288.21L597.12 290.7L598.62 294.48L599.51 296.89L599.86 297.96L600.5 299.99L600.69 300.76L601 302.14V302.5L600.76 304.76L600.36 306.23L600.06 306.94L599.38 308.33L598.95 308.99L598.03 310.27L597.49 310.86L596.35 312L595.71 312.5L594.38 313.45L593.66 313.85L592.19 314.59L591.4 314.87L589.8 315.36L588.97 315.5L587.13 315.91L586.22 316.23L585.9 316.43L585.36 316.84L585.21 317.1L585 317.63V317.96L585.21 318.83L585.59 319.29L585.91 319.47L586.66 319.81L587.2 319.94L588.38 320.19L589.16 320.3L592.98 321.23L595.15 322.27L596.11 323.03L597.95 324.75L598.81 325.91L600.49 328.44L601.32 330.05L602.87 333.28L603.5 335.11L603.67 336.11L603.9 338.22L603.91 339.64L603.9 341.14L603.87 342.02L603.81 343.89L603.77 345L603.48 349.76L603.2 352.32L603 353.38L602.56 355.36L602.26 356.23L601.61 357.9L601.19 358.71L598.67 362.13L596.42 364.24L595.16 365.11L592.56 366.7L591.28 367.21L590.01 367.66L589.4 367.79L588.21 368H587.66L586.13 368.12L585.51 368.47L585.34 368.93L585.19 369.45L585.14 369.8L585.06 370.58L585.04 371.09L585 372.19V372.88L584.99 374.35V375.25L584.83 380.96L584.72 382.54L584.66 383.15L584.53 384.22L584.46 384.5L584.45 385.63L584.8 386.32L585.22 386.68L586.22 387.43L587.02 387.87L588.82 388.83L590.09 389.43L593.14 391.11L595.22 392.46L596.26 393.23L600.42 396.57L602.37 398.48L606.13 402.42L607.7 404.45L609.2 406.49L609.84 407.49L611.05 409.49L611.52 410.45L612.89 413.57L613.57 415.61L613.8 416.68L614.16 418.86L614.22 420.08L614.25 422.63L614.13 424.12L613.8 427.25L613.5 429.11L613.18 431.03L612.98 432.08L612.56 434.23L612.31 435.4L611.79 437.82L611.49 439.14L610.87 441.84L610.53 443.31L609.8 446.34L609.4 447.98L608.58 451.35L608.13 453.17L605.75 462.88L605.03 465.85L604.71 467.22L604.08 469.87L603.8 471.06L603.27 473.34L603.05 474.32L602.64 476.15L602.48 476.87L602.21 478.17L602.13 478.6L602 479.32V479.42L602.63 480.58L603.63 481H604.38L605.58 481.12L606.57 481.3L607.11 481.44L609.36 482.09L610.35 482.5L613.04 483.56L613.73 483.81L613.98 483.88L614.39 484H614.47L614.67 483.68L614.8 483.18L614.84 482.82L615 481.08V479.97L615.22 477.23L615.57 475.44L615.84 474.58L616.45 472.86L616.84 472.04L617.69 470.44L618.19 469.69L619.24 468.23L619.84 467.57L621.08 466.28L621.77 465.72L623.18 464.65L623.94 464.2L625.49 463.37L626.32 463.06L628.18 462.54L629.6 462.28L630.38 462.2L633.66 462L635.38 462.08L638.83 462.35L640.41 462.66L641.96 462.99L642.66 463.19L644 463.63L644.57 463.89L647.39 465.52L649.14 466.87L649.95 467.65L651.5 469.3L652.19 470.2L653.5 472.06L654.05 473.04L655.08 475.04L655.48 476.07L656.18 478.13L656.4 479.17L656.73 481.23L656.75 482.23L656.68 484.21L656.48 485.15L656.04 486.75L655.64 487.99L655.4 488.65L654.34 491.29L653.81 492.35L652.53 495.13L652.27 495.81L652.21 496.04L652.14 496.4L652.18 496.43L652.47 496.57L652.87 496.74L653.17 496.87L654.59 497.46L655.61 497.88L657.83 498.78L659.15 499.31L661.92 500.42L663.42 501.01L668.8 503.28L671.71 504.67L672.92 505.34L675.18 506.69L676.14 507.39L677.97 508.83L678.8 509.63L683.27 513.91L682.8 524.46L682.66 528.55L682.63 530.95L682.64 531.9L682.68 533.63L682.72 534.17L682.77 534.64L682.81 534.78L682.87 535H682.91L683.5 534.76L684.19 534.38L684.65 534.11L686.76 532.81L688 531.99L690.38 530.57L692.4 529.48L693.53 528.92L698.3 526.64L700.5 525.76L703.1 524.73L704.6 524.17L705.29 523.95L707.91 523.19L709.34 522.98L710.82 522.79L711.66 522.73L713.43 522.62L714.47 522.59L716.69 522.54L718.01 522.53L720.82 522.52H722.5L727.88 522.59L731.13 522.72L732.61 522.84L735.5 523.11L736.84 523.3L739.47 523.73L740.73 524.02L745.63 525.35L748.11 526.34L750.6 527.4L751.91 528.02L754.57 529.34L756 530.1L761.86 533.54L765.47 536L767.14 537.34L770.39 540.12L771.92 541.65L774.9 544.82L776.31 546.58L779.09 550.23L780.42 552.26L783.06 556.48L784.36 558.83L786.92 563.7L788.21 566.41L790.78 572.01L792.08 575.12L794.18 580.15L795.34 582.98L795.82 584.18L796.7 586.44L797.05 587.4L797.69 589.22L797.94 590.01L798.73 592.88L798.93 594.15L799.21 596.68L799.27 598.16L799.32 600.03L799.33 601.07L799.32 601.5L799.21 603.04L799.04 603.59L798.62 604.58L798.26 604.99L797.41 605.8L796.79 606.27L795.12 607.26L793.79 607.78L792.97 607.97L791.2 608.33L790.1 608.46L787.75 608.69L786.29 608.78L778.5 609.23L778.76 681.86L778.82 696.48L778.86 705.79L778.89 710.17L778.95 718.71L778.98 722.62L779.01 726.46L779.02 728.28L779.06 731.86L779.07 733.53L779.1 736.8L779.12 738.32L779.15 741.26L779.17 742.6L779.21 745.2L779.22 746.36L779.26 748.57L779.27 749.53L779.31 751.35L779.32 752.1L779.36 753.49L779.38 754.02L779.41 754.95L779.43 755.25L779.46 755.71L779.47 755.75L780 756.27L780.66 756.55L781.12 756.66L782.11 756.86L782.72 756.92L784 757.02H784.72L788.71 757.47L791.49 758.16L792.79 758.64L795.32 759.69L796.35 760.29L798.22 761.55L798.76 762.2L799.07 762.83L799.26 763.49L799.34 763.95L799.5 764.94L799.57 765.57L799.71 766.91L799.77 767.72L799.89 769.44L799.94 770.44L800.03 772.54L800.07 773.75L800.15 776.26L800.18 777.67L800.23 780.61L800.26 782.25L800.32 787.94L800.34 791.08V792.37L800.32 794.78L800.29 795.74L800.22 797.52L800.17 798.22L800.04 799.5L799.95 799.99L799.75 800.89L799.62 801.23L799.03 802.4L798.6 802.89L796.69 805H660.35L657.94 802.25L656.01 800.03L655.47 799.39L655.25 799.14L654.87 798.68L654.76 798.55L654.47 798.47L654.29 798.72L654.22 798.97L654.1 799.54L654.06 799.94L654 800.79V801.3L654.01 802.84L654.07 803.35L654.25 804.21L654.46 804.46L654.98 804.84L655.42 804.91L656.43 805H632L632.19 708.25L632.23 677.69V667.7V662.8V653.06V648.31L632.22 638.9V634.35L632.21 625.34L632.2 621.01L632.18 612.47L632.17 608.4L632.15 600.41L632.13 596.65L632.11 589.28L632.09 585.85L632.06 579.17L632.04 576.12L632.01 570.21L631.99 567.57L631.95 562.5L631.92 560.31L631.88 556.15L631.86 554.44L631.81 551.27L631.78 550.09L631.76 548.96L631.75 548.51L631.72 547.66L631.71 547.35L631.68 546.79L631.67 546.62L631.64 546.36L631.63 546.34L630.8 546.37L629.69 546.52L629 546.66L626.5 547.14L627.01 805H620V677.7V668.49V662.57V659.71L620.01 654.06V651.34V645.96V643.37L620.02 633.27L620.03 628.61L620.05 619.53L620.06 615.36L620.08 607.26L620.09 603.56L620.12 596.38L620.14 593.13L620.17 586.83L620.19 584L620.23 578.54L620.26 576.1L620.3 571.43L620.33 569.38L620.39 565.45L620.42 563.74L620.49 560.51L620.52 559.14L620.6 556.56L620.64 555.49L620.72 553.51L620.77 552.73L620.86 551.31L620.91 550.79L621.02 549.88L621.07 549.6L621.19 549.15L621.25 549.09L621.79 548.46L621.92 548.19L621.87 548.14L621.67 548.07L621.45 548.1L620.91 548.21L620.5 548.32L619.21 548.58L617.95 548.79L617.18 548.9L613.79 549.35L612 549.54L608.84 549.91L606.37 550.24L605.06 550.43L602.41 550.82L601.12 551.02L598.6 551.42L597.5 551.61L591.91 552.46L587.43 553.04L584.82 553.33L579.37 553.92L576.29 554.21L569.92 554.8L566.41 555.1L559.17 555.69L555.24 555.99L547.18 556.58L542.85 556.87L534.02 557.45L529.33 557.74L519.78 558.31L514.75 558.59L504 559.19L504.01 565.85L504.02 567.95L504.05 569.11L504.08 569.59L504.24 571.23L504.44 571.78L504.91 572.73L505.31 573.09L506.25 573.77L506.94 574.17L509.44 576.34L511.03 578.4L511.71 579.58L512.96 582L513.36 583.19L514 585.52V586.49L513.52 589.77L512.74 592.07L512.14 593.24L510.8 595.59L509.94 596.74L508.11 599.02L507.03 600.09L504.89 602.35L503.95 603.59L503.68 604.2L503.23 605.43L503.13 606.16L503.01 607.74L503.02 608.79L503.15 612.05L503.42 613.58L503.71 614.13L504.41 615.14L504.98 615.58L506.29 616.43L507.24 616.92L508.44 617.75L509.24 618.51L509.63 618.98L511.16 621.03L511.81 622.25L513 624.75L513.39 626.01L514 628.5V629.57L513.45 632.54L512.57 634.74L511.9 635.89L510.43 638.21L509.51 639.36L507.55 641.64L506.41 642.7L504.58 644.58L503.79 645.67L503.55 646.27L503.18 647.52L503.1 648.34L503 650.13V651.37L503.08 654.45L503.28 655.84L503.5 656.34L504.06 657.25L504.53 657.65L505.62 658.46L506.43 658.96L509.13 661.37L510.84 663.56L511.56 664.79L512.89 667.32L513.32 668.54L514 670.93V671.91L513.48 674.88L512.65 677.03L512.03 678.13L510.65 680.35L509.78 681.42L507.95 683.52L506.9 684.47L504.7 686.59L503.79 687.75L503.54 688.39L503.15 689.77L503.08 690.72L503.02 691.73L503.01 692.34L503 693.63V694.4L503.01 696.47L503.04 697.6L503.07 698.07L503.24 699.67L503.46 700.21L504.01 701.16L504.48 701.55L505.59 702.33L506.43 702.82L509.65 705.33L511.34 707.3L511.96 708.4L513.04 710.66L513.35 711.86L513.81 714.31L513.82 715.57L513.67 718.09L513.37 719.35L512.61 721.85L512 723.05L510.63 725.41L509.72 726.51L507.73 728.63L506.51 729.56L504.52 731.21L503.7 732.19L503.47 732.81L503.13 734.16L503.07 735.17L503.02 736.24L503.01 736.89L503 738.28V739.12L503.07 742.23L503.2 743.81L503.3 744.37L503.53 745.35L503.69 745.62L504.03 746.03H504.25L505.75 746.45L506.82 747.07L507.36 747.52L508.45 748.51L508.99 749.11L510.04 750.38L510.53 751.08L512.38 754.07L513 755.63L513.56 757.18L513.73 757.93L514 759.39V760.05L513.81 761.7L513.51 762.92L513.28 763.58L512.16 766.29L511.38 767.66L509.68 770.39L508.7 771.61L506.68 773.9L505.64 774.71L504.21 776.04L503.59 776.96L503.42 777.58L503.13 778.97L503.07 779.99L503.03 781.07L503.01 781.71L503 783.08V783.89L503.01 785.98L503.04 787.14L503.06 787.62L503.19 789.27L503.31 789.77L503.62 790.58L503.86 790.76L504.42 791H504.81L506.15 791.34L507.12 791.87L507.63 792.27L509.69 794.15L510.63 795.37L512.42 797.96L513.02 799.28L513.57 800.58L513.74 801.2L514 802.4V802.93V803.42L514.1 803.61L514.38 803.98L514.76 804.13L515.69 804.39L516.52 804.49L517.42 804.59L517.99 804.63L519.2 804.71L519.93 804.74L521.5 804.8L522.43 804.82L524.39 804.87L525.54 804.89L527.94 804.92L529.33 804.94L532.23 804.96L533.88 804.97L537.31 804.98L539.24 804.99H543.26L545.5 805H550.14H552.71H558.02H499L501.01 804.96L502.13 804.89L502.58 804.83L503.43 804.69L503.76 804.6L504.34 804.39L504.54 804.25L505.1 803.61L505.04 803.14L504.7 802.1L504.23 801.4L503.11 800.32L502.01 799.55L501.39 799.21L500.12 798.56L499.54 798.35L498.44 798H498.07L496.6 798.62L495.47 799.52L494.94 800.1L493.92 801.32L493.57 801.91L493 803.07V803.5L493.08 804.03L493.28 804.23L493.79 804.57L494.25 804.69L495.31 804.88L496.09 804.93L497.83 805H482.91L483.6 801.32L484.16 799.51L484.76 798.19L485.16 797.5L486.99 794.72L488.15 793.46L490.18 791.06L491.12 789.66L491.44 788.92L491.99 787.4L492.18 786.45L492.51 784.42L492.65 783.09L493.3 776.9L489.2 772.96L486.57 769.95L485.18 767.83L484.67 766.74L483.78 764.53L483.52 763.41L483.12 761.16L483.1 760.04L483.19 757.81L483.43 756.71L484.02 754.54L484.5 753.5L485.58 751.45L486.31 750.48L487.89 748.6L488.87 747.74L490.61 746.04L491.34 744.99L491.55 744.33L491.87 742.87L491.93 741.81L491.98 740.68L491.99 740L492 738.55V737.69L491.99 735.35L491.96 734.05L491.93 733.52L491.74 731.63L491.52 730.94L490.96 729.67L490.48 729.07L489.36 727.83L488.52 727.02L486.19 724.32L484.96 722.4L484.51 721.4L483.71 719.39L483.48 718.36L483.11 716.29L483.1 715.26L483.17 713.2L483.37 712.19L483.87 710.18L484.29 709.22L485.23 707.32L485.86 706.43L487.24 704.7L488.1 703.91L490.3 701.74L491.21 700.56L491.46 699.9L491.85 698.5L491.92 697.52L491.98 696.49L491.99 695.87L492 694.55V693.75L491.98 691.7L491.95 690.55L491.92 690.06L491.72 688.33L491.49 687.67L490.94 686.43L490.47 685.83L489.39 684.59L488.59 683.79L486.63 681.44L485.55 679.73L485.13 678.82L484.35 676.97L484.08 676.02L483.62 674.1L483.51 673.13L483.36 671.19L483.41 670.24L483.6 668.36L483.82 667.45L484.33 665.68L484.72 664.86L485.58 663.26L486.14 662.55L488.05 660.66L489.43 659.68L489.95 659.52L490.91 658.93L491.41 658.25L491.6 657.72L491.97 656.51L492.12 655.64L492.41 653.72L492.54 652.45L493.24 645.98L489.19 641.59L486.71 638.48L485.4 636.37L484.92 635.3L484.07 633.17L483.81 632.1L483.42 629.98L483.39 628.94L483.45 626.87L483.65 625.86L484.17 623.87L484.61 622.92L485.59 621.05L486.25 620.17L487.69 618.45L488.58 617.66L490.48 615.83L491.27 614.76L491.5 614.13L491.85 612.78L491.92 611.83L491.97 610.82L491.99 610.22L492 608.94V608.18L491.98 606.13L491.95 604.98L491.91 604.49L491.69 602.74L491.43 602.04L490.8 600.69L490.25 599.98L489 598.46L488.06 597.45L485.84 594.63L484.68 592.7L484.26 591.72L483.52 589.74L483.31 588.75L483 586.77V585.78L483.11 583.81L483.33 582.85L483.87 580.93L484.29 580L485.26 578.17L485.9 577.29L487.29 575.57L488.14 574.75L489.42 573.52L490.11 572.81L490.38 572.5L491.29 571.31L491.53 570.67L491.86 569.34L491.89 568.42L491.9 567.45L491.88 566.86L491.83 565.62L491.8 564.87L491.5 558.75L487 558.45L485.75 558.38L484.61 558.32L483.91 558.29L482.43 558.22L481.57 558.18L479.8 558.1L478.83 558.06L474.72 557.89L472.46 557.8L467.84 557.63L465.5 557.54L448.37 556.66L436.55 555.8L430.57 555.25L418.58 554.07L412.65 553.39L400.86 551.95L395.16 551.15L383.93 549.51L378.65 548.62L373.43 547.73L370.93 547.27L366 546.35L363.66 545.87L359.07 544.92L356.91 544.44L352.7 543.47L350.75 542.98L346.96 542L345.24 541.51L341.92 540.52L340.45 540.03L335.75 538.46L332.94 537.55L331.79 537.18L329.68 536.52L328.98 536.32L328.35 536.14L328.14 536.08L327.8 536H327.75L327.46 536.44L327.29 537.12L327.22 537.62L327.1 538.71L327.06 539.37L327 540.76V541.52L327.14 544.42L327.39 546.15L327.62 546.97L328.14 548.62L328.53 549.48L329.38 551.26L329.94 552.27L331.36 555.05L332.42 557.36L332.99 558.71L334.16 561.51L334.77 563.04L335.99 566.17L336.61 567.81L339.04 574.53L340.13 577.82L341.19 581.08L341.66 582.62L342.55 585.64L342.92 587L344.89 595.88L345.83 601.99L346.12 605.18L346.59 611.68L346.64 615.12V622.14L346.46 625.9L346.11 632.09L345.83 635.68L345.65 637.24L345.27 640.22L345.04 641.51L344.53 643.98L344.22 645.05L343.56 647.12L343.16 648.04L342.31 649.81L341.81 650.63L340.74 652.22L340.12 652.98L338.8 654.48L338.04 655.25L333.27 660.01L332.39 679.26L332.21 683.59L332.11 686.79L332.06 688.52L331.97 692.07L331.93 693.94L331.86 697.74L331.83 699.72L331.71 707.79L331.68 711.93L331.62 720.22V724.24L331.63 732.13L331.65 735.72L331.68 739.24L331.7 740.87L331.75 744.04L331.78 745.47L331.84 748.22L331.87 749.41L331.95 751.65L331.99 752.56L332.09 754.23L332.14 754.83L332.25 755.85L332.31 756.08L332.78 757.17L333.29 757.95L333.62 758.33L335.1 759.81L335.93 760.3L337.44 761.39L338.28 762.24L338.63 762.76L339.29 763.87L339.55 764.56L340.03 766.02L340.21 766.91L340.53 768.81L340.64 769.96L340.83 772.39L340.87 773.83L340.94 776.88L340.93 778.66L340.9 782.42L340.85 784.59L340.73 788.78L340.65 791.19L340.6 792.23L340.5 794.18L340.43 795.01L340.3 796.56L340.22 797.22L340.06 798.45L339.96 798.96L339.75 799.92L339.63 800.32L339.09 801.74L338.73 802.3L336.95 805H195.31L193.4 802.9L192.39 801.24L192.14 800.49L192.04 800L191.85 798.95L191.77 798.28L191.63 796.84L191.57 795.94L191.47 794L191.43 792.82L191.35 790.29L191.32 788.77L191.25 785.55L191.22 783.65L191.17 779.3L191.16 776.72V775.58L191.18 773.39L191.2 772.44L191.26 770.62L191.3 769.84L191.39 768.37L191.44 767.75L191.57 766.59L191.65 766.11L191.99 764.5L192.22 764.05L194.34 761.41L196.3 759.95L197.56 759.37L200.24 758.33L201.84 757.97L205.2 757.36L207.13 757.22L214.09 756.72L213.66 683.81L213.56 669.15L213.49 659.83L213.45 655.46L213.37 646.93L213.34 643.03L213.3 639.2L213.28 637.39L213.24 633.84L213.22 632.17L213.18 628.93L213.16 627.43L213.12 624.51L213.1 623.19L213.06 620.62L213.04 619.49L213 617.3L212.98 616.36L212.94 614.59L212.92 613.86L212.89 612.52L212.87 612.01L212.83 611.13L212.82 610.86L212.78 610.45L212.77 610.44L212.04 610.19L211.07 609.98L210.39 609.86L208.92 609.61L208.06 609.48L206.27 609.23L205.3 609.1L201.64 608.61L199.64 608.28L198.85 608.09L197.38 607.69L196.81 607.44L195.79 606.91L195.43 606.56L194.79 605.82L194.58 605.35L194.24 604.33L194.16 603.69L194.05 602.33L194.06 601.49L194.1 599.71L194.15 598.64L194.3 596.21L194.44 594.79L194.53 594.13L195.03 591.6L195.54 590.21L196.09 588.77L196.46 587.95L197.25 586.23L197.76 585.22L198.85 583.08L199.52 581.8L200.95 579.11L201.81 577.5L202.98 575.2L204.01 573.11L204.61 571.88L207.13 566.61L208.33 564L211.93 557.1L214.63 552.78L216.11 550.75L219.19 546.79L220.87 544.95L224.32 541.36L226.18 539.7L230.01 536.49L232.06 535.02L236.26 532.18L238.5 530.9L243.06 528.44L245.48 527.36L250.4 525.28L253 524.39L256.21 523.61L258.94 523.18L260.51 523.02L263.78 522.72L265.53 522.62L269.09 522.46L270.89 522.43L274.5 522.41L276.24 522.45L279.65 522.57L281.2 522.69L284.18 522.95L285.41 523.14L287.7 523.56L288.5 523.83L296.03 526.51L300.55 528.32L302.46 529.18L304.3 530.03L305.11 530.44L306.66 531.24L307.3 531.61L308.51 532.33L308.98 532.66L309.81 533.29L310.06 533.57L311.96 535.29L312.53 535.68L312.76 535.81L313.18 536H313.32L313.68 535.23L313.84 533.98L313.88 533.03L313.93 530.9L313.91 529.54L313.84 526.64L313.76 524.94L313.6 521.38L313.53 519.43L313.51 518.64L313.5 517.15L313.52 516.55L313.59 515.44L313.65 514.99L313.99 513.42L314.33 512.81L315.12 511.63L315.72 510.92L317.34 509.52L319 508.36L320.05 507.72L322.29 506.38L323.55 505.68L326.14 504.27L327.51 503.57L333.07 500.83L335.6 499.75L338.04 498.74L339.1 498.36L341.08 497.7L341.82 497.54L343.4 497.11L344.1 496.8L344.3 496.62L344.61 496.23L344.63 495.99L344.58 495.48L344.45 495.16L342.9 490.94L341.89 487.75L341.46 486.17L340.67 483.09L340.41 481.82L340.18 480.6L340.11 480.1L340 479.17V478.85L340.27 476.52L340.7 474.96L341.04 474.19L341.78 472.65L342.26 471.9L343.29 470.43L343.91 469.72L345.19 468.33L345.92 467.69L347.43 466.43L348.26 465.85L349.96 464.75L350.88 464.27L352.75 463.37L353.74 463L356.74 462.02L358.65 461.55L359.57 461.4L363.14 461.08L364.83 461.3L368.16 462L369.81 462.73L371.46 463.54L372.29 464.04L373.96 465.1L374.81 465.74L377.46 468.22L378.85 470.14L379.38 471.3L380.35 473.75L380.7 475.22L381.32 478.35L381.52 480.23L382.14 485.96L386.82 483.62L390.94 481.78L392.26 481.26L392.83 481.06L393.89 480.71L394.27 480.62L395.61 480.21L396.18 479.92L396.32 479.74L396.5 479.36L396.47 479.11L396.31 478.57L396.13 478.23L395.87 477.54L395.63 476.78L395.48 476.25L395.16 475.12L394.98 474.43L394.6 472.99L394.39 472.16L393.5 468.6L393 466.54L392 462.27L391.48 460L389.92 453.12L388.9 448.62L388.43 446.58L387.97 444.59L387.76 443.68L387.35 441.91L387.17 441.13L386.82 439.65L386.68 439.04L386.41 437.91L386.31 437.5L385.73 434.54L385.38 432.18L385.23 430.91L384.96 428.34L384.86 427.08L384.7 424.6L384.68 423.5L384.65 421.14L384.66 419.76L384.68 419.15L384.84 416.88L385.02 415.89L385.46 413.97L385.83 412.97L386.65 410.91L387.24 409.66L388.88 406.7L390.27 404.62L391.08 403.55L394.61 399.25L396.6 397.23L398.62 395.25L399.64 394.34L401.69 392.58L402.69 391.82L404.67 390.37L405.61 389.8L407.43 388.77L408.25 388.43L412.99 386.5L413 377.75L412.99 375.04L412.97 373.55L412.95 372.95L412.9 371.83L412.85 371.4L412.76 370.61L412.69 370.32L412.36 369.41L412.08 369.22L411.43 369H410.96L409.68 368.62L408.58 368.03L407.95 367.59L406.64 366.64L405.94 366.06L404.52 364.85L403.81 364.19L400.99 361.39L399.84 360.01L398.75 358.64L398.33 358.01L397.57 356.8L397.36 356.28L396.81 354.31L396.52 352.54L396.41 351.48L396.21 349.27L396.14 348.07L396.04 345.63L396.02 344.37L396.06 339.37L396.23 337.23L396.43 335.19L396.57 334.35L396.87 332.82L397.06 332.32L399.12 328.7L401.08 326.34L402.23 325.31L404.6 323.37L405.8 322.68L406.99 322.04L407.56 321.82L408.7 321.43L409.23 321.35L413 320.74V294.48V268.22L410.75 267.69L409.99 267.53L409.21 267.39L408.69 267.31L407.58 267.12L406.92 267.01L405.54 266.79L404.75 266.67L401.41 266.14L399.5 265.85L395.56 265.26L393.5 264.96L384.82 263.49L379.26 262.34L376.61 261.68L371.4 260.33L368.95 259.59L364.17 258.07L361.96 257.25L357.68 255.58L355.74 254.7L352.02 252.91L350.4 251.97L347.32 250.08L346.04 249.11L343.66 247.15L342.76 246.15L340.66 243.55L339.51 241.8L339.05 240.92L338.23 239.16L337.95 238.26L337.45 236.47L337.33 235.55L337.16 233.72L337.2 232.78L337.36 230.89L337.57 229.93L338.05 227.98L338.42 226.98L339.22 224.97L339.75 223.93L342.2 220.1L344.2 217.82L345.37 216.82L347.82 214.92L349.2 214.12L352.06 212.61L353.63 212.01L356.87 210.9L358.62 210.51L362.19 209.83L364.1 209.65L367.98 209.4L370.02 209.44L374.17 209.64L376.34 209.92L380.62 210.57L383.85 211.16L385.52 211.51L388.86 212.22L390.43 212.6L393.46 213.35L394.73 213.72L398.36 214.7L400.53 215.23L401.42 215.42L403.05 215.74L403.58 215.81L404.45 215.88L404.53 215.8L404.59 215.51L404.63 215.08L404.66 214.76L404.7 214.05L404.72 213.59L404.77 212.6L404.79 212L404.89 209.38L404.94 207.71L405.04 204.16L405.09 202.08L405.19 197.72L405.24 195.29L405.34 190.26L405.39 187.53L405.48 181.95L405.53 178.99L405.61 172.99L405.65 169.87L405.73 163.54L405.79 159.59L405.81 157.75L405.87 154.14L405.9 152.46L405.96 149.17L405.99 147.65L406.05 144.67L406.08 143.3L406.15 140.61L406.18 139.38L406.32 134.7L406.4 132.73L406.56 129.04L406.65 127.52L406.84 124.68L406.94 123.54L407.16 121.43L407.29 120.6L407.54 119.08L407.69 118.5L409.29 113.28L410.64 109.99L411.45 108.45L413.16 105.43L414.16 104.01L416.26 101.25L417.46 99.9599L419.94 97.4499L421.34 96.2899L424.23 94.0399L425.83 92.9999L429.13 90.9899L430.94 90.0699L434.67 88.2999L436.7 87.4999L440.86 85.9699L443.1 85.2899L447.7 83.9999L450.17 83.4299L455.23 82.3699L457.93 81.9199L463.45 81.0799L466.39 80.7399L472.38 80.1199L475.56 79.8899L482.03 79.4899L485.45 79.3699L492.42 79.1799L496.1 79.1699M611.96 555.31L612.88 555.78L613.11 556.15L613.2 556.93L613.26 558.08L613.29 558.95L613.34 560.89L613.37 562.14L613.42 564.83L613.45 566.44L613.5 569.84L613.52 571.79L613.57 575.85L613.59 578.11L613.64 582.8L613.66 585.36L613.7 590.62L613.72 593.46L613.76 599.26L613.78 602.34L613.81 608.64L613.83 611.95L613.86 618.7L613.87 622.23L613.9 629.38L613.91 633.09L613.93 640.61L613.94 644.49L613.96 652.34V656.36L613.98 672.74V681.25L614 805H607.9L608.5 709.75L608.62 690.36L608.69 677.79L608.72 671.78L608.78 659.97L608.8 654.45L608.82 649L608.83 646.39L608.85 641.25L608.86 638.81L608.87 634.01L608.88 631.76L608.89 627.35L608.9 625.3V621.31L608.91 619.49V615.95V614.37V611.33V610.01L608.9 607.5V606.46L608.89 604.51L608.88 603.77L608.87 602.43L608.86 602L608.81 599.14L608.78 596.98L608.76 595.81L608.7 590.85L608.67 588.18L608.62 582.76L608.6 580.1L608.56 574.85V572.51L608.55 567.23L608.56 564.34L608.57 563.16L608.61 561L608.65 560.15L608.73 558.6L608.79 558.02L608.93 556.99L609.02 556.62L609.22 555.99L609.35 555.79L609.94 555.25L610.38 555.17M363.4 792.64L364.63 793.62L365 794.29L365.6 795.75V796.57L365.41 798.24L364.96 799.07L364.01 800.25L363.31 800.58L361.78 801.06L360.96 801.04L359.32 800.83L358.61 800.46L357.31 799.57L356.93 798.87L356.27 796.38L356.48 794.82L356.87 794.17L357.81 792.98L358.51 792.6L360.05 792H361M204.28 768L203.64 774.15L203.09 781.57L202.97 786.05L203.03 787.92L203.11 789.71L203.18 790.49L203.34 791.96L203.45 792.56L203.69 793.65L203.83 794.04L204.14 794.7L204.32 794.85L204.92 795.1L205.61 795.26L206.09 795.33L207.13 795.48L207.78 795.54L209.16 795.68L209.97 795.74L211.67 795.85L212.63 795.91L214.63 796.01L215.73 796.05L220.39 796.2L223.07 796.25L246.68 796.59L258.35 796.68L269.92 796.75L275.43 796.76L280.88 796.78H283.51H288.69L291.17 796.77L296.02 796.76L298.31 796.75L302.78 796.72L304.85 796.7L308.88 796.66L310.71 796.64L314.22 796.58L315.77 796.55L318.73 796.49L319.97 796.45L322.3 796.37L323.21 796.33L324.85 796.23L325.39 796.18L326.29 796.08L326.43 796.02L327.91 795.28L328.24 794.93L328.36 794.68L328.59 794.14L328.67 793.76L328.81 792.93L328.86 792.38L328.94 791.17L328.96 790.39L328.99 788.72V787.68L329 785.45V784.09L328.92 779.63L328.8 776.82L328.71 775.6L328.52 773.29L328.4 772.43L328.28 771.62L328.22 771.3L328.09 770.74L328.02 770.57L327.05 768M665.65 777.15L665.43 780.34L665.3 782.27L665.24 783.14L665.07 786.37L665.05 787.66L665.07 790.01L665.17 790.91L665.44 792.53L665.69 793.12L666.28 794.17L666.71 794.52L667.68 795.13L668.32 795.33L669.73 795.65L670.63 795.76L672.54 795.95L673.71 796.04L674.4 796.09L674.87 796.11L675.91 796.15L676.55 796.17L677.91 796.21L678.71 796.23L680.37 796.26L681.31 796.28L685.33 796.33L687.7 796.35L692.66 796.39L695.43 796.41L701.14 796.43L704.21 796.44L710.48 796.45H713.76L727.19 796.43L733.99 796.4L740.78 796.37L744.1 796.35L750.67 796.31L753.82 796.29L759.99 796.24L762.85 796.21L768.43 796.14L770.92 796.11L775.71 796.04L777.74 796L779.7 795.96L780.58 795.94L782.27 795.89L783 795.87L784.39 795.83L784.96 795.81L786.03 795.76L786.43 795.74L787.15 795.69L787.37 795.67L787.72 795.62L787.74 795.59L787.87 795.19L787.96 794.67L788 794.29L788.16 792.5L788.22 791.24L788.34 788.51L788.38 786.9L788.44 783.53L788.45 781.72L788.5 768.5L727.4 768.24L666.3 767.98M497.95 753L496.48 753.43L495.59 754.09L495.2 754.57L494.47 755.61L494.18 756.22L493.64 757.49L493.46 758.17L493.16 759.55L493.1 760.23L493.07 761.57L493.16 762.18L493.43 763.35L493.69 763.82L494.3 764.68L494.75 764.94L495.92 765.5L496.53 765.62L497.77 765.75L498.39 765.67L499.62 765.43L500.21 765.19L501.36 764.64L501.88 764.26L502.87 763.45L503.27 762.97L504.02 761.96L504.28 761.4L504.71 760.24L504.78 759.63L504.81 758.39L504.65 757.76L503.73 756.1L502.69 755.03L502.04 754.57L500.68 753.72L499.98 753.44L498.58 753M654.95 655.53L654.91 655.97L654.9 656.31L654.86 657.09L654.85 657.6L654.81 658.69L654.8 659.36L654.77 660.76L654.75 661.57L654.72 663.27L654.7 664.21L654.65 668.27L654.62 670.66L654.57 675.66L654.54 678.47L654.5 684.29L654.48 687.45L654.45 693.93L654.43 697.36L654.41 704.36V708L654.39 715.21V718.65V725.41V728.58V734.76V737.58L654.4 743.03L654.41 745.43L654.42 750.01L654.43 751.92L654.44 753.76V754.58L654.45 756.15L654.46 756.82L654.47 758.09L654.48 758.61L654.49 759.56L654.5 759.92L654.51 760.54L654.52 760.73L654.53 761H654.54L654.9 760.89L655.37 760.71L655.69 760.58L657.21 759.97L658.14 759.59L661.5 758.17L661.77 745.34L661.81 742L661.82 739.13V737.42L661.81 733.83V731.81L661.78 727.62L661.77 725.36L661.73 720.73L661.71 718.29L661.66 713.34L661.62 710.79L661.49 700.47L661.4 695.36L660.77 658.22L658.14 656.89L656.13 655.87L655.14 655.36L655 655.29M227.07 611.2L226.96 611.51L226.91 611.78L226.81 612.38L226.77 612.8L226.68 613.71L226.64 614.29L226.56 615.55L226.52 616.31L226.45 617.93L226.42 618.88L226.36 620.89L226.33 622.05L226.28 624.47L226.25 625.85L226.21 628.72L226.19 630.34L226.15 633.68L226.13 635.54L226.1 639.38L226.09 641.49L226.07 645.86L226.06 648.24L226.04 653.16L226.03 655.83L226.02 661.33L226.01 664.3V670.4L226 673.68V680.41V757.03L250.75 756.77L275.5 756.5L275.76 689.33L276.01 622.17L269.76 620.13L267.81 619.52L266.31 619.09L265.48 618.87L261.93 617.93L259.92 617.43L255.77 616.43L253.57 615.93L249.14 614.93L246.94 614.45L242.55 613.53L240.49 613.12L236.49 612.34L234.74 612.03L231.44 611.47L230.16 611.3L228.95 611.14L228.47 611.09L227.57 611.02L227.25 611.01M765.25 611.02L763.84 611.1L763.09 611.43L762.79 611.94L762.5 612.52L762.38 612.93L762.14 613.84L762.04 614.45L761.85 615.77L761.76 616.61L761.61 618.43L761.54 619.54L761.42 621.92L761.37 623.34L761.28 626.36L761.24 628.13L761.18 631.86L761.15 634.02L761.11 638.55L761.09 641.13L761.06 646.53L761.05 649.58L761.03 655.91V659.46L761.02 663.08V664.99L761.01 668.87V670.91V675.07V677.26L761 681.71V684.04L760.99 698.41L760.98 707.56V711.85L760.97 720.22V724.05V727.82V729.6L760.96 733.09V734.73V737.92V739.4V742.28V743.58V746.11V747.24V749.39V750.32V752.08V752.8V754.14V754.64V755.53L760.97 755.8V756.22V756.25L761.06 756.45L761.22 756.54L761.6 756.71L761.87 756.78L763.17 757H767V684V671.83V664.44L766.99 661.09V654.61L766.98 651.69L766.97 646.06L766.96 643.54L766.94 638.7L766.93 636.56L766.9 632.44L766.88 630.64L766.84 627.2L766.82 625.71L766.77 622.88L766.74 621.68L766.68 619.4L766.65 618.45L766.57 616.67L766.53 615.94L766.44 614.6L766.39 614.07L766.28 613.09L766.22 612.73L765.96 611.57L765.8 611.32L765.46 611.01M729.88 618.59L729.49 618.7L728.65 618.95L728.14 619.13L727.05 619.53L726.42 619.78L723.71 620.88L722.14 621.57L718.86 623.04L717.11 623.86L709.95 627.32L706.72 629.03L703.6 630.71L702.29 631.47L699.85 632.93L699 633.52L696.04 635.67L693.89 637.32L692.8 638.19L690.65 639.92L689.67 640.75L687.78 642.36L687.03 643.05L681.56 648.05L681.16 702.53L680.76 757H732.05L731.78 688.08L731.71 674.23L731.65 665.41L731.62 661.28L731.55 653.2L731.52 649.51L731.48 645.89L731.46 644.17L731.42 640.8L731.4 639.23L731.36 636.15L731.34 634.73L731.3 631.96L731.28 630.71L731.23 628.27L731.21 627.19L731.17 625.12L731.15 624.23L731.1 622.54L731.08 621.85L731.04 620.56L731.01 620.08L730.97 619.23L730.95 618.97L730.91 618.57L730.88 618.55L730.43 618.49M305 671.71L304.98 678.27L304.96 682.99L304.94 685.48L304.86 695.72L304.8 700.95L304.67 711.38L304.59 716.23L304.51 720.99L304.47 723.2L304.38 727.5L304.33 729.42L304.26 732.61L304.22 734.07L304.16 736.89L304.13 738.17L304.08 740.65L304.06 741.76L304.02 743.91L304.01 744.87L303.98 746.71V747.53L303.97 749.09V749.77L303.99 752.25L304.02 753.15L304.11 754.74L304.19 755.26L304.35 756.14L304.47 756.38L304.71 756.73L304.87 756.76L305.21 756.75L305.42 756.67L307.21 756.2L308.55 756H309.08L309.7 755.83L310.04 755.43L310.17 754.94L310.3 754.4L310.35 754.04L310.46 753.24L310.51 752.73L310.6 751.63L310.64 750.95L310.71 749.49L310.74 748.62L310.8 746.76L310.82 745.66L310.86 743.34L310.88 742L310.91 739.18L310.93 737.57L310.95 734.2L310.96 732.3L310.97 728.33V726.1L310.98 721.48V718.91L310.99 713.59V710.65V704.58L310.98 701.25L310.97 690.23L310.94 683.2L310.92 679.9L310.88 673.46L310.85 670.51L310.79 664.79L310.76 662.26L310.69 657.43L310.65 655.4L310.61 653.43L310.59 652.56L310.54 650.87L310.52 650.15L310.48 648.77L310.45 648.2L310.41 647.14L310.38 646.74L310.33 646.02L310.31 645.8L310.26 645.44L310.23 645.4L309.05 644.27L307.87 643.44L307.25 643.11L305 641.93M496.65 710.05L495.85 710.38L495.1 710.76L494.79 711.02L494.22 711.58L494.04 711.93L493.16 714.38L492.98 716L493.09 716.76L493.43 718.23L493.79 718.86L494.62 720.02L495.22 720.44L496.45 721.15L497.09 721.31L498.4 721.49L499.08 721.39L500.45 721.06L501.15 720.7L502.55 719.84L503.25 719.23L504.48 717.74L504.9 716.68L504.92 716.1L504.82 714.92L504.57 714.27L503.95 712.95L503.44 712.22L501.32 710.55L499.49 709.96L498.54 709.93M361.02 690.17L361.84 690.25L362.24 690.4L363.02 690.77L363.37 691.06L364.06 691.72L364.34 692.17L364.87 694.06L364.63 695.51L364.22 696.42L363.68 697.4L363.35 697.76L362.65 698.39L362.27 698.58L361.48 698.89L361.08 698.93H360.27L359.88 698.82L359.12 698.53L358.77 698.29L358.12 697.73L357.85 697.36L357.38 696.55L357.23 696.06L357 695.02V694.42L357.22 692.95L357.57 692.1L357.83 691.75L358.39 691.11L358.72 690.87L359.43 690.46L359.82 690.34L360.61 690.16M362.15 670.2L363.38 670.87L363.91 671.55L364.92 673.14L365.32 674.27L365.26 676.1L364.59 677.41L363.98 678.02L362.9 679.07L362.47 679.38L361.67 679.85L361.28 679.88L360.48 679.8L359.99 679.56L358.94 678.94L358.22 678.44L356.68 676.9L356.13 675.77L356.09 675.18L356.18 673.98L356.47 673.39L357.21 672.21L357.83 671.65L360.1 670.22L361.52 669.97M498.09 666.08L497.01 666.23L496.48 666.49L495.4 667.14L494.83 667.65L493.62 669.19L493.15 670.34L493.08 670.97L493.06 672.27L493.22 672.95L493.65 674.34L494.04 675.07L494.91 676.07L495.63 676.39L497.23 676.92L498.13 677L499.95 677.02L500.77 676.82L502.31 676.29L502.8 675.8L503.82 673.91L504.05 672.37L503.95 671.58L503.62 669.99L503.25 669.29L502.39 667.99L501.78 667.56L499.81 666.44L498.64 666.08M360.71 653.19L362.56 654.22L363.76 655.44L364.25 656.18L365.13 657.7L365.35 658.42L365.63 659.81L365.44 660.3L365.11 660.89L364.85 661.13L364.27 661.55L363.9 661.69L362.28 662.11L361.37 662.07L359.54 661.83L358.75 661.47L358 661.07L357.7 660.82L357.14 660.27L356.96 659.93L356.63 657.74L357 656.14L357.39 655.43L358.31 654.09L358.88 653.68L359.47 653.32L359.78 653.23L360.4 653.13M784.58 589.34L783.4 589.39L782.68 589.45L781.17 589.56L780.3 589.64L776.56 590.02L774.36 590.28L769.76 590.84L767.27 591.18L756.88 592.64L751.76 593.47L746.72 594.3L744.39 594.72L739.9 595.55L737.98 595.95L728.46 598.33L722.1 600.31L718.95 601.48L712.67 603.94L709.59 605.33L703.49 608.21L700.54 609.79L694.72 613.05L691.94 614.8L686.48 618.38L683.93 620.27L678.94 624.12L676.65 626.13L672.22 630.19L670.25 632.29L668.74 633.93L667.89 634.89L667.54 635.32L666.32 636.89L665.95 637.57L665.33 638.89L665.19 639.56L665 640.94V641.77L665.19 644.71L665.32 645.48L665.4 645.76L665.56 646.23L665.65 646.31L665.8 646.34L665.98 646.25L666.38 646.03L666.67 645.83L667.29 645.38L667.68 645.08L668.49 644.42L668.96 644.03L671 642.28L672.19 641.2L674.68 638.91L676.02 637.63L682.54 631.72L686.97 628.06L689.23 626.35L693.8 623.04L696.14 621.5L700.85 618.53L703.27 617.16L708.16 614.51L710.67 613.31L715.73 610.99L718.34 609.94L723.61 607.92L726.32 607.03L731.81 605.31L734.64 604.57L740.71 603L744.32 602.11L745.97 601.73L749.17 601.02L750.67 600.72L753.61 600.16L755.04 599.92L760.72 599.12L763.81 598.84L766.96 598.58L768.68 598.47L772.22 598.25L774.2 598.16L787.5 597.5L787.81 593.74L787.86 592.03L787.79 591.11L787.69 590.76L787.47 590.12L787.3 589.9L786.92 589.52L786.67 589.43L785.93 589.33L785.13 589.32M362.66 636.17L363.99 636.57L364.56 637.05L365.57 638.64L365.93 640.07L365.95 640.85L365.9 642.4L365.71 643.1L365.21 644.39L364.8 644.8L363.88 645.55L363.36 645.73L362.28 645.98L361.69 645.91L360.48 645.66L359.84 645.36L358.53 644.61L357.86 644.06L356.58 642.92L356.12 642.31L356.07 641.99V641.34L356.24 640.92L356.67 639.98L357.03 639.31L358.6 637.39L359.88 636.53L360.57 636.32L361.98 636.06M205.19 594.25L205.1 596.17L205.18 597.04L205.3 597.31L205.59 597.75L205.85 597.86L206.42 598H206.83L208.95 598.05L210.58 598.13L211.49 598.2L215.4 598.51L217.66 598.74L222.36 599.26L224.91 599.59L230.13 600.27L232.83 600.66L243.82 602.33L249.01 603.26L254.11 604.19L256.44 604.66L260.93 605.6L262.86 606.06L270.1 608.05L274.89 609.64L277.27 610.56L282 612.49L284.34 613.57L288.99 615.83L291.29 617.08L295.86 619.66L298.11 621.07L302.57 623.97L304.76 625.53L309.12 628.73L311.24 630.45L315.47 633.96L317.52 635.82L319.31 637.43L320.1 638.12L321.61 639.45L322.27 640.01L323.54 641.07L324.09 641.5L325.12 642.31L325.56 642.62L326.39 643.19L326.74 643.39L327.38 643.73L327.64 643.82L328.51 643.99L328.74 643.8L329.52 642.93L329.81 642.3L329.83 641.93L329.78 641.17L329.61 640.71L329.18 639.76L328.81 639.19L327.96 637.99L327.37 637.28L326.07 635.78L325.24 634.9L323.44 633.04L322.35 631.95L320.03 629.68L318.66 628.36L308.94 619.88L302.3 614.93L298.82 612.75L291.74 608.59L287.96 606.76L280.2 603.25L276 601.68L270.22 599.8L265.73 598.57L263.23 597.97L258.09 596.79L255.34 596.23L249.73 595.14L246.82 594.64L234.97 592.78L229.12 592.11L223.32 591.49L220.53 591.27L215.05 590.88L212.5 590.77L205.5 590.5M586.95 581.31L588.63 581.8L589.48 582.18L591.17 583.01L591.99 583.53L593.62 584.64L594.39 585.28L595.89 586.63L596.58 587.37L597.9 588.89L598.47 589.7L599.54 591.34L599.96 592.19L600.71 593.91L600.96 594.78L601.8 598.75L602.04 601.24L601.97 602.46L601.71 604.88L601.37 606.1L600.54 608.56L599.9 609.85L598.45 612.48L597.47 613.9L595.34 616.83L594 618.45L591.11 621.79L589.37 623.67L587.58 625.58L586.6 626.59L584.6 628.65L583.51 629.75L581.08 632.2L580.01 633.26L577.95 635.28L577.06 636.14L575.35 637.77L574.61 638.45L573.2 639.71L572.6 640.22L571.46 641.15L570.97 641.51L570.06 642.15L569.67 642.37L568.94 642.75L568.63 642.85L568.04 643H567.79L566.86 642.79L566.12 642.45L565.68 642.19L563.82 640.89L562.71 639.93L560.4 637.83L559.13 636.54L556.54 633.82L555.2 632.3L552.5 629.16L551.17 627.49L548.53 624.13L547.3 622.42L544.9 619.02L543.85 617.38L541.86 614.14L541.08 612.65L539.04 607.71L538.22 604.43L538.07 602.83L537.95 599.66L538.14 598.15L538.69 595.17L539.2 593.79L540.38 591.09L541.19 589.87L542.97 587.53L544.08 586.52L546.43 584.63L547.81 583.87L550.7 582.5L552.34 582.04L556.38 581.31L558.94 581.27L560.18 581.47L562.63 582.03L563.83 582.54L566.24 583.71L567.44 584.53L570.17 586.19L571.59 586.8L572.17 586.87L573.24 586.85L573.71 586.61L574.61 585.97L575.05 585.43L576.91 583.78L578.5 582.77L579.37 582.36L581.15 581.61L582.03 581.37L583.75 581H584.49M497.75 623.25L497.16 623.48L496 624.07L495.49 624.58L494.52 625.75L494.15 626.57L493.32 628.85L493.05 630.23V630.83L493.16 631.99L493.35 632.49L493.82 633.42L494.2 633.8L494.92 634.38L495.35 634.58L496.26 634.89L496.76 634.96L498.87 635L499.91 634.71L501.92 633.93L502.68 633.3L503.38 632.63L503.63 632.24L504.06 631.44L504.14 631L504.22 628.45L503.88 626.95L503.56 626.32L502.83 625.13L502.35 624.68L501.34 623.86L500.77 623.6L499.59 623.2L498.98 623.18M275.24 534.54H273.52L269.06 534.57L266.57 534.6L265.52 534.64L263.53 534.72L262.67 534.79L261.03 534.93L260.3 535.04L257.5 535.56L256.05 536.01L254.57 536.49L253.74 536.78L252.01 537.42L251 537.8L245.74 540.02L242.4 541.66L240.82 542.55L237.73 544.4L236.27 545.39L233.43 547.43L232.11 548.52L229.54 550.73L228.36 551.91L226.07 554.3L225.03 555.55L223.03 558.11L222.15 559.44L220.46 562.14L219.74 563.54L219.06 565.09L218.55 566.46L218.28 567.26L217.16 570.71L216.66 572.48L216.17 574.23L215.96 575.04L215.58 576.58L215.44 577.22L215.21 578.4L215.16 578.8L215.12 579.44L215.19 579.51L215.68 579.62L216.42 579.75L216.97 579.83L218.19 580.02L218.96 580.13L220.61 580.37L221.58 580.51L223.6 580.79L224.73 580.95L227.06 581.26L228.32 581.43L233.61 582.14L236.5 582.51L244.76 583.62L249.62 584.33L251.79 584.67L255.95 585.36L257.84 585.72L261.49 586.44L263.18 586.82L269.64 588.44L272.78 589.45L275.93 590.5L277.57 591.09L280.91 592.33L282.71 593.04L289.82 595.56L292.04 596.25L293.08 596.54L295.09 597.08L296 597.29L297.72 597.68L298.46 597.8L299.83 598.01L300.35 598.03L301.29 598.04L301.57 597.97L302 597.76V597.57L301.67 596.47L301.2 595.37L300.89 594.8L300.44 593.37L300.15 591.91L300.02 591L299.77 589.09L299.68 588.04L299.51 585.88L299.47 584.79L299.17 580.47L298.83 578.07L298.55 576.95L297.91 574.73L297.43 573.51L296.37 570.99L295.63 569.44L292 563.01L289.21 559.14L287.65 557.43L284.42 554.16L282.66 552.77L279.03 550.16L277.09 549.13L275.03 547.98L273.87 547.28L273.38 546.95L271.7 545.68L271.21 545.09L270.46 543.92L270.38 543.32L270.42 542.08L270.69 541.37L271.23 540.58L271.82 540.25L272.3 540.17L273.38 540.08L274.17 540.11L275.93 540.23L277.14 540.36L281.65 541.16L284.74 542.03L286.31 542.62L289.45 543.89L291.01 544.66L294.13 546.29L295.66 547.22L298.7 549.17L300.16 550.25L303.03 552.48L304.39 553.68L307.05 556.15L308.27 557.45L310.63 560.11L311.68 561.5L315.29 566.78L317.69 570.75L318.79 572.79L320.92 576.87L321.78 578.78L322.61 580.66L322.95 581.54L323.6 583.24L323.84 584L324.58 586.78L325.12 589.23L325.4 590.67L325.97 593.68L326.26 595.31L326.82 598.63L327.09 600.33L327.61 603.72L327.83 605.36L328.27 608.58L328.44 610.03L328.75 612.83L328.84 613.99L328.99 616.12V616.85L329.47 621.63L329.79 623.18L329.99 623.86L330.39 625.13L330.61 625.6L331.12 626.63L331.34 627.03L331.78 627.78L331.98 628.05L332.37 628.51L332.54 628.64L332.87 628.82L333.02 628.81L333.31 628.71L333.44 628.56L333.7 628.18L333.81 627.88L334.03 627.22L334.14 626.78L334.34 625.83L334.43 625.25L334.66 623.22L334.74 621.66L334.76 620.79L334.73 617.06L334.6 614.92L334.28 610.46L334.02 608.06L333.45 603.15L333.08 600.62L332.3 595.54L331.84 593.04L330.89 588.06L330.36 585.71L329.28 581.12L328.7 579.07L327.53 575.14L326.92 573.52L324.59 568.29L322.66 564.78L321.53 563.04L319.18 559.58L317.87 557.89L315.16 554.56L313.7 552.96L310.7 549.83L309.12 548.37L305.91 545.51L304.24 544.21L300.89 541.71L299.18 540.62L295.74 538.55L294.02 537.7L291.87 536.66L290.64 536.09L290.06 535.87L287.85 535.13L286.55 534.92L285.19 534.75L284.38 534.69L282.68 534.6L281.64 534.58L279.44 534.54H278.1M362.07 619.27L363.39 619.51L363.99 619.89L365.15 620.83L365.62 621.55L366.26 622.68L366.46 623.32L366.45 623.62L366.35 624.24L366.18 624.59L365.76 625.33L365.43 625.8L364.4 626.94L363.76 627.3L362.4 627.86L361.67 627.92L360.2 627.89L359.49 627.64L358.13 626.99L357.57 626.43L356.44 625.12L356.09 624.39L356.13 624.02L356.34 623.27L356.67 622.81L357.47 621.8L358.09 621.13L360.04 619.67L361.4 619.23M720.1 533.44L715.56 533.87L713.37 534.34L704.42 536.72L699.03 538.69L696.6 539.88L691.9 542.4L689.77 543.89L685.64 547.03L683.75 548.84L680.12 552.51L677.95 554.92L676.98 556.13L675.1 558.55L674.26 559.8L672.62 562.34L671.88 563.67L670.45 566.39L669.79 567.85L668.51 570.84L667.91 572.46L666.74 575.81L666.18 577.64L665.06 581.42L664.51 583.5L663.44 587.67L662.83 590.15L662.58 591.28L661.68 595.56L661.38 597.59L660.86 601.67L660.69 603.98L660.53 606.37L660.47 607.69L660.34 610.44L660.28 612L659.75 626.5L662.62 623.91L665.21 621.75L667.44 620.02L668.74 619.04L671.46 617.04L672.94 615.98L675.95 613.84L677.51 612.76L680.64 610.61L682.19 609.58L685.25 607.55L686.68 606.62L689.48 604.85L690.71 604.1L693.06 602.7L694 602.19L697.91 600.19L700.91 598.76L702.56 598.02L709.51 595.01L713.2 593.54L720.63 590.66L724.11 589.44L727.53 588.27L729.11 587.76L732.16 586.82L733.5 586.45L741.5 584.27L741.37 579.26L740.9 574.7L740.23 571.7L739.74 570.24L738.65 567.35L737.95 565.96L736.46 563.23L735.58 561.94L733.73 559.41L732.68 558.24L730.51 555.97L729.31 554.94L726.83 552.97L725.5 552.12L722.76 550.5L721.31 549.84L717.59 547.95L715.71 546.76L715.08 546.21L714.01 545.14L713.78 544.66L713.51 543.73L713.67 543.32L714.19 542.55L714.74 542.23L716.04 541.64L716.98 541.42L719.06 541.02L720.38 540.91L723.23 540.73L724.93 540.72L729.62 540.92L732.66 541.24L734.14 541.51L737.07 542.1L738.5 542.49L741.32 543.35L742.69 543.87L745.4 544.99L746.71 545.65L749.31 547.03L750.57 547.82L753.05 549.47L754.25 550.39L756.62 552.29L757.76 553.34L761.42 557.21L763.56 560.01L764.5 561.58L766.32 564.84L767.15 566.69L768.74 570.56L769.49 572.78L770.23 574.94L770.65 576.11L770.84 576.58L771.2 577.44L771.37 577.77L771.72 578.37L771.9 578.58L772.66 579.25L773.17 579.37L774.31 579.5H775.13L776.97 579.42L777.74 579.24L777.95 579.04L778.27 578.55L778.32 578.14L778.34 577.2L778.29 576.5L777.84 574.3L777.24 572.47L776.81 571.43L775.87 569.26L775.3 568.09L774.11 565.7L773.44 564.48L770.59 559.53L769.06 557.25L767.52 555.02L766.75 554.02L765.25 552.11L764.53 551.32L759.48 546.52L755.77 543.65L753.76 542.39L749.67 539.98L747.51 538.97L743.13 537.07L740.87 536.32L736.31 534.95L733.99 534.48L729.34 533.68L727.02 533.51L722.38 533.31M361.1 599.29L362.14 599.64L362.87 599.95L365.09 601.4L366.17 602.66L366.47 603.37L366.91 604.8L366.85 605.49L366.55 606.84L366.08 607.4L365.16 608.33L364.61 608.64L363.45 609.16L362.82 609.26L361.52 609.37L360.85 609.26L359.5 608.94L358.83 608.61L357.07 607.21L356.38 606.03L356.29 605.35L356.28 603.96L356.53 603.22L357.21 601.73L357.81 600.99L358.93 599.74L359.56 599.27L359.9 599.2L360.62 599.17M499 581L497.12 581.1L496.12 581.29L495.73 581.44L495 581.79L494.73 582.04L494.22 582.58L494.04 582.93L493.19 585.17L493.01 586.57L493.11 587.21L493.44 588.45L493.79 588.99L494.62 590.02L495.22 590.44L496.68 591.35L497.36 591.6L498.7 591.94L499.33 591.91L500.58 591.7L501.19 591.38L502.4 590.6L503 590L504.22 588.46L504.76 587.41L504.89 586.9L505.07 585.87L505.04 585.38L504.88 584.43L504.69 583.99L504.22 583.15L503.88 582.79L503.13 582.1L502.64 581.84L501.62 581.37L501.01 581.22L499.73 581M362.02 576.99L362.89 577.12L363.28 577.29L364.05 577.67L364.38 577.96L365 578.59L365.24 578.99L365.67 579.84L365.8 580.34L366 581.4V582L365.65 584.19L365.13 585.47L364.8 585.8L363.81 586.55L363.2 586.74L361.94 586.99L361.27 586.93L359.94 586.69L359.32 586.4L358.13 585.69L357.65 585.17L356.46 583.44L356.07 582.33L356.08 581.79L356.25 580.73L356.54 580.21L357.26 579.17L357.83 578.65L359.23 577.65L360.18 577.22L360.65 577.11L361.58 576.96M667.38 536L666.67 536.21L665.8 536.54L665.21 536.77L663.94 537.3L663.21 537.61L661.68 538.27L660.88 538.64L655 541.27L655.07 556.89L655.15 572.5L658.08 566.13L659.35 563.22L660.21 561.07L660.62 559.98L661.42 557.82L661.76 556.82L662.4 554.91L662.62 554.13L664.31 549.24L664.95 547.7L665.25 547.04L665.85 545.81L666.11 545.38L667.25 542.68L667.79 540.58L667.92 539.59L668.09 537.71L668.01 537.05L667.89 536.47L667.79 536.28L667.55 536M360.91 558.2L361.74 558.47L362.3 558.73L364.38 560.18L365.28 561.39L365.48 562.05L365.69 563.42L365.52 564.1L364.99 565.45L364.44 566.07L363.44 567.1L362.98 567.4L362.09 567.87L361.63 567.9L360.68 567.82L360.12 567.57L358.95 566.95L358.22 566.44L356.68 565.04L356.14 564.11L356.11 563.6L356.22 562.54L356.52 561.93L357.27 560.66L357.88 559.9L358.95 558.72L359.57 558.26L359.88 558.17L360.52 558.1M703.67 548.23L704.42 548.41L704.77 548.7L705.49 549.41L705.98 549.98L707.2 551.98L707.3 552.63L707.24 552.97L707.05 553.69L706.84 554.08L706.33 554.91L705.95 555.39L705.09 556.4L704.51 556.99L703.27 558.23L702.5 558.96L700.84 560.5L699.85 561.4L698.4 562.69L697.74 563.24L696.47 564.27L695.89 564.68L694.78 565.46L694.27 565.76L693.28 566.29L692.82 566.47L691.09 566.97L690.32 566.89L688.81 566.53L688.07 566.06L687.38 565.44L687.14 564.92L687.13 564.54L687.18 563.71L687.31 563.12L687.64 561.81L687.91 560.91L689.51 557.19L690.98 555.02L691.92 554.08L693.93 552.29L695.16 551.53L697.75 550.11L699.26 549.54L700.84 548.94L701.69 548.63L702.04 548.52L703.25 548.2M240.44 553.11L241.69 553.37L242.37 553.74L243.78 554.63L244.57 555.31L246.22 557.19L246.72 558.45L246.67 559.15L246.36 560.61L245.9 561.47L244.77 563.3L243.89 564.42L242.7 565.81L242.17 566.22L241.15 566.84L240.64 566.86L239.61 566.71L239.05 566.35L237.87 565.43L237.17 564.69L235.64 562.24L235.1 560.39L235.07 559.45L235.16 557.6L235.46 556.77L236.21 555.22L236.83 554.65L238.64 553.42L239.83 553.06M396.97 491.67L395.58 491.92L394.59 492.18L392.42 492.8L390.98 493.25L383.5 495.6L383.83 499.76L383.88 503.27L383.81 504.34L383.75 504.79L383.62 505.61L383.54 505.88L382.63 506.99L381.49 507.82L380.71 508.27L379 509.17L377.99 509.63L375.86 510.55L374.7 510.99L369.82 512.71L367.35 513.36L364.91 513.97L363.75 514.19L361.5 514.58L360.51 514.67L357.29 514.88L355.7 514.85L355.08 514.73L353.92 514.43L353.39 514.15L352.34 513.51L351.75 513.04L349.81 510.93L349.36 510.19L349.22 509.85L349 509.19V508.93L348.76 507.7L348.39 507.17L348.15 507.07L347.63 506.98L347.35 507.12L346.8 507.52L346.55 507.91L345.7 508.51L344.57 509.1L343.78 509.47L342.09 510.23L341.1 510.64L339.03 511.49L337.92 511.91L334.63 513.21L332.56 514.08L331.65 514.49L329.94 515.26L329.3 515.58L328.18 516.16L327.91 516.35L326.85 517.17L326.5 517.63L326.52 517.89L326.67 518.45L326.94 518.86L327.61 519.78L328.14 520.45L330.73 522.74L333.24 524.26L334.88 525.02L338.42 526.54L340.58 527.3L345.14 528.81L347.8 529.56L353.37 531.07L356.52 531.81L363.08 533.3L366.73 534.03L374.26 535.5L378.39 536.23L386.89 537.67L391.5 538.38L405.3 540.32L409.61 540.86L411.44 541.06L413.2 541.26L413.97 541.33L415.42 541.47L416 541.51L420.29 541.88L423.77 542.19L425.67 542.38L429.55 542.75L431.48 542.95L435.28 543.34L437 543.53L439.83 543.82L441.94 544.03L443.08 544.14L447.84 544.58L450.38 544.81L455.51 545.24L458 545.44L462.87 545.82L465 545.96L471.33 546.41L475.35 546.69L477.12 546.82L478.84 546.94L479.61 546.99L481.09 547.1L481.72 547.15L482.91 547.23L483.38 547.27L484.22 547.33L484.5 547.35L487.83 547.56L489.84 547.61L494.07 547.69L496.48 547.68L501.48 547.64L504.23 547.57L509.88 547.4L512.9 547.27L519.07 546.99L522.31 546.81L528.87 546.43L532.25 546.19L546.02 545.16L553 544.5L562.38 543.61L568.09 543.06L570.7 542.81L575.75 542.32L578.06 542.09L582.52 541.65L584.56 541.44L588.52 541.03L590.33 540.83L593.84 540.44L595.46 540.25L598.61 539.88L600.07 539.69L602.92 539.32L604.26 539.13L609.41 538.37L611.82 537.96L616.59 537.1L619.02 536.61L623.98 535.57L626.73 534.96L629.53 534.33L631.04 533.99L634.13 533.28L635.8 532.89L643.15 531.16L647.46 530.11L649.34 529.63L652.91 528.7L654.46 528.26L657.38 527.42L658.62 527.03L660.96 526.25L661.93 525.88L663.75 525.16L664.49 524.81L665.87 524.1L666.41 523.76L667.41 523.06L667.79 522.7L669.05 521.37L669.61 520.54L669.76 520.15L669.95 519.37L669.89 519L669.68 518.25L669.42 517.88L668.79 517.13L668.31 516.75L667.24 515.97L666.53 515.55L664.99 514.71L664.05 514.25L662.03 513.32L660.83 512.81L657.26 511.33L655.18 510.52L654.27 510.19L652.54 509.61L651.81 509.4L650.42 509.03L649.85 508.93L648.77 508.79H648.34L647.56 508.86L647.26 508.97L646.74 509.25L646.56 509.46L646.28 509.94L646.21 510.26L646.36 511.24L646.85 511.9L647.33 512.26L648.44 513.01L649.26 513.45L651.09 514.37L652.31 514.91L654.86 516.11L656.4 516.88L657.03 517.23L658.2 517.88L658.6 518.14L659.25 518.59L659.33 518.72L659.18 518.99L658.81 519.24L658.52 519.39L657.84 519.72L657.4 519.91L656.46 520.31L655.9 520.53L653.42 521.47L651.92 522L648.76 523.08L647.03 523.64L639.8 525.9L636.32 526.87L632.91 527.79L631.38 528.17L628.49 528.85L627.34 529.07L625.38 529.42L624.27 529.59L623.79 529.65L622.03 529.77L621.24 529.67L619.68 529.37L618.77 529.03L617.83 528.66L617.28 528.43L616.14 527.92L615.46 527.61L612.8 526.48L610.81 525.69L609.78 525.31L607.73 524.58L606.76 524.26L604.9 523.67L604.13 523.45L601.54 522.74L599.64 522.22L598.67 521.95L596.74 521.42L595.85 521.18L594.14 520.71L593.44 520.52L590.84 519.7L588.7 518.94L587.52 518.5L582.58 516.57L580.38 515.61L572.38 512.09L561.94 515.46L557 517L553.89 517.91L552.37 518.32L546.4 519.8L543.26 520.41L540.07 521L538.37 521.27L534.89 521.8L533 522.05L529.09 522.55L526.94 522.8L522.48 523.29L520 523.55L506.06 524.48L496.63 524.64L491.9 524.5L482.45 524.06L477.77 523.62L468.45 522.61L463.89 521.9L454.87 520.35L450.52 519.37L441.95 517.3L437.89 516.07L429.93 513.5L426.24 512.03L419.05 508.99L415.81 507.3L413.37 505.87L411.64 504.71L410.74 504.05L407.13 501.25L405.47 499.76L403.84 498.27L403.11 497.55L401.71 496.12L401.13 495.46L400.06 494.18L399.68 493.63L399.03 492.58L398.89 492.18L398.33 491.68L397.58 491.59M594.88 456.21L594.27 456.61L593.9 456.93L592.29 458.53L591.45 459.63L589.84 462.15L588.91 464.11L588.47 465.36L587.59 468.06L587.13 469.81L586.67 471.63L586.43 472.66L585.93 474.8L585.66 476.01L584.97 479.12L584.56 480.99L584.37 481.83L583.64 484.95L583.3 486.19L582.61 488.47L582.23 489.36L581.43 490.99L580.95 491.62L579.91 492.78L579.25 493.26L577.82 494.14L576.92 494.55L574.96 495.34L573.73 495.77L571.11 496.65L569.49 497.2L564.42 498.86L561.28 499.84L559.78 500.28L553.98 501.89L551.1 502.55L545.28 503.78L542.05 504.32L538.75 504.86L536.96 505.12L533.27 505.65L531.25 505.92L518 507.68L517.99 504.09L517.76 498.64L517.4 495.37L517.14 494.03L516.57 491.54L516.22 490.69L515.86 489.9L515.67 489.62L515.28 489.15L515.08 489.04L514.52 488.88L513.95 488.79L513.57 488.76L511.85 488.67H510.7L508.23 488.71L506.79 488.78L503.8 488.94L502.19 489.07L491.47 489.5L484.7 489.27L481.29 488.87L477.85 488.42L476.08 488.13L472.5 487.48L470.63 487.07L466.82 486.21L464.8 485.7L460.67 484.62L458.47 483.99L450.55 481.63L445.63 480.03L443.32 479.22L438.81 477.57L436.68 476.72L432.51 475L430.53 474.09L426.64 472.26L424.78 471.29L421.11 469.32L419.33 468.27L412.37 463.9L408.97 461.4L406.23 459.47L404.87 458.61L404.42 458.39L403.65 458.08L403.48 458.13L403.26 458.37L403.36 458.69L403.54 459.34L403.72 460.03L403.85 460.5L404.11 461.5L404.27 462.1L404.6 463.36L404.79 464.08L405.59 467.16L406.05 468.92L407 472.57L407.49 474.5L408.61 478.76L409.25 481.13L409.54 482.12L410.09 483.98L410.34 484.74L410.84 486.17L411.09 486.76L412.06 488.8L412.62 489.55L413.82 490.94L414.61 491.66L419 494.99L422.52 497.13L424.54 498.15L428.77 500.16L431.12 501.11L435.98 502.96L438.62 503.82L444.03 505.5L446.92 506.26L452.81 507.73L455.91 508.38L462.2 509.62L465.47 510.14L472.09 511.13L475.5 511.51L484.77 512.38L489.54 512.57L499.16 512.79L504 512.67L513.7 512.27L518.5 511.85L528.04 510.88L532.67 510.18L541.8 508.67L546.12 507.72L554.59 505.7L558.5 504.51L562.34 503.29L564.16 502.64L567.74 501.32L569.41 500.62L572.69 499.18L574.21 498.43L577.16 496.9L578.5 496.09L581 494.47L582.45 493.38L583.08 492.79L584.3 491.56L584.85 490.85L585.9 489.36L586.39 488.48L587.35 486.61L587.81 485.49L588.75 483.11L589.22 481.7L590.19 478.7L590.71 476.93L591.79 473.19L592.39 471L593.75 466.07L594.57 463.1L594.91 461.88L595.54 459.63L595.76 458.87L595.95 458.19L596.02 457.96L596.14 457.57L596.16 457.5L596.11 456.67L595.78 456.18L595.5 456.06M632.75 473.1L631.13 473.35L630.45 473.62L629.2 474.26L628.76 474.75L628.15 475.93L627.72 477.17L627.51 477.98L627.08 479.71L626.88 480.72L626.48 482.8L626.29 483.93L625.6 488.64L625.37 491.01L625.16 493.36L625.1 494.48L625 496.65V497.63L625.08 500.13L625.31 501.21L625.61 501.57L626.36 502.21L627.02 502.49L627.74 502.76L628.19 502.91L629.16 503.22L629.75 503.4L631.15 503.83L631.73 504.01L632.79 504.32L633.21 504.44L634.63 504.8L635.05 504.82L635.75 504.76L635.99 504.58L636.43 504.12L636.72 503.75L637.67 502.06L638.51 500.27L638.99 499.14L640 496.73L640.53 495.4L641.59 492.67L642.11 491.27L643.14 488.49L643.6 487.18L644.47 484.63L644.81 483.54L645.43 481.52L645.61 480.79L645.76 480.12L645.8 479.88L645.85 479.46L645.83 479.35L644.95 477.52L643.92 476.42L643.23 475.93L641.76 475L640.91 474.62L639.15 473.92L638.22 473.67L636.35 473.24L635.42 473.14L633.59 473.03M359.98 473.45L357.08 474.12L355.8 474.69L354.58 475.29L354.05 475.64L353.06 476.38L352.69 476.79L351.92 478.06L351.82 478.58L351.83 478.9L351.87 479.6L351.95 480.05L352.16 481.01L352.33 481.61L352.7 482.91L352.96 483.72L353.53 485.44L353.89 486.48L354.66 488.7L355.13 490.03L356.73 494.58L357.7 497.34L358.1 498.48L358.83 500.6L359.08 501.33L359.31 501.99L359.38 502.23L359.51 502.62L359.54 502.7L359.77 503.07L360.04 503.15L360.72 503.23L361.25 503.16L362.44 502.94L363.26 502.72L365.05 502.2L366.2 501.82L368.7 500.96L370.22 500.41L370.86 500.17L372.03 499.7L372.43 499.52L373.1 499.2L373.2 499.12L373.36 498.68L373.39 498.15L373.37 497.79L373.23 496.1L373.05 494.96L372.63 492.52L372.35 491.13L371.74 488.26L371.38 486.79L370.66 483.83L370.28 482.43L369.52 479.71L369.15 478.56L368.43 476.41L368.11 475.66L367.8 474.98L367.67 474.74L367.4 474.33L367.29 474.25L365.92 473.58L364.8 473.3L364.16 473.24L361.43 473.2M599.61 491.26L599.3 491.39L599.21 491.52L599 492.19V492.76L599.33 494.35L599.95 495.37L600.53 495.92L601.9 497.06L602.95 497.76L604.05 498.48L604.71 498.89L606.1 499.73L606.9 500.2L608.27 501L608.86 501.32L609.95 501.9L610.41 502.12L611.27 502.49L611.62 502.61L612.27 502.77L612.54 502.78L613.44 502.6L613.73 502.2L614.24 501.19L614.44 500.38L614.81 498.49L614.69 497.62L614.31 497.24L613.87 496.87L613.54 496.67L612.82 496.27L612.33 496.04L611.27 495.55L610.6 495.26L609.16 494.65L608.27 494.28L605.35 493.05L603.75 492.4L603.11 492.16L601.93 491.71L601.47 491.57L600.64 491.32L600.33 491.27L599.79 491.22M584.46 399L583.54 399.21L583.13 399.54L583.02 399.79L582.88 400.34L582.91 400.69L583.02 401.42L583.16 401.85L583.99 403.69L584.74 404.75L586.44 406.93L587.58 408.04L591.48 412.32L593.42 415.05L594.09 416.41L595.24 419.16L595.55 420.61L596 423.58V425.22L595.85 428.18L595.55 429.87L595.26 430.7L594.55 432.4L594 433.39L592.75 435.5L591.86 436.85L588.43 441.4L585.77 444.35L584.26 445.77L581.12 448.58L579.4 449.92L575.84 452.58L573.92 453.84L569.99 456.33L567.9 457.51L563.64 459.81L561.4 460.89L556.85 462.99L554.49 463.96L549.7 465.85L547.23 466.71L542.24 468.37L539.69 469.11L534.55 470.52L531.94 471.13L526.69 472.28L524.05 472.75L518.74 473.62L516.08 473.95L510.75 474.53L508.1 474.71L502.8 474.98L500.18 474.99L494.95 474.94L492.38 474.79L487.27 474.4L484.78 474.07L475.1 472.47L468.59 471.08L465.36 470.23L458.91 468.45L455.75 467.43L449.48 465.31L446.45 464.14L440.47 461.72L437.64 460.42L432.08 457.76L429.5 456.35L424.48 453.49L422.22 452L417.86 448.98L415.97 447.43L410.42 442.34L407.42 438.97L406.28 437.3L404.22 433.98L403.54 432.34L402.42 429.07L402.21 427.45L402.02 424.23L402.28 422.64L403.04 419.48L403.77 417.92L405.46 414.81L406.66 413.28L409.29 410.23L410.96 408.73L412.5 407.32L413.34 406.53L413.67 406.19L414.79 404.97L415.06 404.48L415.44 403.56L415.42 403.1L415.25 402.15L415.02 401.56L414.4 400.12L414.02 399.59L413.77 399.51L413.23 399.48L412.83 399.63L411.92 400.04L411.26 400.39L409.74 401.36L408.6 402.21L408 402.73L405.52 404.99L404.29 406.3L401.87 408.99L400.86 410.31L399.89 411.61L399.49 412.23L398.75 413.42L398.48 413.95L397.76 415.79L397.3 417.36L397.1 418.24L396.37 421.97L396.23 423.7L396.15 427.84L396.38 430.44L396.65 431.68L397.29 434.13L397.79 435.32L398.89 437.69L399.63 438.86L401.23 441.22L402.24 442.41L404.39 444.82L405.69 446.07L408.42 448.61L410.03 449.94L413.4 452.67L415.33 454.13L422.32 458.97L427.27 461.99L429.87 463.39L435.16 466.12L437.92 467.36L443.52 469.79L446.43 470.88L452.31 472.99L455.34 473.92L461.47 475.69L464.61 476.45L470.94 477.89L474.18 478.47L480.69 479.55L484 479.96L487.44 480.31L489.35 480.43L493.28 480.63L495.38 480.66L504.1 480.67L508.62 480.45L517.69 479.88L521.95 479.4L526.14 478.89L528.09 478.59L531.88 477.96L533.58 477.6L538.49 476.45L541.9 475.53L543.64 475.01L550.67 472.79L554.09 471.53L560.8 468.93L563.76 467.59L566.65 466.24L567.95 465.58L570.44 464.25L571.5 463.61L578.58 458.97L583.15 455.63L585.23 453.94L589.21 450.59L590.84 449.02L592.4 447.47L593.07 446.74L594.32 445.33L594.82 444.68L596.77 442.03L597.9 440.4L598.39 439.64L600.12 436.73L600.72 435.35L601.76 432.63L602.08 431.2L602.6 428.25L602.73 426.55L602.88 423.12L602.77 421.3L602.57 420.43L602.07 418.7L601.63 417.68L601.15 416.62L600.85 416.03L600.23 414.78L599.85 414.06L598.36 411.56L597.16 409.85L596.49 408.99L593.62 405.6L592.11 404.12L590.6 402.69L589.87 402.07L588.42 400.9L587.76 400.45L586.47 399.63L585.91 399.38L584.87 399M425.33 261.34L425.27 261.78L425.24 262.44L425.23 262.95L425.2 264.09L425.19 264.82L425.17 266.4V267.35L425.16 269.35L425.15 270.5V272.89V274.23V276.99V278.5L425.16 281.61L425.17 283.28L425.18 286.71L425.19 288.53L425.21 292.25L425.23 294.21L425.28 302.32L425.32 306.71L425.4 315.71L425.45 320.48L425.56 330.18L425.62 335.22L426.5 408.5L429.76 415.39L433.52 422.54L436.26 427.06L437.76 429.19L440.83 433.37L442.49 435.33L445.88 439.17L447.7 440.96L451.4 444.45L453.38 446.06L457.4 449.2L459.52 450.64L463.85 453.43L466.13 454.68L470.76 457.11L473.18 458.19L475.87 459.35L477.49 460.02L478.23 460.3L481.06 461.29L482.41 461.64L485.13 462.25L486.66 462.46L488.23 462.66L489.1 462.75L490.9 462.92L491.91 463L495.06 463.23L496.48 463.3L499.25 463.41L500.53 463.42L505.41 463.32L507.68 463.05L512.17 462.36L514.56 461.76L516.98 461.11L518.28 460.72L520.94 459.89L522.39 459.4L530.58 456.18L535.5 453.73L537.78 452.32L542.23 449.34L544.35 447.6L548.56 443.93L550.66 441.79L555.31 436.73L558.11 433.35L559.37 431.66L561.78 428.26L562.84 426.54L564.88 423.1L565.76 421.35L567.42 417.83L568.12 416.04L569.44 412.44L569.96 410.59L570.93 406.87L571.29 404.96L571.92 401.1L572.11 399.12L572.3 396.41L572.41 393.93L572.46 392.39L572.55 389.13L572.59 387.25L572.67 383.34L572.7 381.18L572.75 376.75L572.77 374.39L572.81 369.57V367.06L572.82 356.79L572.78 351.57L572.5 313.64L567 312.17L566.99 350.84L566.91 366.5L566.86 371.47L566.83 373.82L566.75 378.43L566.71 380.56L566.62 384.67L566.57 386.5L566.46 390L566.41 391.47L566.29 394.23L566.23 395.28L566.11 397.15L566.04 397.72L564.5 405.6L562.85 410.91L561.75 413.54L559.38 418.78L557.95 421.32L554.95 426.35L553.25 428.74L549.72 433.42L547.79 435.59L543.83 439.79L541.72 441.66L537.42 445.24L535.18 446.75L530.65 449.57L528.33 450.65L523.58 452.7L520.51 453.85L519.01 454.33L516.01 455.21L514.53 455.55L511.56 456.16L510.06 456.37L507.06 456.72L505.53 456.8L502.44 456.9L500.84 456.86L497.61 456.72L495.92 456.56L492.5 456.17L490.69 455.9L485.61 454.77L482.03 453.67L480.2 452.96L476.5 451.47L474.67 450.6L471.01 448.79L469.25 447.8L465.79 445.78L464.18 444.71L461.07 442.55L459.69 441.44L457.06 439.23L455.99 438.13L454.01 435.96L453.32 434.91L451.89 432.65L451.38 431.63L451.32 431.25L451.35 430.54L451.55 430.2L452.06 429.48L452.49 429.01L453.64 428.02L454.02 427.91L454.24 427.94L454.7 428.05L454.99 428.21L455.61 428.58L456 428.88L456.84 429.55L457.37 430.01L458.49 431.02L459.19 431.66L460.67 433.03L461.56 433.86L464.97 436.82L467.54 438.85L468.86 439.82L471.51 441.72L472.76 442.53L475.17 444.05L476.18 444.59L478.55 445.84L479.9 446.51L480.49 446.79L482.71 447.7L483.8 447.95L486.05 448.34L487.51 448.42L489.04 448.47L489.94 448.49L491.86 448.5H493L495.8 448.48L497.43 448.44L498.14 448.41L500.74 448.22L501.82 448.03L503.88 447.58L504.89 447.23L506.94 446.42L508.17 445.84L516.91 440.89L522.49 436.88L525.1 434.56L530.19 429.72L532.51 427.04L536.97 421.51L538.91 418.54L540.8 415.61L541.82 413.9L542.23 413.07L542.98 411.38L543.28 410.44L543.83 408.45L544.05 407.23L544.46 404.62L544.63 402.96L544.79 401.25L544.86 400.28L545.01 398.28L545.09 397.16L545.23 394.83L545.3 393.53L545.45 390.83L545.52 389.33L545.68 386.23L545.76 384.51L545.93 380.96L546.02 379L546.51 369.19L546.87 362.39L547.05 359.13L547.24 355.9L547.33 354.37L547.5 351.36L547.59 349.98L547.75 347.31L547.83 346.13L547.98 343.88L548.04 342.94L548.41 336.95L548.63 332.73L548.72 330.66L548.88 326.61L548.92 324.82L548.97 323.08L548.98 322.3L549 320.8V310.96L544.48 308.09L539.92 305.77L536.87 304.78L535.33 304.57L532.23 304.33L530.67 304.49L527.52 304.99L525.92 305.53L523.41 306.28L522.13 306.57L521.65 306.6H520.76L520.41 306.49L519.75 306.21L519.46 305.97L518.32 304.6L518.03 303.68L518.12 303.21L518.46 302.26L518.86 301.79L519.83 300.85L520.55 300.37L522.09 299.12L522.42 298.42L522.2 298.1L521.91 297.78L521.66 297.62L521.1 297.3L520.71 297.13L519.87 296.77L519.33 296.58L518.19 296.19L517.5 295.97L516.34 295.57L515.25 295.16L514.57 294.89L513.11 294.33L512.27 293.99L510.51 293.29L509.53 292.89L505.41 291.2L503.11 290.25L498.41 288.28L496 287.26L485.64 282.97L478.16 279.96L474.29 278.45L466.5 275.43L462.66 273.97L455.04 271.11L451.46 269.79L447.92 268.5L446.24 267.9L442.95 266.72L441.41 266.18L438.41 265.13L437.04 264.67L434.4 263.77L433.23 263.39L431 262.67L430.06 262.39L428.31 261.87L427.63 261.69L426.41 261.39L426.02 261.33L425.4 261.27M534.6 401.56L534.89 404.68L534.45 406.34L533.9 406.97L532.58 408.1L531.58 408.49L529.33 409.16L527.84 409.34L526.98 409.42L526.32 409.46L524.86 409.53L523.93 409.56L521.95 409.62L520.79 409.64L518.37 409.69L517.03 409.71L514.25 409.74L512.76 409.76L509.71 409.78L508.11 409.79L501.54 409.82L498.17 409.81L491.41 409.8L488.18 409.77L484.99 409.74L483.48 409.73L480.51 409.69L479.14 409.67L476.47 409.62L475.28 409.59L473 409.53L472.03 409.5L470.21 409.43L469.5 409.4L468.23 409.32L467.83 409.28L464.96 408.66L463.59 407.98L463.14 407.47L462.4 406.33L462.25 405.56L462.08 403.88L462.18 402.82L462.5 399.5L498.23 399.24L533.96 398.97M504.7 324.14L505.23 324.19L507.41 324.58L507.94 324.91L508.17 325.2L508.63 325.89L508.85 326.41L509.29 327.59L509.53 328.42L510.02 330.25L510.3 331.45L510.91 334.08L511.27 335.74L511.65 337.46L511.86 338.42L512.29 340.41L512.53 341.5L513.73 346.85L514.63 350.67L515.08 352.56L515.99 356.27L516.42 357.93L517.23 361.09L517.57 362.29L518.51 365.85L519.07 368.08L519.29 369.04L519.68 370.84L519.81 371.51L520 372.66V372.91L519.33 375.32L518.27 376.94L517.49 377.7L515.78 379.18L514.74 379.81L512.54 380.99L511.32 381.41L509.03 382.1L507.85 382.33L505.45 382.73L504.23 382.82L501.77 382.93L500.53 382.88L498.05 382.71L496.82 382.52L494.36 382.07L493.15 381.75L490.76 381.03L489.6 380.57L487.31 379.59L486.22 379.01L484.08 377.77L483.09 377.06L481.65 375.85L480.91 375L480.64 374.56L480.2 373.67L480.08 373.2L479.92 372.24L479.95 371.74L480.09 370.72L480.27 370.18L480.69 369.09L481.02 368.51L481.74 367.34L482.21 366.72L483.22 365.47L483.84 364.8L485.35 363.29L486.24 362.51L486.63 362.23L487.38 361.76L487.69 361.64L488.3 361.47L488.55 361.5L489.01 361.64L489.19 361.82L489.53 362.27L489.65 362.6L489.85 363.36L489.91 363.85L490 364.91V369H503.6L502.89 362.25L502.78 360.96L502.7 359.88L502.67 359.24L502.52 356.43L502.44 354.74L502.3 351.2L502.24 349.27L502.11 345.34L502.06 343.34L501.96 339.35L501.92 337.45L501.86 333.75L501.84 332.12L501.82 329.05L501.83 327.86L501.85 326.75L501.86 326.3L501.89 325.47L501.91 325.19L502.15 324.64L502.52 324.37L502.79 324.28L503.42 324.15L503.82 324.13M412.25 333.62L409.44 334.55L408.22 335.41L407.85 336.1L407.53 336.84L407.42 337.31L407.22 338.31L407.16 338.92L407.06 340.22L407.03 341.01L407 342.68V343.67L407.02 345.88L407.05 347.14L407.08 347.67L407.24 349.56L407.42 350.25L407.83 351.49L408.16 352.01L408.91 353L409.45 353.55L410.6 354.66L411.08 355.07L411.99 355.77L412.36 355.96L413.05 356.21L413.33 356.16L413.84 355.92L414.04 355.6L414.39 354.82L414.52 354.22L414.74 352.86L414.81 351.95L414.93 349.96L414.96 348.72L415 346.07V332.96M585.12 333L584.81 344.5L584.75 346.99L584.72 348.03L584.69 349.97V350.75L584.7 352.21L584.72 352.78L584.78 353.82L584.83 354.21L584.95 354.91L585.03 355.15L585.22 355.56L585.34 355.69L585.9 356H586.32L588.17 355.7L589.53 355.25L590.07 354.96L591.09 354.09L591.54 353.16L591.68 352.37L591.8 351.5L591.84 350.96L591.92 349.79L591.94 349.07L591.98 347.53L591.99 346.6L592 344.63V333M535.4 317.93L536.83 318.21L537.51 318.47L538.85 319.08L539.46 319.5L540.64 320.43L541.15 321.01L542.11 322.25L542.49 322.98L543.49 325.39L543.9 326.94L543.98 327.7L544.05 329.18L543.96 329.88L543.7 331.27L543.44 331.92L542.86 333.18L542.45 333.77L541.55 334.9L540.98 335.41L539.77 336.38L539.06 336.81L537.55 337.61L536.68 337.93L534.89 338.58L534.18 338.74L532.86 338.94L532.25 338.86L531.03 338.56L530.34 338.21L528.87 337.36L527.91 336.72L525.92 335.1L524.86 333.92L524.46 333.3L523.75 332.03L523.53 331.36L523.18 330.01L523.14 329.32L523.15 327.92L523.29 327.21L523.66 325.79L523.97 325.08L524.7 323.66L525.2 322.95L526.29 321.55L526.97 320.87L528.9 319.34L530.28 318.59L531 318.35L532.46 317.95L533.19 317.88L534.67 317.83M464.28 317.18L465.26 317.31L468.51 318.24L470.44 319.3L471.25 320.03L472.77 321.6L473.34 322.54L474.35 324.53L474.63 325.65L474.65 328.39L474.14 330.44L473.68 331.45L472.64 333.44L471.98 334.29L470.57 335.86L469.79 336.35L467.04 337.84L465.69 338.19L463.04 338.63L461.78 338.47L459.32 337.89L458.21 337.22L457.11 336.48L456.6 336.02L455.6 335.03L455.14 334.45L453.3 331.11L452.84 328.86L452.99 327.72L453.56 325.43L454.23 324.27L455.83 321.94L457.01 320.75L459.32 318.57L460.51 317.67L461.06 317.43L462.17 317.11L462.84 317.1M465.67 291.37L469.69 292.27L472.21 293.17L473.37 293.74L475.61 294.95L476.58 295.64L478.43 297.08L479.19 297.84L480.57 299.4L481.05 300.2L481.86 301.79L482.03 302.57L482.19 304.1L481.99 304.81L481.4 306.2L480.8 306.8L479.46 307.73L478.5 307.96L477.92 307.86L476.69 307.54L475.92 307.16L474.27 306.25L473.23 305.57L470.29 303.94L468.33 303.13L467.34 302.87L465.36 302.43L464.37 302.35L462.39 302.28L461.41 302.38L459.43 302.67L458.45 302.96L456.48 303.62L455.51 304.09L453.57 305.12L452.6 305.77L450.68 307.17L449.74 308L448.51 309.06L447.97 309.5L446.95 310.31L446.49 310.62L445.63 311.18L445.24 311.37L444.5 311.69L444.17 311.76L442.9 311.83L442.32 311.54L441.16 310.73L440.52 310.03L439.63 308.89L439.31 308.22L439.27 307.86L439.28 307.12L439.4 306.66L439.73 305.66L440 304.99L441.67 302.07L443.18 300.2L444.1 299.33L446.03 297.62L447.12 296.85L449.38 295.36L450.59 294.72L453.06 293.51L454.33 293.02L456.91 292.14L458.2 291.84L460.78 291.35L462.03 291.26L464.51 291.21M577.1 259L576.13 259.37L575.23 259.91L574.8 260.25L574.01 261.27L573.69 262.32L573.64 263.16L573.6 264.07V264.64L573.62 265.84L573.66 266.57L573.74 268.12L573.8 269.04L573.93 270.99L574.02 272.13L575.1 281.28L575.59 284.14L575.84 285.35L576.35 287.6L576.59 288.37L577.24 290.58L577.58 291.92L577.7 292.47L577.89 293.48L577.93 293.82L577.95 294.39L577.88 294.45L577.47 294.52L576.94 294.5L576.56 294.45L575.74 294.34L575.23 294.25L574.16 294.07L573.54 293.95L570.87 293.41L569.33 293.06L566.12 292.33L564.44 291.93L561.04 291.09L559.38 290.66L556.13 289.8L554.68 289.39L551.92 288.59L550.85 288.23L549.83 287.89L549.42 287.74L548.66 287.45L548.4 287.33L546.35 286.24L545.42 285.56L545.13 285.16L544.63 284.33L544.49 283.78L544.26 282.57L544.19 281.76L544.59 277.71L545.56 274.68L546.4 273.01L547.34 271.14L547.81 270.15L547.94 269.77L548.13 269.09L548.09 268.86L547.91 268.46L547.66 268.36L547.05 268.21L546.55 268.22L545.43 268.3L544.65 268.41L542.94 268.67L541.83 268.86L539.46 269.28L538 269.54L533.12 270.23L529.72 270.52L527.79 270.59L525.82 270.64L524.74 270.65H522.52L521.3 270.63L518.79 270.58L517.4 270.54L514.52 270.44L512.92 270.38L509.07 270.23L506.73 270.16L505.68 270.13L503.66 270.09L502.76 270.08L501.04 270.07L500.29 270.08L498.86 270.11L498.26 270.13L497.12 270.2L496.66 270.25L495.81 270.37L495.49 270.44L494.93 270.6L494.74 270.7L494.45 270.91L494.4 271.04L494.37 271.3L494.46 271.45L495.05 272.13L495.73 272.55L497.33 273.48L498.5 274.04L501.06 275.24L502.68 275.95L507.44 278.03L511.17 279.66L513.15 280.53L517.15 282.28L519.08 283.13L522.87 284.8L524.53 285.52L529.26 287.58L532.09 288.76L533.42 289.29L538.55 291.23L541.27 292.1L544.06 292.97L545.6 293.41L548.8 294.29L550.63 294.77L554.44 295.75L556.65 296.3L561.3 297.45L564 298.1L568.13 299.09L569.96 299.5L573.47 300.27L574.99 300.57L577.9 301.13L579.14 301.33L581.48 301.67L582.44 301.77L584.23 301.91L584.93 301.9L586.21 301.83L586.66 301.72L587.45 301.45L587.67 301.24L588 300.77V300.47L587.81 299.49L587.5 298.55L587.28 297.97L586.23 295.45L585.56 294.12L583.89 290L583.35 288.32L583.09 287.37L582.56 285.4L582.3 284.29L581.77 281.98L581.5 280.68L580.96 278.01L580.69 276.52L580.13 273.43L579.84 271.72L579.26 268.19L578.96 266.25L578.46 263.43L578.11 261.79L577.94 261.13L577.61 259.94L577.47 259.57L577.2 259M628.86 221.94L624.76 222.12L622.51 222.38L617.9 223.01L615.41 223.5L610.3 224.59L607.56 225.3L601.97 226.84L599 227.78L592 230.06L586.92 231.77L584.38 232.64L579.36 234.38L577.08 235.2L574.85 236L573.83 236.37L571.86 237.09L571 237.42L560.87 240.93L553.87 243.05L550.37 243.97L543.41 245.72L540.07 246.41L533.52 247.67L530.52 248.09L525.54 248.67L521.82 249L519.81 249.13L515.7 249.37L513.55 249.46L509.19 249.62L506.97 249.67L498.02 249.77L493.74 249.69L489.51 249.58L487.51 249.49L483.61 249.28L481.83 249.14L473.85 248.4L468.88 247.82L466.47 247.45L461.67 246.67L459.24 246.18L454.34 245.12L451.74 244.46L446.42 243.06L443.5 242.2L440.54 241.32L438.97 240.83L435.79 239.83L434.1 239.28L430.65 238.15L428.82 237.54L425.07 236.27L423.08 235.59L419 234.18L416.82 233.42L412.38 231.85L410 231.01L403.04 228.6L398.86 227.21L396.97 226.63L393.3 225.52L391.63 225.06L388.36 224.21L386.84 223.87L383.86 223.24L382.45 223L379.65 222.58L378.29 222.43L372.87 222.02L370 222.03L365.18 222.22L362.27 222.52L360.96 222.75L358.45 223.29L357.36 223.64L355.26 224.4L354.38 224.86L352.71 225.84L352.04 226.41L350.81 227.61L350.36 228.28L349.57 229.69L349.35 230.47L349.01 232.09L349.02 232.97L349.09 234.57L349.2 235.44L349.3 235.78L349.51 236.4L349.65 236.61L349.95 236.97L350.15 237.06L350.56 237.17L350.81 237.14L351.33 237L351.64 236.84L352.28 236.46L352.64 236.18L353.41 235.55L353.84 235.15L357.57 232.61L360.57 231.36L362.33 230.97L366.01 230.33L368.1 230.24L372.45 230.21L374.87 230.42L382.68 231.39L387.68 232.33L390.41 233.05L393.19 233.82L394.71 234.27L397.83 235.25L399.56 235.82L403.14 237.04L405.15 237.75L409.32 239.24L411.67 240.1L422.57 243.99L429.34 246.3L432.5 247.33L438.69 249.28L441.59 250.13L447.27 251.75L449.95 252.44L455.21 253.74L457.71 254.28L462.62 255.29L464.97 255.68L469.61 256.41L471.86 256.68L476.32 257.15L478.5 257.3L480.09 257.4L480.99 257.44L482.86 257.52L483.9 257.56L488.25 257.69L490.7 257.73L495.72 257.79L498.37 257.8L503.71 257.81L506.37 257.79L511.67 257.75L514.18 257.7L519.07 257.6L521.24 257.54L523.37 257.46L524.33 257.42L526.21 257.34L527.04 257.29L528.62 257.19L529.29 257.14L530.54 257.03L531.03 256.97L540.63 255.43L547.34 254L550.79 253.09L557.71 251.16L561.19 250.03L568.14 247.66L571.55 246.33L574.28 245.28L576.33 244.5L577.45 244.08L582.16 242.33L584.69 241.41L589.83 239.55L592.34 238.65L597.3 236.9L599.5 236.14L604.79 234.32L607.7 233.34L608.92 232.95L611.23 232.24L612.23 231.97L614.15 231.48L615.04 231.31L618.47 230.78L620.46 230.68L622.52 230.61L623.73 230.59L626.29 230.57L627.82 230.56L640.14 230.5L643.55 234.22L645.45 236.2L646.3 236.96L646.6 237.08L647.13 237.16L647.34 236.98L647.75 236.47L647.98 236.03L648.84 233.68L648.98 232.17L648.83 231.43L648.38 229.95L647.94 229.22L646.9 227.75L646.16 227L643.09 224.71L640.62 223.53L639.17 223.11L636.14 222.38L634.42 222.18L630.84 221.91M496.46 198.5H484.42L477.03 198.51H473.65L467.1 198.52L464.11 198.53L458.32 198.54L455.71 198.55L450.65 198.57L448.37 198.58L444 198.61L442.04 198.63L438.3 198.66L436.64 198.69L433.48 198.73L432.1 198.76L429.47 198.81L428.34 198.84L426.19 198.91L425.29 198.95L423.59 199.03L422.88 199.07L421.57 199.16L421.05 199.21L420.08 199.32L419.71 199.37L419.04 199.49L418.8 199.56L418.07 199.84L417.96 200L417.61 201.36L417.42 202.92L417.35 203.94L417.24 206.13L417.22 207.38L417.21 209.96L417.25 211.31L417.5 221.12L427.5 225.09L431.66 226.7L434.37 227.71L435.59 228.15L437.93 228.98L438.85 229.28L440.52 229.81L441 229.93L441.77 230.07L442.45 230.13L443.98 230.25L445.01 230.31L447.23 230.41L448.57 230.46L451.4 230.54L453.02 230.58L456.39 230.65L458.25 230.68L462.09 230.73L464.16 230.75L468.39 230.79L470.62 230.8L475.17 230.82H477.54H487.24L492.28 230.79L502.45 230.71L507.51 230.65L517.56 230.5L522.33 230.4L527.06 230.3L529.32 230.24L533.78 230.12L535.88 230.05L540.67 229.9L543.58 229.8L544.89 229.75L547.43 229.65L548.57 229.61L550.76 229.51L551.74 229.46L553.61 229.36L554.44 229.3L556.02 229.19L556.71 229.13L559.21 228.87L560.11 228.71L561.71 228.35L562.24 228.13L563.14 227.66L563.4 227.36L563.8 226.73L563.88 226.34L563.98 225.5V225L563.8 224.56L563.45 224.32L563.13 224.22L562.38 224.03L561.81 223.95L560.54 223.8L559.68 223.75L557.78 223.64L556.57 223.6L553.94 223.53L552.31 223.5L548.83 223.45L546.74 223.43L542.31 223.4L539.7 223.39L530.94 223.31L525.67 223.23L523.32 223.17L518.81 223.05L516.85 222.97L513.11 222.81L511.53 222.71L508.56 222.5L507.37 222.38L505.19 222.13L504.4 221.99L503 221.7L502.6 221.54L502 221.21V221.03L502.2 220.64L502.54 220.38L502.8 220.25L504.12 219.75L505.15 219.52L507.44 219.05L508.93 218.83L512.14 218.41L514.06 218.22L518.11 217.84L520.43 217.67L525.25 217.35L527.93 217.21L533.47 216.95L536.48 216.84L542.66 216.64L545.97 216.57L552.5 216.43L556.11 216.33L557.58 216.28L560.32 216.17L561.4 216.11L563.38 215.98L564.14 215.9L565.5 215.74L565.99 215.64L566.86 215.43L567.15 215.3L567.98 214.72L568.15 214.31L568.67 212.84L568.91 212.04L568.93 211.86L568.38 211.73L567.48 211.64L566.79 211.59L565.25 211.49L564.26 211.44L562.15 211.35L560.91 211.3L558.31 211.21L556.85 211.17L553.83 211.08L552.19 211.05L548.83 210.97L547.05 210.94L543.42 210.87L541.53 210.85L534.59 210.73L530.52 210.65L528.74 210.6L525.35 210.51L523.9 210.45L521.16 210.34L520.02 210.27L517.89 210.14L517.04 210.06L515.47 209.91L514.88 209.82L513.84 209.65L513.5 209.55L512.95 209.35L512.83 209.23L511.23 208.36L509.79 208H509.1L507.94 207.94L507.46 207.84L507.37 207.75L507.26 207.54L507.34 207.38L507.57 207.03L507.81 206.79L508.53 206.48L509.41 206.29L510.06 206.21L511.52 206.05L512.48 205.97L514.57 205.83L515.86 205.77L518.62 205.65L520.26 205.59L523.73 205.49L525.75 205.44L529.98 205.35L532.39 205.31L537.43 205.24L540.26 205.2L545.09 205.14L548.06 205.1L549.42 205.08L552.05 205.04L553.26 205.02L555.59 204.97L556.65 204.95L558.7 204.9L559.62 204.88L561.4 204.83L562.2 204.8L565.14 204.68L566.29 204.61L568.38 204.46L569.16 204.37L570.55 204.18L571.04 204.07L571.88 203.83L572.16 203.69L572.61 203.39L572.75 203.22L573.63 201.63L574 200.49V200.06L573.52 199.59L573.11 199.46L572.8 199.4L572.12 199.28L571.67 199.23L570.66 199.12L570.03 199.08L568.65 198.99L567.81 198.95L566.01 198.88L564.93 198.84L562.65 198.78L561.32 198.76L558.51 198.7L556.89 198.68L553.5 198.64L551.56 198.62L547.54 198.59L545.27 198.58L540.56 198.56L537.92 198.55L532.47 198.53L529.45 198.52L523.2 198.51H519.77L512.68 198.5H508.8H500.81M588.79 187.16L588.37 188.92L587.99 190.31L587.77 191.09L586.77 194.46L586.16 196.36L583.5 204.41L582.1 208.16L580.12 213.55L578.96 216.8L578.5 218.13L578.06 219.41L577.87 219.96L577.53 221L577.4 221.41L577.17 222.16L577.1 222.42L577 222.84V222.91L577.02 223.53L577.12 223.69L577.4 223.93L577.71 223.91L578.46 223.76L579.09 223.53L580.53 222.97L581.58 222.53L583.51 221.49L584.59 220.58L585.1 219.92L586.12 218.44L586.69 217.39L587.27 216.28L587.59 215.63L588.25 214.26L588.61 213.46L590.27 209.65L591.54 206.57L592.2 204.89L593.52 201.47L594.15 199.78L595.37 196.44L595.89 194.94L597.04 191.56L597.66 189.7L597.91 188.93L598.34 187.51L598.49 186.93L598.76 185.88L598.83 185.46L598.93 184.69V184.39L598.89 183.84L598.81 183.62L598.4 182.86L598.02 182.51L595.97 181.29L594.2 180.59L593.38 180.43L590.39 179.83M497.45 91.1999L491.71 91.2799L488.95 91.3999L483.53 91.6899L481 91.9199L468.85 93.2499L461.45 94.3199L458.1 94.9599L451.62 96.2899L448.72 97.0599L443.14 98.6699L440.68 99.5799L435.96 101.47L433.92 102.52L430.04 104.7L428.41 105.9L425.35 108.38L424.12 109.74L421.85 112.53L421 114.04L418.5 118.5L417.88 185H428.56L429.69 177.78L430.11 174.64L430.26 172.8L430.28 172.03V170.59L430.22 170.06L430.06 169.11L429.92 168.84L429.73 168.07L429.62 167.17L429.56 166.54L429.46 165.16L429.41 164.32L429.32 162.54L429.28 161.52L429.2 159.4L429.17 158.23L429.11 155.82L429.09 154.53L429.02 149.18V146.32L429.03 142.05L429.05 139.45L429.07 138.26L429.11 135.96L429.13 134.92L429.2 132.89L429.24 131.96L429.45 128.52L429.62 127.1L430.01 124.45L430.29 123.35L430.91 121.29L431.33 120.41L432.24 118.73L432.82 117.96L434.06 116.44L434.83 115.67L436.47 114.11L437.46 113.24L439.62 111.56L441.3 110.44L442.25 109.89L446.32 107.69L448.67 106.66L453.56 104.66L456.19 103.79L461.54 102.15L464.27 101.52L468.1 100.77L471.01 100.32L472.62 100.13L475.94 99.7499L477.73 99.5899L481.38 99.2799L483.31 99.1599L491.28 98.7199L495.49 98.6099L504.03 98.4399L508.32 98.4599L516.86 98.5699L520.94 98.7299L524.98 98.8999L526.91 99.0199L530.72 99.2599L532.52 99.3999L536.03 99.7099L537.65 99.8899L540.8 100.26L542.21 100.47L544.91 100.91L546.08 101.15L548.27 101.66L549.15 101.94L555.79 104.69L559.95 107.07L561.81 108.48L565.37 111.42L566.83 113.03L568.25 114.67L568.86 115.51L570.02 117.21L570.5 118.07L573.5 123.5L573.84 155.25L573.9 159.57L573.93 161.63L574 165.68L574.03 167.58L574.11 171.28L574.16 172.97L574.25 176.23L574.29 177.67L574.39 180.41L574.44 181.56L574.54 183.69L574.59 184.49L574.7 185.93L574.75 186.35L574.85 187H574.89L575.31 186.47L575.7 185.63L575.94 185.02L576.42 183.68L576.67 182.87L577.19 181.18L577.45 180.25L578.37 175.97L578.61 174.34L578.71 173.42L578.91 171.52L579 170.45L579.17 168.21L579.24 166.93L579.37 164.27L579.43 162.76L579.54 159.61L579.59 157.82L579.68 154.1L579.72 152L579.8 146.93L579.82 143.79V142.34L579.81 139.49L579.78 138.17L579.72 135.6L579.67 134.41L579.42 129.89L579.21 127.95L578.73 124.28L578.38 122.69L577.63 119.68L577.13 118.36L576.05 115.83L575.39 114.68L573.96 112.45L573.1 111.39L571.28 109.28L570.21 108.21L568.14 106.38L566.5 105.14L565.58 104.52L561.63 102.04L559.42 100.9L554.9 98.6899L552.61 97.7899L548.07 96.1599L546 95.6499L539.43 94.2999L534.56 93.5199L531.93 93.1799L526.55 92.5499L523.73 92.2899L518.01 91.8199L515.09 91.6599L503.24 91.1599L497.45 91.1999Z" fill="#A7C8DF"/>
</g>
<defs>
<clipPath id="clip0_68_163">
<rect width="636" height="739" fill="white" transform="translate(179 66)"/>
</clipPath>
</defs>
</svg>
