<svg width="636" height="739" viewBox="0 0 636 739" fill="none" xmlns="http://www.w3.org/2000/svg">
<g clip-path="url(#clip0_67_162)">
<path d="M324.57 13.1899L328.5 13.2799L334.22 13.4399L337.83 13.5599L339.53 13.6299L342.85 13.7699L344.4 13.8499L347.43 14.0199L348.83 14.1199L351.57 14.3099L352.82 14.4199L355.25 14.6299L356.35 14.7499L358.47 14.9899L359.41 15.1199L361.22 15.3799L362 15.5199L372.1 17.8199L378.33 19.7699L381.18 20.9399L386.72 23.4199L389.21 24.8499L394.02 27.8299L396.14 29.5099L400.2 32.9699L401.93 34.8799L405.2 38.8099L406.53 40.9399L408.98 45.2999L409.9 47.6399L411.51 52.4199L411.99 54.9599L412.19 56.4399L412.32 57.7899L412.38 58.6299L412.5 60.3999L412.55 61.4199L412.66 63.5299L412.7 64.6899L412.87 69.6099L412.92 72.3099L413 77.8399V80.6399L413.01 86.8899L413.03 90.3199L413.05 91.7199L413.09 94.2999L413.13 95.3099L413.21 97.1499L413.27 97.8399L413.4 99.0699L413.49 99.4999L413.68 100.23L413.8 100.46L414.05 100.82L414.21 100.9L414.55 101.01H414.75L416.16 101.22L417.31 101.55L417.95 101.79L420.7 102.94L422.12 103.7L424.95 105.31L426.13 106.14L427.25 106.98L427.71 107.37L428.55 108.16L428.83 108.51L429.89 110.18L430.42 111.4L430.59 112.09L430.86 113.52L430.9 114.34L430.92 116.04L430.83 117.03L430.58 119.08L430.36 120.26L429.84 122.73L429.47 124.15L428.68 127.1L428.17 128.79L427.09 132.29L426.44 134.28L424.7 139.72L423.71 142.93L423.33 144.23L422.97 145.47L422.83 145.99L422.56 146.96L422.47 147.34L422.3 148.01L422.27 148.22L422.22 148.55L422.25 148.58L422.89 148.56L423.78 148.4L424.39 148.26L425.73 147.93L426.52 147.71L428.17 147.25L429.05 146.98L434.38 145.55L437.87 144.8L439.57 144.52L442.96 144.02L444.6 143.87L447.86 143.62L449.44 143.59H452.56L454.06 143.68L457.02 143.92L458.43 144.12L461.2 144.59L462.52 144.91L465.09 145.6L466.3 146.03L468.65 146.94L469.74 147.47L471.86 148.59L472.82 149.23L474.68 150.55L475.5 151.29L477.09 152.81L477.77 153.64L479.05 155.35L479.57 156.27L480.54 158.16L480.9 159.18L481.54 161.25L481.72 162.34L482 164.58V165.76L481.67 168.84L481.13 170.92L480.71 171.96L479.77 174.05L479.16 175.07L477.85 177.12L477.07 178.11L475.42 180.08L474.48 181.02L472.53 182.87L471.45 183.74L469.22 185.43L468.01 186.21L465.53 187.72L464.21 188.39L459.67 190.39L456.06 191.75L454.05 192.41L449.91 193.74L447.73 194.37L443.29 195.6L441.03 196.16L436.53 197.24L434.33 197.71L429.99 198.58L427.96 198.92L424.02 199.53L422.29 199.72L418.98 200H417.65L415.46 200.08L414.12 200.2L413.56 200.29L412.54 200.49L412.18 200.6L411.59 200.85L411.51 200.99L411.34 202.05L411.41 203.2L411.54 203.96L411.84 205.6L412.06 206.57L412.56 208.59L412.87 209.71L414.28 214.46L415.18 217.03L417.07 222.21L418.12 224.7L419.62 228.48L420.51 230.89L420.86 231.96L421.5 233.99L421.69 234.76L422 236.14V236.5L421.76 238.76L421.36 240.23L421.06 240.94L420.38 242.33L419.95 242.99L419.03 244.27L418.49 244.86L417.35 246L416.71 246.5L415.38 247.45L414.66 247.85L413.19 248.59L412.4 248.87L410.8 249.36L409.97 249.5L408.13 249.91L407.22 250.23L406.9 250.43L406.36 250.84L406.21 251.1L406 251.63V251.96L406.21 252.83L406.59 253.29L406.91 253.47L407.66 253.81L408.2 253.94L409.38 254.19L410.16 254.3L413.98 255.23L416.15 256.27L417.11 257.03L418.95 258.75L419.81 259.91L421.49 262.44L422.32 264.05L423.87 267.28L424.5 269.11L424.67 270.11L424.9 272.22L424.91 273.64L424.9 275.14L424.87 276.02L424.81 277.89L424.77 279L424.48 283.76L424.2 286.32L424 287.38L423.56 289.36L423.26 290.23L422.61 291.9L422.19 292.71L419.67 296.13L417.42 298.24L416.16 299.11L413.56 300.7L412.28 301.21L411.01 301.66L410.4 301.79L409.21 302H408.66L407.13 302.12L406.51 302.47L406.34 302.93L406.19 303.45L406.14 303.8L406.06 304.58L406.04 305.09L406 306.19V306.88L405.99 308.35V309.25L405.83 314.96L405.72 316.54L405.66 317.15L405.53 318.22L405.46 318.5L405.45 319.63L405.8 320.32L406.22 320.68L407.22 321.43L408.02 321.87L409.82 322.83L411.09 323.43L414.14 325.11L416.22 326.46L417.26 327.23L421.42 330.57L423.37 332.48L427.13 336.42L428.7 338.45L430.2 340.49L430.84 341.49L432.05 343.49L432.52 344.45L433.89 347.57L434.57 349.61L434.8 350.68L435.16 352.86L435.22 354.08L435.25 356.63L435.13 358.12L434.8 361.25L434.5 363.11L434.18 365.03L433.98 366.08L433.56 368.23L433.31 369.4L432.79 371.82L432.49 373.14L431.87 375.84L431.53 377.31L430.8 380.34L430.4 381.98L429.58 385.35L429.13 387.17L426.75 396.88L426.03 399.85L425.71 401.22L425.08 403.87L424.8 405.06L424.27 407.34L424.05 408.32L423.64 410.15L423.48 410.87L423.21 412.17L423.13 412.6L423 413.32V413.42L423.63 414.58L424.63 415H425.38L426.58 415.12L427.57 415.3L428.11 415.44L430.36 416.09L431.35 416.5L434.04 417.56L434.73 417.81L434.98 417.88L435.39 418H435.47L435.67 417.68L435.8 417.18L435.84 416.82L436 415.08V413.97L436.22 411.23L436.57 409.44L436.84 408.58L437.45 406.86L437.84 406.04L438.69 404.44L439.19 403.69L440.24 402.23L440.84 401.57L442.08 400.28L442.77 399.72L444.18 398.65L444.94 398.2L446.49 397.37L447.32 397.06L449.18 396.54L450.6 396.28L451.38 396.2L454.66 396L456.38 396.08L459.83 396.35L461.41 396.66L462.96 396.99L463.66 397.19L465 397.63L465.57 397.89L468.39 399.52L470.14 400.87L470.95 401.65L472.5 403.3L473.19 404.2L474.5 406.06L475.05 407.04L476.08 409.04L476.48 410.07L477.18 412.13L477.4 413.17L477.73 415.23L477.75 416.23L477.68 418.21L477.48 419.15L477.04 420.75L476.64 421.99L476.4 422.65L475.34 425.29L474.81 426.35L473.53 429.13L473.27 429.81L473.21 430.04L473.14 430.4L473.18 430.43L473.47 430.57L473.87 430.74L474.17 430.87L475.59 431.46L476.61 431.88L478.83 432.78L480.15 433.31L482.92 434.42L484.42 435.01L489.8 437.28L492.71 438.67L493.92 439.34L496.18 440.69L497.14 441.39L498.97 442.83L499.8 443.63L504.27 447.91L503.8 458.46L503.66 462.55L503.63 464.95L503.64 465.9L503.68 467.63L503.72 468.17L503.77 468.64L503.81 468.78L503.87 469H503.91L504.5 468.76L505.19 468.38L505.65 468.11L507.76 466.81L509 465.99L511.38 464.57L513.4 463.48L514.53 462.92L519.3 460.64L521.5 459.76L524.1 458.73L525.6 458.17L526.29 457.95L528.91 457.19L530.34 456.98L531.82 456.79L532.66 456.73L534.43 456.62L535.47 456.59L537.69 456.54L539.01 456.53L541.82 456.52H543.5L548.88 456.59L552.13 456.72L553.61 456.84L556.5 457.11L557.84 457.3L560.47 457.73L561.73 458.02L566.63 459.35L569.11 460.34L571.6 461.4L572.91 462.02L575.57 463.34L577 464.1L582.86 467.54L586.47 470L588.14 471.34L591.39 474.12L592.92 475.65L595.9 478.82L597.31 480.58L600.09 484.23L601.42 486.26L604.06 490.48L605.36 492.83L607.92 497.7L609.21 500.41L611.78 506.01L613.08 509.12L615.18 514.15L616.34 516.98L616.82 518.18L617.7 520.44L618.05 521.4L618.69 523.22L618.94 524.01L619.73 526.88L619.93 528.15L620.21 530.68L620.27 532.16L620.32 534.03L620.33 535.07L620.32 535.5L620.21 537.04L620.04 537.59L619.62 538.58L619.26 538.99L618.41 539.8L617.79 540.27L616.12 541.26L614.79 541.78L613.97 541.97L612.2 542.33L611.1 542.46L608.75 542.69L607.29 542.78L599.5 543.23L599.76 615.86L599.82 630.48L599.86 639.79L599.89 644.17L599.95 652.71L599.98 656.62L600.01 660.46L600.02 662.28L600.06 665.86L600.07 667.53L600.1 670.8L600.12 672.32L600.15 675.26L600.17 676.6L600.21 679.2L600.22 680.36L600.26 682.57L600.27 683.53L600.31 685.35L600.32 686.1L600.36 687.49L600.38 688.02L600.41 688.95L600.43 689.25L600.46 689.71L600.47 689.75L601 690.27L601.66 690.55L602.12 690.66L603.11 690.86L603.72 690.92L605 691.02H605.72L609.71 691.47L612.49 692.16L613.79 692.64L616.32 693.69L617.35 694.29L619.22 695.55L619.76 696.2L620.07 696.83L620.26 697.49L620.34 697.95L620.5 698.94L620.57 699.57L620.71 700.91L620.77 701.72L620.89 703.44L620.94 704.44L621.03 706.54L621.07 707.75L621.15 710.26L621.18 711.67L621.23 714.61L621.26 716.25L621.32 721.94L621.34 725.08V726.37L621.32 728.78L621.29 729.74L621.22 731.52L621.17 732.22L621.04 733.5L620.95 733.99L620.75 734.89L620.62 735.23L620.03 736.4L619.6 736.89L617.69 739H481.35L478.94 736.25L477.01 734.03L476.47 733.39L476.25 733.14L475.87 732.68L475.76 732.55L475.47 732.47L475.29 732.72L475.22 732.97L475.1 733.54L475.06 733.94L475 734.79V735.3L475.01 736.84L475.07 737.35L475.25 738.21L475.46 738.46L475.98 738.84L476.42 738.91L477.43 739H453L453.19 642.25L453.23 611.69V601.7V596.8V587.06V582.31L453.22 572.9V568.35L453.21 559.34L453.2 555.01L453.18 546.47L453.17 542.4L453.15 534.41L453.13 530.65L453.11 523.28L453.09 519.85L453.06 513.17L453.04 510.12L453.01 504.21L452.99 501.57L452.95 496.5L452.92 494.31L452.88 490.15L452.86 488.44L452.81 485.27L452.78 484.09L452.76 482.96L452.75 482.51L452.72 481.66L452.71 481.35L452.68 480.79L452.67 480.62L452.64 480.36L452.63 480.34L451.8 480.37L450.69 480.52L450 480.66L447.5 481.14L448.01 739H441V611.7V602.49V596.57V593.71L441.01 588.06V585.34V579.96V577.37L441.02 567.27L441.03 562.61L441.05 553.53L441.06 549.36L441.08 541.26L441.09 537.56L441.12 530.38L441.14 527.13L441.17 520.83L441.19 518L441.23 512.54L441.26 510.1L441.3 505.43L441.33 503.38L441.39 499.45L441.42 497.74L441.49 494.51L441.52 493.14L441.6 490.56L441.64 489.49L441.72 487.51L441.77 486.73L441.86 485.31L441.91 484.79L442.02 483.88L442.07 483.6L442.19 483.15L442.25 483.09L442.79 482.46L442.92 482.19L442.87 482.14L442.67 482.07L442.45 482.1L441.91 482.21L441.5 482.32L440.21 482.58L438.95 482.79L438.18 482.9L434.79 483.35L433 483.54L429.84 483.91L427.37 484.24L426.06 484.43L423.41 484.82L422.12 485.02L419.6 485.42L418.5 485.61L412.91 486.46L408.43 487.04L405.82 487.33L400.37 487.92L397.29 488.21L390.92 488.8L387.41 489.1L380.17 489.69L376.24 489.99L368.18 490.58L363.85 490.87L355.02 491.45L350.33 491.74L340.78 492.31L335.75 492.59L325 493.19L325.01 499.85L325.02 501.95L325.05 503.11L325.08 503.59L325.24 505.23L325.44 505.78L325.91 506.73L326.31 507.09L327.25 507.77L327.94 508.17L330.44 510.34L332.03 512.4L332.71 513.58L333.96 516L334.36 517.19L335 519.52V520.49L334.52 523.77L333.74 526.07L333.14 527.24L331.8 529.59L330.94 530.74L329.11 533.02L328.03 534.09L325.89 536.35L324.95 537.59L324.68 538.2L324.23 539.43L324.13 540.16L324.01 541.74L324.02 542.79L324.15 546.05L324.42 547.58L324.71 548.13L325.41 549.14L325.98 549.58L327.29 550.43L328.24 550.92L329.44 551.75L330.24 552.51L330.63 552.98L332.16 555.03L332.81 556.25L334 558.75L334.39 560.01L335 562.5V563.57L334.45 566.54L333.57 568.74L332.9 569.89L331.43 572.21L330.51 573.36L328.55 575.64L327.41 576.7L325.58 578.58L324.79 579.67L324.55 580.27L324.18 581.52L324.1 582.34L324 584.13V585.37L324.08 588.45L324.28 589.84L324.5 590.34L325.06 591.25L325.53 591.65L326.62 592.46L327.43 592.96L330.13 595.37L331.84 597.56L332.56 598.79L333.89 601.32L334.32 602.54L335 604.93V605.91L334.48 608.88L333.65 611.03L333.03 612.13L331.65 614.35L330.78 615.42L328.95 617.52L327.9 618.47L325.7 620.59L324.79 621.75L324.54 622.39L324.15 623.77L324.08 624.72L324.02 625.73L324.01 626.34L324 627.63V628.4L324.01 630.47L324.04 631.6L324.07 632.07L324.24 633.67L324.46 634.21L325.01 635.16L325.48 635.55L326.59 636.33L327.43 636.82L330.65 639.33L332.34 641.3L332.96 642.4L334.04 644.66L334.35 645.86L334.81 648.31L334.82 649.57L334.67 652.09L334.37 653.35L333.61 655.85L333 657.05L331.63 659.41L330.72 660.51L328.73 662.63L327.51 663.56L325.52 665.21L324.7 666.19L324.47 666.81L324.13 668.16L324.07 669.17L324.02 670.24L324.01 670.89L324 672.28V673.12L324.07 676.23L324.2 677.81L324.3 678.37L324.53 679.35L324.69 679.62L325.03 680.03H325.25L326.75 680.45L327.82 681.07L328.36 681.52L329.45 682.51L329.99 683.11L331.04 684.38L331.53 685.08L333.38 688.07L334 689.63L334.56 691.18L334.73 691.93L335 693.39V694.05L334.81 695.7L334.51 696.92L334.28 697.58L333.16 700.29L332.38 701.66L330.68 704.39L329.7 705.61L327.68 707.9L326.64 708.71L325.21 710.04L324.59 710.96L324.42 711.58L324.13 712.97L324.07 713.99L324.03 715.07L324.01 715.71L324 717.08V717.89L324.01 719.98L324.04 721.14L324.06 721.62L324.19 723.27L324.31 723.77L324.62 724.58L324.86 724.76L325.42 725H325.81L327.15 725.34L328.12 725.87L328.63 726.27L330.69 728.15L331.63 729.37L333.42 731.96L334.02 733.28L334.57 734.58L334.74 735.2L335 736.4V736.93V737.42L335.1 737.61L335.38 737.98L335.76 738.13L336.69 738.39L337.52 738.49L338.42 738.59L338.99 738.63L340.2 738.71L340.93 738.74L342.5 738.8L343.43 738.82L345.39 738.87L346.54 738.89L348.94 738.92L350.33 738.94L353.23 738.96L354.88 738.97L358.31 738.98L360.24 738.99H364.26L366.5 739H371.14H373.71H379.02H320L322.01 738.96L323.13 738.89L323.58 738.83L324.43 738.69L324.76 738.6L325.34 738.39L325.54 738.25L326.1 737.61L326.04 737.14L325.7 736.1L325.23 735.4L324.11 734.32L323.01 733.55L322.39 733.21L321.12 732.56L320.54 732.35L319.44 732H319.07L317.6 732.62L316.47 733.52L315.94 734.1L314.92 735.32L314.57 735.91L314 737.07V737.5L314.08 738.03L314.28 738.23L314.79 738.57L315.25 738.69L316.31 738.88L317.09 738.93L318.83 739H303.91L304.6 735.32L305.16 733.51L305.76 732.19L306.16 731.5L307.99 728.72L309.15 727.46L311.18 725.06L312.12 723.66L312.44 722.92L312.99 721.4L313.18 720.45L313.51 718.42L313.65 717.09L314.3 710.9L310.2 706.96L307.57 703.95L306.18 701.83L305.67 700.74L304.78 698.53L304.52 697.41L304.12 695.16L304.1 694.04L304.19 691.81L304.43 690.71L305.02 688.54L305.5 687.5L306.58 685.45L307.31 684.48L308.89 682.6L309.87 681.74L311.61 680.04L312.34 678.99L312.55 678.33L312.87 676.87L312.93 675.81L312.98 674.68L312.99 674L313 672.55V671.69L312.99 669.35L312.96 668.05L312.93 667.52L312.74 665.63L312.52 664.94L311.96 663.67L311.48 663.07L310.36 661.83L309.52 661.02L307.19 658.32L305.96 656.4L305.51 655.4L304.71 653.39L304.48 652.36L304.11 650.29L304.1 649.26L304.17 647.2L304.37 646.19L304.87 644.18L305.29 643.22L306.23 641.32L306.86 640.43L308.24 638.7L309.1 637.91L311.3 635.74L312.21 634.56L312.46 633.9L312.85 632.5L312.92 631.52L312.98 630.49L312.99 629.87L313 628.55V627.75L312.98 625.7L312.95 624.55L312.92 624.06L312.72 622.33L312.49 621.67L311.94 620.43L311.47 619.83L310.39 618.59L309.59 617.79L307.63 615.44L306.55 613.73L306.13 612.82L305.35 610.97L305.08 610.02L304.62 608.1L304.51 607.13L304.36 605.19L304.41 604.24L304.6 602.36L304.82 601.45L305.33 599.68L305.72 598.86L306.58 597.26L307.14 596.55L309.05 594.66L310.43 593.68L310.95 593.52L311.91 592.93L312.41 592.25L312.6 591.72L312.97 590.51L313.12 589.64L313.41 587.72L313.54 586.45L314.24 579.98L310.19 575.59L307.71 572.48L306.4 570.37L305.92 569.3L305.07 567.17L304.81 566.1L304.42 563.98L304.39 562.94L304.45 560.87L304.65 559.86L305.17 557.87L305.61 556.92L306.59 555.05L307.25 554.17L308.69 552.45L309.58 551.66L311.48 549.83L312.27 548.76L312.5 548.13L312.85 546.78L312.92 545.83L312.97 544.82L312.99 544.22L313 542.94V542.18L312.98 540.13L312.95 538.98L312.91 538.49L312.69 536.74L312.43 536.04L311.8 534.69L311.25 533.98L310 532.46L309.06 531.45L306.84 528.63L305.68 526.7L305.26 525.72L304.52 523.74L304.31 522.75L304 520.77V519.78L304.11 517.81L304.33 516.85L304.87 514.93L305.29 514L306.26 512.17L306.9 511.29L308.29 509.57L309.14 508.75L310.42 507.52L311.11 506.81L311.38 506.5L312.29 505.31L312.53 504.67L312.86 503.34L312.89 502.42L312.9 501.45L312.88 500.86L312.83 499.62L312.8 498.87L312.5 492.75L308 492.45L306.75 492.38L305.61 492.32L304.91 492.29L303.43 492.22L302.57 492.18L300.8 492.1L299.83 492.06L295.72 491.89L293.46 491.8L288.84 491.63L286.5 491.54L269.37 490.66L257.55 489.8L251.57 489.25L239.58 488.07L233.65 487.39L221.86 485.95L216.16 485.15L204.93 483.51L199.65 482.62L194.43 481.73L191.93 481.27L187 480.35L184.66 479.87L180.07 478.92L177.91 478.44L173.7 477.47L171.75 476.98L167.96 476L166.24 475.51L162.92 474.52L161.45 474.03L156.75 472.46L153.94 471.55L152.79 471.18L150.68 470.52L149.98 470.32L149.35 470.14L149.14 470.08L148.8 470H148.75L148.46 470.44L148.29 471.12L148.22 471.62L148.1 472.71L148.06 473.37L148 474.76V475.52L148.14 478.42L148.39 480.15L148.62 480.97L149.14 482.62L149.53 483.48L150.38 485.26L150.94 486.27L152.36 489.05L153.42 491.36L153.99 492.71L155.16 495.51L155.77 497.04L156.99 500.17L157.61 501.81L160.04 508.53L161.13 511.82L162.19 515.08L162.66 516.62L163.55 519.64L163.92 521L165.89 529.88L166.83 535.99L167.12 539.18L167.59 545.68L167.64 549.12V556.14L167.46 559.9L167.11 566.09L166.83 569.68L166.65 571.24L166.27 574.22L166.04 575.51L165.53 577.98L165.22 579.05L164.56 581.12L164.16 582.04L163.31 583.81L162.81 584.63L161.74 586.22L161.12 586.98L159.8 588.48L159.04 589.25L154.27 594.01L153.39 613.26L153.21 617.59L153.11 620.79L153.06 622.52L152.97 626.07L152.93 627.94L152.86 631.74L152.83 633.72L152.71 641.79L152.68 645.93L152.62 654.22V658.24L152.63 666.13L152.65 669.72L152.68 673.24L152.7 674.87L152.75 678.04L152.78 679.47L152.84 682.22L152.87 683.41L152.95 685.65L152.99 686.56L153.09 688.23L153.14 688.83L153.25 689.85L153.31 690.08L153.78 691.17L154.29 691.95L154.62 692.33L156.1 693.81L156.93 694.3L158.44 695.39L159.28 696.24L159.63 696.76L160.29 697.87L160.55 698.56L161.03 700.02L161.21 700.91L161.53 702.81L161.64 703.96L161.83 706.39L161.87 707.83L161.94 710.88L161.93 712.66L161.9 716.42L161.85 718.59L161.73 722.78L161.65 725.19L161.6 726.23L161.5 728.18L161.43 729.01L161.3 730.56L161.22 731.22L161.06 732.45L160.96 732.96L160.75 733.92L160.63 734.32L160.09 735.74L159.73 736.3L157.95 739H16.3102L14.4002 736.9L13.3902 735.24L13.1402 734.49L13.0402 734L12.8502 732.95L12.7702 732.28L12.6302 730.84L12.5702 729.94L12.4702 728L12.4302 726.82L12.3502 724.29L12.3202 722.77L12.2502 719.55L12.2202 717.65L12.1702 713.3L12.1602 710.72V709.58L12.1802 707.39L12.2002 706.44L12.2602 704.62L12.3002 703.84L12.3902 702.37L12.4402 701.75L12.5702 700.59L12.6502 700.11L12.9902 698.5L13.2202 698.05L15.3402 695.41L17.3002 693.95L18.5602 693.37L21.2402 692.33L22.8402 691.97L26.2002 691.36L28.1302 691.22L35.0902 690.72L34.6602 617.81L34.5602 603.15L34.4902 593.83L34.4502 589.46L34.3702 580.93L34.3402 577.03L34.3002 573.2L34.2802 571.39L34.2402 567.84L34.2202 566.17L34.1802 562.93L34.1602 561.43L34.1202 558.51L34.1002 557.19L34.0602 554.62L34.0402 553.49L34.0002 551.3L33.9802 550.36L33.9402 548.59L33.9202 547.86L33.8902 546.52L33.8702 546.01L33.8302 545.13L33.8202 544.86L33.7802 544.45L33.7702 544.44L33.0402 544.19L32.0702 543.98L31.3902 543.86L29.9202 543.61L29.0602 543.48L27.2702 543.23L26.3002 543.1L22.6402 542.61L20.6402 542.28L19.8502 542.09L18.3802 541.69L17.8102 541.44L16.7902 540.91L16.4302 540.56L15.7902 539.82L15.5802 539.35L15.2402 538.33L15.1602 537.69L15.0502 536.33L15.0602 535.49L15.1002 533.71L15.1502 532.64L15.3002 530.21L15.4402 528.79L15.5302 528.13L16.0302 525.6L16.5402 524.21L17.0902 522.77L17.4602 521.95L18.2502 520.23L18.7602 519.22L19.8502 517.08L20.5202 515.8L21.9502 513.11L22.8102 511.5L23.9802 509.2L25.0102 507.11L25.6102 505.88L28.1302 500.61L29.3302 498L32.9302 491.1L35.6302 486.78L37.1102 484.75L40.1902 480.79L41.8702 478.95L45.3202 475.36L47.1802 473.7L51.0102 470.49L53.0602 469.02L57.2602 466.18L59.5002 464.9L64.0602 462.44L66.4802 461.36L71.4002 459.28L74.0002 458.39L77.2102 457.61L79.9402 457.18L81.5102 457.02L84.7802 456.72L86.5302 456.62L90.0901 456.46L91.8902 456.43L95.5002 456.41L97.2402 456.45L100.65 456.57L102.2 456.69L105.18 456.95L106.41 457.14L108.7 457.56L109.5 457.83L117.03 460.51L121.55 462.32L123.46 463.18L125.3 464.03L126.11 464.44L127.66 465.24L128.3 465.61L129.51 466.33L129.98 466.66L130.81 467.29L131.06 467.57L132.96 469.29L133.53 469.68L133.76 469.81L134.18 470H134.32L134.68 469.23L134.84 467.98L134.88 467.03L134.93 464.9L134.91 463.54L134.84 460.64L134.76 458.94L134.6 455.38L134.53 453.43L134.51 452.64L134.5 451.15L134.52 450.55L134.59 449.44L134.65 448.99L134.99 447.42L135.33 446.81L136.12 445.63L136.72 444.92L138.34 443.52L140 442.36L141.05 441.72L143.29 440.38L144.55 439.68L147.14 438.27L148.51 437.57L154.07 434.83L156.6 433.75L159.04 432.74L160.1 432.36L162.08 431.7L162.82 431.54L164.4 431.11L165.1 430.8L165.3 430.62L165.61 430.23L165.63 429.99L165.58 429.48L165.45 429.16L163.9 424.94L162.89 421.75L162.46 420.17L161.67 417.09L161.41 415.82L161.18 414.6L161.11 414.1L161 413.17V412.85L161.27 410.52L161.7 408.96L162.04 408.19L162.78 406.65L163.26 405.9L164.29 404.43L164.91 403.72L166.19 402.33L166.92 401.69L168.43 400.43L169.26 399.85L170.96 398.75L171.88 398.27L173.75 397.37L174.74 397L177.74 396.02L179.65 395.55L180.57 395.4L184.14 395.08L185.83 395.3L189.16 396L190.81 396.73L192.46 397.54L193.29 398.04L194.96 399.1L195.81 399.74L198.46 402.22L199.85 404.14L200.38 405.3L201.35 407.75L201.7 409.22L202.32 412.35L202.52 414.23L203.14 419.96L207.82 417.62L211.94 415.78L213.26 415.26L213.83 415.06L214.89 414.71L215.27 414.62L216.61 414.21L217.18 413.92L217.32 413.74L217.5 413.36L217.47 413.11L217.31 412.57L217.13 412.23L216.87 411.54L216.63 410.78L216.48 410.25L216.16 409.12L215.98 408.43L215.6 406.99L215.39 406.16L214.5 402.6L214 400.54L213 396.27L212.48 394L210.92 387.12L209.9 382.62L209.43 380.58L208.97 378.59L208.76 377.68L208.35 375.91L208.17 375.13L207.82 373.65L207.68 373.04L207.41 371.91L207.31 371.5L206.73 368.54L206.38 366.18L206.23 364.91L205.96 362.34L205.86 361.08L205.7 358.6L205.68 357.5L205.65 355.14L205.66 353.76L205.68 353.15L205.84 350.88L206.02 349.89L206.46 347.97L206.83 346.97L207.65 344.91L208.24 343.66L209.88 340.7L211.27 338.62L212.08 337.55L215.61 333.25L217.6 331.23L219.62 329.25L220.64 328.34L222.69 326.58L223.69 325.82L225.67 324.37L226.61 323.8L228.43 322.77L229.25 322.43L233.99 320.5L234 311.75L233.99 309.04L233.97 307.55L233.95 306.95L233.9 305.83L233.85 305.4L233.76 304.61L233.69 304.32L233.36 303.41L233.08 303.22L232.43 303H231.96L230.68 302.62L229.58 302.03L228.95 301.59L227.64 300.64L226.94 300.06L225.52 298.85L224.81 298.19L221.99 295.39L220.84 294.01L219.75 292.64L219.33 292.01L218.57 290.8L218.36 290.28L217.81 288.31L217.52 286.54L217.41 285.48L217.21 283.27L217.14 282.07L217.04 279.63L217.02 278.37L217.06 273.37L217.23 271.23L217.43 269.19L217.57 268.35L217.87 266.82L218.06 266.32L220.12 262.7L222.08 260.34L223.23 259.31L225.6 257.37L226.8 256.68L227.99 256.04L228.56 255.82L229.7 255.43L230.23 255.35L234 254.74V228.48V202.22L231.75 201.69L230.99 201.53L230.21 201.39L229.69 201.31L228.58 201.12L227.92 201.01L226.54 200.79L225.75 200.67L222.41 200.14L220.5 199.85L216.56 199.26L214.5 198.96L205.82 197.49L200.26 196.34L197.61 195.68L192.4 194.33L189.95 193.59L185.17 192.07L182.96 191.25L178.68 189.58L176.74 188.7L173.02 186.91L171.4 185.97L168.32 184.08L167.04 183.11L164.66 181.15L163.76 180.15L161.66 177.55L160.51 175.8L160.05 174.92L159.23 173.16L158.95 172.26L158.45 170.47L158.33 169.55L158.16 167.72L158.2 166.78L158.36 164.89L158.57 163.93L159.05 161.98L159.42 160.98L160.22 158.97L160.75 157.93L163.2 154.1L165.2 151.82L166.37 150.82L168.82 148.92L170.2 148.12L173.06 146.61L174.63 146.01L177.87 144.9L179.62 144.51L183.19 143.83L185.1 143.65L188.98 143.4L191.02 143.44L195.17 143.64L197.34 143.92L201.62 144.57L204.85 145.16L206.52 145.51L209.86 146.22L211.43 146.6L214.46 147.35L215.73 147.72L219.36 148.7L221.53 149.23L222.42 149.42L224.05 149.74L224.58 149.81L225.45 149.88L225.53 149.8L225.59 149.51L225.63 149.08L225.66 148.76L225.7 148.05L225.72 147.59L225.77 146.6L225.79 146L225.89 143.38L225.94 141.71L226.04 138.16L226.09 136.08L226.19 131.72L226.24 129.29L226.34 124.26L226.39 121.53L226.48 115.95L226.53 112.99L226.61 106.99L226.65 103.87L226.73 97.5399L226.79 93.5899L226.81 91.7499L226.87 88.1399L226.9 86.4599L226.96 83.1699L226.99 81.6499L227.05 78.6699L227.08 77.2999L227.15 74.6099L227.18 73.3799L227.32 68.6999L227.4 66.7299L227.56 63.0399L227.65 61.5199L227.84 58.6799L227.94 57.5399L228.16 55.4299L228.29 54.5999L228.54 53.0799L228.69 52.4999L230.29 47.2799L231.64 43.9899L232.45 42.4499L234.16 39.4299L235.16 38.0099L237.26 35.2499L238.46 33.9599L240.94 31.4499L242.34 30.2899L245.23 28.0399L246.83 26.9999L250.13 24.9899L251.94 24.0699L255.67 22.2999L257.7 21.4999L261.86 19.9699L264.1 19.2899L268.7 17.9999L271.17 17.4299L276.23 16.3699L278.93 15.9199L284.45 15.0799L287.39 14.7399L293.38 14.1199L296.56 13.8899L303.03 13.4899L306.45 13.3699L313.42 13.1799L317.1 13.1699M432.96 489.31L433.88 489.78L434.11 490.15L434.2 490.93L434.26 492.08L434.29 492.95L434.34 494.89L434.37 496.14L434.42 498.83L434.45 500.44L434.5 503.84L434.52 505.79L434.57 509.85L434.59 512.11L434.64 516.8L434.66 519.36L434.7 524.62L434.72 527.46L434.76 533.26L434.78 536.34L434.81 542.64L434.83 545.95L434.86 552.7L434.87 556.23L434.9 563.38L434.91 567.09L434.93 574.61L434.94 578.49L434.96 586.34V590.36L434.98 606.74V615.25L435 739H428.9L429.5 643.75L429.62 624.36L429.69 611.79L429.72 605.78L429.78 593.97L429.8 588.45L429.82 583L429.83 580.39L429.85 575.25L429.86 572.81L429.87 568.01L429.88 565.76L429.89 561.35L429.9 559.3V555.31L429.91 553.49V549.95V548.37V545.33V544.01L429.9 541.5V540.46L429.89 538.51L429.88 537.77L429.87 536.43L429.86 536L429.81 533.14L429.78 530.98L429.76 529.81L429.7 524.85L429.67 522.18L429.62 516.76L429.6 514.1L429.56 508.85V506.51L429.55 501.23L429.56 498.34L429.57 497.16L429.61 495L429.65 494.15L429.73 492.6L429.79 492.02L429.93 490.99L430.02 490.62L430.22 489.99L430.35 489.79L430.94 489.25L431.38 489.17M184.4 726.64L185.63 727.62L186 728.29L186.6 729.75V730.57L186.41 732.24L185.96 733.07L185.01 734.25L184.31 734.58L182.78 735.06L181.96 735.04L180.32 734.83L179.61 734.46L178.31 733.57L177.93 732.87L177.27 730.38L177.48 728.82L177.87 728.17L178.81 726.98L179.51 726.6L181.05 726H182M25.2802 702L24.6402 708.15L24.0902 715.57L23.9702 720.05L24.0302 721.92L24.1102 723.71L24.1802 724.49L24.3402 725.96L24.4502 726.56L24.6902 727.65L24.8302 728.04L25.1402 728.7L25.3202 728.85L25.9202 729.1L26.6102 729.26L27.0902 729.33L28.1302 729.48L28.7802 729.54L30.1602 729.68L30.9702 729.74L32.6702 729.85L33.6302 729.91L35.6302 730.01L36.7302 730.05L41.3902 730.2L44.0702 730.25L67.6802 730.59L79.3502 730.68L90.9202 730.75L96.4302 730.76L101.88 730.78H104.51H109.69L112.17 730.77L117.02 730.76L119.31 730.75L123.78 730.72L125.85 730.7L129.88 730.66L131.71 730.64L135.22 730.58L136.77 730.55L139.73 730.49L140.97 730.45L143.3 730.37L144.21 730.33L145.85 730.23L146.39 730.18L147.29 730.08L147.43 730.02L148.91 729.28L149.24 728.93L149.36 728.68L149.59 728.14L149.67 727.76L149.81 726.93L149.86 726.38L149.94 725.17L149.96 724.39L149.99 722.72V721.68L150 719.45V718.09L149.92 713.63L149.8 710.82L149.71 709.6L149.52 707.29L149.4 706.43L149.28 705.62L149.22 705.3L149.09 704.74L149.02 704.57L148.05 702M486.65 711.15L486.43 714.34L486.3 716.27L486.24 717.14L486.07 720.37L486.05 721.66L486.07 724.01L486.17 724.91L486.44 726.53L486.69 727.12L487.28 728.17L487.71 728.52L488.68 729.13L489.32 729.33L490.73 729.65L491.63 729.76L493.54 729.95L494.71 730.04L495.4 730.09L495.87 730.11L496.91 730.15L497.55 730.17L498.91 730.21L499.71 730.23L501.37 730.26L502.31 730.28L506.33 730.33L508.7 730.35L513.66 730.39L516.43 730.41L522.14 730.43L525.21 730.44L531.48 730.45H534.76L548.19 730.43L554.99 730.4L561.78 730.37L565.1 730.35L571.67 730.31L574.82 730.29L580.99 730.24L583.85 730.21L589.43 730.14L591.92 730.11L596.71 730.04L598.74 730L600.7 729.96L601.58 729.94L603.27 729.89L604 729.87L605.39 729.83L605.96 729.81L607.03 729.76L607.43 729.74L608.15 729.69L608.37 729.67L608.72 729.62L608.74 729.59L608.87 729.19L608.96 728.67L609 728.29L609.16 726.5L609.22 725.24L609.34 722.51L609.38 720.9L609.44 717.53L609.45 715.72L609.5 702.5L548.4 702.24L487.3 701.98M318.95 687L317.48 687.43L316.59 688.09L316.2 688.57L315.47 689.61L315.18 690.22L314.64 691.49L314.46 692.17L314.16 693.55L314.1 694.23L314.07 695.57L314.16 696.18L314.43 697.35L314.69 697.82L315.3 698.68L315.75 698.94L316.92 699.5L317.53 699.62L318.77 699.75L319.39 699.67L320.62 699.43L321.21 699.19L322.36 698.64L322.88 698.26L323.87 697.45L324.27 696.97L325.02 695.96L325.28 695.4L325.71 694.24L325.78 693.63L325.81 692.39L325.65 691.76L324.73 690.1L323.69 689.03L323.04 688.57L321.68 687.72L320.98 687.44L319.58 687M475.95 589.53L475.91 589.97L475.9 590.31L475.86 591.09L475.85 591.6L475.81 592.69L475.8 593.36L475.77 594.76L475.75 595.57L475.72 597.27L475.7 598.21L475.65 602.27L475.62 604.66L475.57 609.66L475.54 612.47L475.5 618.29L475.48 621.45L475.45 627.93L475.43 631.36L475.41 638.36V642L475.39 649.21V652.65V659.41V662.58V668.76V671.58L475.4 677.03L475.41 679.43L475.42 684.01L475.43 685.92L475.44 687.76V688.58L475.45 690.15L475.46 690.82L475.47 692.09L475.48 692.61L475.49 693.56L475.5 693.92L475.51 694.54L475.52 694.73L475.53 695H475.54L475.9 694.89L476.37 694.71L476.69 694.58L478.21 693.97L479.14 693.59L482.5 692.17L482.77 679.34L482.81 676L482.82 673.13V671.42L482.81 667.83V665.81L482.78 661.62L482.77 659.36L482.73 654.73L482.71 652.29L482.66 647.34L482.62 644.79L482.49 634.47L482.4 629.36L481.77 592.22L479.14 590.89L477.13 589.87L476.14 589.36L476 589.29M48.0702 545.2L47.9602 545.51L47.9102 545.78L47.8102 546.38L47.7702 546.8L47.6802 547.71L47.6402 548.29L47.5602 549.55L47.5202 550.31L47.4502 551.93L47.4202 552.88L47.3602 554.89L47.3302 556.05L47.2802 558.47L47.2502 559.85L47.2102 562.72L47.1902 564.34L47.1502 567.68L47.1302 569.54L47.1002 573.38L47.0902 575.49L47.0702 579.86L47.0602 582.24L47.0402 587.16L47.0302 589.83L47.0202 595.33L47.0102 598.3V604.4L47.0002 607.68V614.41V691.03L71.7502 690.77L96.5002 690.5L96.7602 623.33L97.0102 556.17L90.7602 554.13L88.8102 553.52L87.3102 553.09L86.4802 552.87L82.9302 551.93L80.9202 551.43L76.7702 550.43L74.5702 549.93L70.1402 548.93L67.9402 548.45L63.5502 547.53L61.4902 547.12L57.4902 546.34L55.7402 546.03L52.4402 545.47L51.1602 545.3L49.9502 545.14L49.4702 545.09L48.5702 545.02L48.2502 545.01M586.25 545.02L584.84 545.1L584.09 545.43L583.79 545.94L583.5 546.52L583.38 546.93L583.14 547.84L583.04 548.45L582.85 549.77L582.76 550.61L582.61 552.43L582.54 553.54L582.42 555.92L582.37 557.34L582.28 560.36L582.24 562.13L582.18 565.86L582.15 568.02L582.11 572.55L582.09 575.13L582.06 580.53L582.05 583.58L582.03 589.91V593.46L582.02 597.08V598.99L582.01 602.87V604.91V609.07V611.26L582 615.71V618.04L581.99 632.41L581.98 641.56V645.85L581.97 654.22V658.05V661.82V663.6L581.96 667.09V668.73V671.92V673.4V676.28V677.58V680.11V681.24V683.39V684.32V686.08V686.8V688.14V688.64V689.53L581.97 689.8V690.22V690.25L582.06 690.45L582.22 690.54L582.6 690.71L582.87 690.78L584.17 691H588V618V605.83V598.44L587.99 595.09V588.61L587.98 585.69L587.97 580.06L587.96 577.54L587.94 572.7L587.93 570.56L587.9 566.44L587.88 564.64L587.84 561.2L587.82 559.71L587.77 556.88L587.74 555.68L587.68 553.4L587.65 552.45L587.57 550.67L587.53 549.94L587.44 548.6L587.39 548.07L587.28 547.09L587.22 546.73L586.96 545.57L586.8 545.32L586.46 545.01M550.88 552.59L550.49 552.7L549.65 552.95L549.14 553.13L548.05 553.53L547.42 553.78L544.71 554.88L543.14 555.57L539.86 557.04L538.11 557.86L530.95 561.32L527.72 563.03L524.6 564.71L523.29 565.47L520.85 566.93L520 567.52L517.04 569.67L514.89 571.32L513.8 572.19L511.65 573.92L510.67 574.75L508.78 576.36L508.03 577.05L502.56 582.05L502.16 636.53L501.76 691H553.05L552.78 622.08L552.71 608.23L552.65 599.41L552.62 595.28L552.55 587.2L552.52 583.51L552.48 579.89L552.46 578.17L552.42 574.8L552.4 573.23L552.36 570.15L552.34 568.73L552.3 565.96L552.28 564.71L552.23 562.27L552.21 561.19L552.17 559.12L552.15 558.23L552.1 556.54L552.08 555.85L552.04 554.56L552.01 554.08L551.97 553.23L551.95 552.97L551.91 552.57L551.88 552.55L551.43 552.49M126 605.71L125.98 612.27L125.96 616.99L125.94 619.48L125.86 629.72L125.8 634.95L125.67 645.38L125.59 650.23L125.51 654.99L125.47 657.2L125.38 661.5L125.33 663.42L125.26 666.61L125.22 668.07L125.16 670.89L125.13 672.17L125.08 674.65L125.06 675.76L125.02 677.91L125.01 678.87L124.98 680.71V681.53L124.97 683.09V683.77L124.99 686.25L125.02 687.15L125.11 688.74L125.19 689.26L125.35 690.14L125.47 690.38L125.71 690.73L125.87 690.76L126.21 690.75L126.42 690.67L128.21 690.2L129.55 690H130.08L130.7 689.83L131.04 689.43L131.17 688.94L131.3 688.4L131.35 688.04L131.46 687.24L131.51 686.73L131.6 685.63L131.64 684.95L131.71 683.49L131.74 682.62L131.8 680.76L131.82 679.66L131.86 677.34L131.88 676L131.91 673.18L131.93 671.57L131.95 668.2L131.96 666.3L131.97 662.33V660.1L131.98 655.48V652.91L131.99 647.59V644.65V638.58L131.98 635.25L131.97 624.23L131.94 617.2L131.92 613.9L131.88 607.46L131.85 604.51L131.79 598.79L131.76 596.26L131.69 591.43L131.65 589.4L131.61 587.43L131.59 586.56L131.54 584.87L131.52 584.15L131.48 582.77L131.45 582.2L131.41 581.14L131.38 580.74L131.33 580.02L131.31 579.8L131.26 579.44L131.23 579.4L130.05 578.27L128.87 577.44L128.25 577.11L126 575.93M317.65 644.05L316.85 644.38L316.1 644.76L315.79 645.02L315.22 645.58L315.04 645.93L314.16 648.38L313.98 650L314.09 650.76L314.43 652.23L314.79 652.86L315.62 654.02L316.22 654.44L317.45 655.15L318.09 655.31L319.4 655.49L320.08 655.39L321.45 655.06L322.15 654.7L323.55 653.84L324.25 653.23L325.48 651.74L325.9 650.68L325.92 650.1L325.82 648.92L325.57 648.27L324.95 646.95L324.44 646.22L322.32 644.55L320.49 643.96L319.54 643.93M182.02 624.17L182.84 624.25L183.24 624.4L184.02 624.77L184.37 625.06L185.06 625.72L185.34 626.17L185.87 628.06L185.63 629.51L185.22 630.42L184.68 631.4L184.35 631.76L183.65 632.39L183.27 632.58L182.48 632.89L182.08 632.93H181.27L180.88 632.82L180.12 632.53L179.77 632.29L179.12 631.73L178.85 631.36L178.38 630.55L178.23 630.06L178 629.02V628.42L178.22 626.95L178.57 626.1L178.83 625.75L179.39 625.11L179.72 624.87L180.43 624.46L180.82 624.34L181.61 624.16M183.15 604.2L184.38 604.87L184.91 605.55L185.92 607.14L186.32 608.27L186.26 610.1L185.59 611.41L184.98 612.02L183.9 613.07L183.47 613.38L182.67 613.85L182.28 613.88L181.48 613.8L180.99 613.56L179.94 612.94L179.22 612.44L177.68 610.9L177.13 609.77L177.09 609.18L177.18 607.98L177.47 607.39L178.21 606.21L178.83 605.65L181.1 604.22L182.52 603.97M319.09 600.08L318.01 600.23L317.48 600.49L316.4 601.14L315.83 601.65L314.62 603.19L314.15 604.34L314.08 604.97L314.06 606.27L314.22 606.95L314.65 608.34L315.04 609.07L315.91 610.07L316.63 610.39L318.23 610.92L319.13 611L320.95 611.02L321.77 610.82L323.31 610.29L323.8 609.8L324.82 607.91L325.05 606.37L324.95 605.58L324.62 603.99L324.25 603.29L323.39 601.99L322.78 601.56L320.81 600.44L319.64 600.08M181.71 587.19L183.56 588.22L184.76 589.44L185.25 590.18L186.13 591.7L186.35 592.42L186.63 593.81L186.44 594.3L186.11 594.89L185.85 595.13L185.27 595.55L184.9 595.69L183.28 596.11L182.37 596.07L180.54 595.83L179.75 595.47L179 595.07L178.7 594.82L178.14 594.27L177.96 593.93L177.63 591.74L178 590.14L178.39 589.43L179.31 588.09L179.88 587.68L180.47 587.32L180.78 587.23L181.4 587.13M605.58 523.34L604.4 523.39L603.68 523.45L602.17 523.56L601.3 523.64L597.56 524.02L595.36 524.28L590.76 524.84L588.27 525.18L577.88 526.64L572.76 527.47L567.72 528.3L565.39 528.72L560.9 529.55L558.98 529.95L549.46 532.33L543.1 534.31L539.95 535.48L533.67 537.94L530.59 539.33L524.49 542.21L521.54 543.79L515.72 547.05L512.94 548.8L507.48 552.38L504.93 554.27L499.94 558.12L497.65 560.13L493.22 564.19L491.25 566.29L489.74 567.93L488.89 568.89L488.54 569.32L487.32 570.89L486.95 571.57L486.33 572.89L486.19 573.56L486 574.94V575.77L486.19 578.71L486.32 579.48L486.4 579.76L486.56 580.23L486.65 580.31L486.8 580.34L486.98 580.25L487.38 580.03L487.67 579.83L488.29 579.38L488.68 579.08L489.49 578.42L489.96 578.03L492 576.28L493.19 575.2L495.68 572.91L497.02 571.63L503.54 565.72L507.97 562.06L510.23 560.35L514.8 557.04L517.14 555.5L521.85 552.53L524.27 551.16L529.16 548.51L531.67 547.31L536.73 544.99L539.34 543.94L544.61 541.92L547.32 541.03L552.81 539.31L555.64 538.57L561.71 537L565.32 536.11L566.97 535.73L570.17 535.02L571.67 534.72L574.61 534.16L576.04 533.92L581.72 533.12L584.81 532.84L587.96 532.58L589.68 532.47L593.22 532.25L595.2 532.16L608.5 531.5L608.81 527.74L608.86 526.03L608.79 525.11L608.69 524.76L608.47 524.12L608.3 523.9L607.92 523.52L607.67 523.43L606.93 523.33L606.13 523.32M183.66 570.17L184.99 570.57L185.56 571.05L186.57 572.64L186.93 574.07L186.95 574.85L186.9 576.4L186.71 577.1L186.21 578.39L185.8 578.8L184.88 579.55L184.36 579.73L183.28 579.98L182.69 579.91L181.48 579.66L180.84 579.36L179.53 578.61L178.86 578.06L177.58 576.92L177.12 576.31L177.07 575.99V575.34L177.24 574.92L177.67 573.98L178.03 573.31L179.6 571.39L180.88 570.53L181.57 570.32L182.98 570.06M26.1902 528.25L26.1002 530.17L26.1802 531.04L26.3002 531.31L26.5902 531.75L26.8502 531.86L27.4202 532H27.8302L29.9502 532.05L31.5802 532.13L32.4902 532.2L36.4002 532.51L38.6602 532.74L43.3602 533.26L45.9102 533.59L51.1302 534.27L53.8302 534.66L64.8202 536.33L70.0102 537.26L75.1102 538.19L77.4402 538.66L81.9302 539.6L83.8602 540.06L91.1002 542.05L95.8902 543.64L98.2702 544.56L103 546.49L105.34 547.57L109.99 549.83L112.29 551.08L116.86 553.66L119.11 555.07L123.57 557.97L125.76 559.53L130.12 562.73L132.24 564.45L136.47 567.96L138.52 569.82L140.31 571.43L141.1 572.12L142.61 573.45L143.27 574.01L144.54 575.07L145.09 575.5L146.12 576.31L146.56 576.62L147.39 577.19L147.74 577.39L148.38 577.73L148.64 577.82L149.51 577.99L149.74 577.8L150.52 576.93L150.81 576.3L150.83 575.93L150.78 575.17L150.61 574.71L150.18 573.76L149.81 573.19L148.96 571.99L148.37 571.28L147.07 569.78L146.24 568.9L144.44 567.04L143.35 565.95L141.03 563.68L139.66 562.36L129.94 553.88L123.3 548.93L119.82 546.75L112.74 542.59L108.96 540.76L101.2 537.25L97.0002 535.68L91.2202 533.8L86.7302 532.57L84.2302 531.97L79.0901 530.79L76.3401 530.23L70.7302 529.14L67.8202 528.64L55.9702 526.78L50.1202 526.11L44.3202 525.49L41.5302 525.27L36.0502 524.88L33.5002 524.77L26.5002 524.5M407.95 515.31L409.63 515.8L410.48 516.18L412.17 517.01L412.99 517.53L414.62 518.64L415.39 519.28L416.89 520.63L417.58 521.37L418.9 522.89L419.47 523.7L420.54 525.34L420.96 526.19L421.71 527.91L421.96 528.78L422.8 532.75L423.04 535.24L422.97 536.46L422.71 538.88L422.37 540.1L421.54 542.56L420.9 543.85L419.45 546.48L418.47 547.9L416.34 550.83L415 552.45L412.11 555.79L410.37 557.67L408.58 559.58L407.6 560.59L405.6 562.65L404.51 563.75L402.08 566.2L401.01 567.26L398.95 569.28L398.06 570.14L396.35 571.77L395.61 572.45L394.2 573.71L393.6 574.22L392.46 575.15L391.97 575.51L391.06 576.15L390.67 576.37L389.94 576.75L389.63 576.85L389.04 577H388.79L387.86 576.79L387.12 576.45L386.68 576.19L384.82 574.89L383.71 573.93L381.4 571.83L380.13 570.54L377.54 567.82L376.2 566.3L373.5 563.16L372.17 561.49L369.53 558.13L368.3 556.42L365.9 553.02L364.85 551.38L362.86 548.14L362.08 546.65L360.04 541.71L359.22 538.43L359.07 536.83L358.95 533.66L359.14 532.15L359.69 529.17L360.2 527.79L361.38 525.09L362.19 523.87L363.97 521.53L365.08 520.52L367.43 518.63L368.81 517.87L371.7 516.5L373.34 516.04L377.38 515.31L379.94 515.27L381.18 515.47L383.63 516.03L384.83 516.54L387.24 517.71L388.44 518.53L391.17 520.19L392.59 520.8L393.17 520.87L394.24 520.85L394.71 520.61L395.61 519.97L396.05 519.43L397.91 517.78L399.5 516.77L400.37 516.36L402.15 515.61L403.03 515.37L404.75 515H405.49M318.75 557.25L318.16 557.48L317 558.07L316.49 558.58L315.52 559.75L315.15 560.57L314.32 562.85L314.05 564.23V564.83L314.16 565.99L314.35 566.49L314.82 567.42L315.2 567.8L315.92 568.38L316.35 568.58L317.26 568.89L317.76 568.96L319.87 569L320.91 568.71L322.92 567.93L323.68 567.3L324.38 566.63L324.63 566.24L325.06 565.44L325.14 565L325.22 562.45L324.88 560.95L324.56 560.32L323.83 559.13L323.35 558.68L322.34 557.86L321.77 557.6L320.59 557.2L319.98 557.18M96.2402 468.54H94.5202L90.0602 468.57L87.5702 468.6L86.5202 468.64L84.5302 468.72L83.6702 468.79L82.0302 468.93L81.3002 469.04L78.5002 469.56L77.0502 470.01L75.5702 470.49L74.7402 470.78L73.0102 471.42L72.0002 471.8L66.7402 474.02L63.4002 475.66L61.8202 476.55L58.7302 478.4L57.2702 479.39L54.4302 481.43L53.1102 482.52L50.5402 484.73L49.3602 485.91L47.0702 488.3L46.0302 489.55L44.0302 492.11L43.1502 493.44L41.4602 496.14L40.7402 497.54L40.0602 499.09L39.5502 500.46L39.2802 501.26L38.1602 504.71L37.6602 506.48L37.1702 508.23L36.9602 509.04L36.5802 510.58L36.4402 511.22L36.2102 512.4L36.1602 512.8L36.1202 513.44L36.1902 513.51L36.6802 513.62L37.4202 513.75L37.9702 513.83L39.1902 514.02L39.9602 514.13L41.6102 514.37L42.5802 514.51L44.6002 514.79L45.7302 514.95L48.0602 515.26L49.3202 515.43L54.6102 516.14L57.5002 516.51L65.7602 517.62L70.6202 518.33L72.7902 518.67L76.9501 519.36L78.8401 519.72L82.4902 520.44L84.1802 520.82L90.6402 522.44L93.7802 523.45L96.9302 524.5L98.5702 525.09L101.91 526.33L103.71 527.04L110.82 529.56L113.04 530.25L114.08 530.54L116.09 531.08L117 531.29L118.72 531.68L119.46 531.8L120.83 532.01L121.35 532.03L122.29 532.04L122.57 531.97L123 531.76V531.57L122.67 530.47L122.2 529.37L121.89 528.8L121.44 527.37L121.15 525.91L121.02 525L120.77 523.09L120.68 522.04L120.51 519.88L120.47 518.79L120.17 514.47L119.83 512.07L119.55 510.95L118.91 508.73L118.43 507.51L117.37 504.99L116.63 503.44L113 497.01L110.21 493.14L108.65 491.43L105.42 488.16L103.66 486.77L100.03 484.16L98.0901 483.13L96.0302 481.98L94.8702 481.28L94.3802 480.95L92.7001 479.68L92.2102 479.09L91.4602 477.92L91.3802 477.32L91.4202 476.08L91.6902 475.37L92.2302 474.58L92.8202 474.25L93.3002 474.17L94.3802 474.08L95.1702 474.11L96.9302 474.23L98.1402 474.36L102.65 475.16L105.74 476.03L107.31 476.62L110.45 477.89L112.01 478.66L115.13 480.29L116.66 481.22L119.7 483.17L121.16 484.25L124.03 486.48L125.39 487.68L128.05 490.15L129.27 491.45L131.63 494.11L132.68 495.5L136.29 500.78L138.69 504.75L139.79 506.79L141.92 510.87L142.78 512.78L143.61 514.66L143.95 515.54L144.6 517.24L144.84 518L145.58 520.78L146.12 523.23L146.4 524.67L146.97 527.68L147.26 529.31L147.82 532.63L148.09 534.33L148.61 537.72L148.83 539.36L149.27 542.58L149.44 544.03L149.75 546.83L149.84 547.99L149.99 550.12V550.85L150.47 555.63L150.79 557.18L150.99 557.86L151.39 559.13L151.61 559.6L152.12 560.63L152.34 561.03L152.78 561.78L152.98 562.05L153.37 562.51L153.54 562.64L153.87 562.82L154.02 562.81L154.31 562.71L154.44 562.56L154.7 562.18L154.81 561.88L155.03 561.22L155.14 560.78L155.34 559.83L155.43 559.25L155.66 557.22L155.74 555.66L155.76 554.79L155.73 551.06L155.6 548.92L155.28 544.46L155.02 542.06L154.45 537.15L154.08 534.62L153.3 529.54L152.84 527.04L151.89 522.06L151.36 519.71L150.28 515.12L149.7 513.07L148.53 509.14L147.92 507.52L145.59 502.29L143.66 498.78L142.53 497.04L140.18 493.58L138.87 491.89L136.16 488.56L134.7 486.96L131.7 483.83L130.12 482.37L126.91 479.51L125.24 478.21L121.89 475.71L120.18 474.62L116.74 472.55L115.02 471.7L112.87 470.66L111.64 470.09L111.06 469.87L108.85 469.13L107.55 468.92L106.19 468.75L105.38 468.69L103.68 468.6L102.64 468.58L100.44 468.54H99.1002M183.07 553.27L184.39 553.51L184.99 553.89L186.15 554.83L186.62 555.55L187.26 556.68L187.46 557.32L187.45 557.62L187.35 558.24L187.18 558.59L186.76 559.33L186.43 559.8L185.4 560.94L184.76 561.3L183.4 561.86L182.67 561.92L181.2 561.89L180.49 561.64L179.13 560.99L178.57 560.43L177.44 559.12L177.09 558.39L177.13 558.02L177.34 557.27L177.67 556.81L178.47 555.8L179.09 555.13L181.04 553.67L182.4 553.23M541.1 467.44L536.56 467.87L534.37 468.34L525.42 470.72L520.03 472.69L517.6 473.88L512.9 476.4L510.77 477.89L506.64 481.03L504.75 482.84L501.12 486.51L498.95 488.92L497.98 490.13L496.1 492.55L495.26 493.8L493.62 496.34L492.88 497.67L491.45 500.39L490.79 501.85L489.51 504.84L488.91 506.46L487.74 509.81L487.18 511.64L486.06 515.42L485.51 517.5L484.44 521.67L483.83 524.15L483.58 525.28L482.68 529.56L482.38 531.59L481.86 535.67L481.69 537.98L481.53 540.37L481.47 541.69L481.34 544.44L481.28 546L480.75 560.5L483.62 557.91L486.21 555.75L488.44 554.02L489.74 553.04L492.46 551.04L493.94 549.98L496.95 547.84L498.51 546.76L501.64 544.61L503.19 543.58L506.25 541.55L507.68 540.62L510.48 538.85L511.71 538.1L514.06 536.7L515 536.19L518.91 534.19L521.91 532.76L523.56 532.02L530.51 529.01L534.2 527.54L541.63 524.66L545.11 523.44L548.53 522.27L550.11 521.76L553.16 520.82L554.5 520.45L562.5 518.27L562.37 513.26L561.9 508.7L561.23 505.7L560.74 504.24L559.65 501.35L558.95 499.96L557.46 497.23L556.58 495.94L554.73 493.41L553.68 492.24L551.51 489.97L550.31 488.94L547.83 486.97L546.5 486.12L543.76 484.5L542.31 483.84L538.59 481.95L536.71 480.76L536.08 480.21L535.01 479.14L534.78 478.66L534.51 477.73L534.67 477.32L535.19 476.55L535.74 476.23L537.04 475.64L537.98 475.42L540.06 475.02L541.38 474.91L544.23 474.73L545.93 474.72L550.62 474.92L553.66 475.24L555.14 475.51L558.07 476.1L559.5 476.49L562.32 477.35L563.69 477.87L566.4 478.99L567.71 479.65L570.31 481.03L571.57 481.82L574.05 483.47L575.25 484.39L577.62 486.29L578.76 487.34L582.42 491.21L584.56 494.01L585.5 495.58L587.32 498.84L588.15 500.69L589.74 504.56L590.49 506.78L591.23 508.94L591.65 510.11L591.84 510.58L592.2 511.44L592.37 511.77L592.72 512.37L592.9 512.58L593.66 513.25L594.17 513.37L595.31 513.5H596.13L597.97 513.42L598.74 513.24L598.95 513.04L599.27 512.55L599.32 512.14L599.34 511.2L599.29 510.5L598.84 508.3L598.24 506.47L597.81 505.43L596.87 503.26L596.3 502.09L595.11 499.7L594.44 498.48L591.59 493.53L590.06 491.25L588.52 489.02L587.75 488.02L586.25 486.11L585.53 485.32L580.48 480.52L576.77 477.65L574.76 476.39L570.67 473.98L568.51 472.97L564.13 471.07L561.87 470.32L557.31 468.95L554.99 468.48L550.34 467.68L548.02 467.51L543.38 467.31M182.1 533.29L183.14 533.64L183.87 533.95L186.09 535.4L187.17 536.66L187.47 537.37L187.91 538.8L187.85 539.49L187.55 540.84L187.08 541.4L186.16 542.33L185.61 542.64L184.45 543.16L183.82 543.26L182.52 543.37L181.85 543.26L180.5 542.94L179.83 542.61L178.07 541.21L177.38 540.03L177.29 539.35L177.28 537.96L177.53 537.22L178.21 535.73L178.81 534.99L179.93 533.74L180.56 533.27L180.9 533.2L181.62 533.17M320 515L318.12 515.1L317.12 515.29L316.73 515.44L316 515.79L315.73 516.04L315.22 516.58L315.04 516.93L314.19 519.17L314.01 520.57L314.11 521.21L314.44 522.45L314.79 522.99L315.62 524.02L316.22 524.44L317.68 525.35L318.36 525.6L319.7 525.94L320.33 525.91L321.58 525.7L322.19 525.38L323.4 524.6L324 524L325.22 522.46L325.76 521.41L325.89 520.9L326.07 519.87L326.04 519.38L325.88 518.43L325.69 517.99L325.22 517.15L324.88 516.79L324.13 516.1L323.64 515.84L322.62 515.37L322.01 515.22L320.73 515M183.02 510.99L183.89 511.12L184.28 511.29L185.05 511.67L185.38 511.96L186 512.59L186.24 512.99L186.67 513.84L186.8 514.34L187 515.4V516L186.65 518.19L186.13 519.47L185.8 519.8L184.81 520.55L184.2 520.74L182.94 520.99L182.27 520.93L180.94 520.69L180.32 520.4L179.13 519.69L178.65 519.17L177.46 517.44L177.07 516.33L177.08 515.79L177.25 514.73L177.54 514.21L178.26 513.17L178.83 512.65L180.23 511.65L181.18 511.22L181.65 511.11L182.58 510.96M488.38 470L487.67 470.21L486.8 470.54L486.21 470.77L484.94 471.3L484.21 471.61L482.68 472.27L481.88 472.64L476 475.27L476.07 490.89L476.15 506.5L479.08 500.13L480.35 497.22L481.21 495.07L481.62 493.98L482.42 491.82L482.76 490.82L483.4 488.91L483.62 488.13L485.31 483.24L485.95 481.7L486.25 481.04L486.85 479.81L487.11 479.38L488.25 476.68L488.79 474.58L488.92 473.59L489.09 471.71L489.01 471.05L488.89 470.47L488.79 470.28L488.55 470M181.91 492.2L182.74 492.47L183.3 492.73L185.38 494.18L186.28 495.39L186.48 496.05L186.69 497.42L186.52 498.1L185.99 499.45L185.44 500.07L184.44 501.1L183.98 501.4L183.09 501.87L182.63 501.9L181.68 501.82L181.12 501.57L179.95 500.95L179.22 500.44L177.68 499.04L177.14 498.11L177.11 497.6L177.22 496.54L177.52 495.93L178.27 494.66L178.88 493.9L179.95 492.72L180.57 492.26L180.88 492.17L181.52 492.1M524.67 482.23L525.42 482.41L525.77 482.7L526.49 483.41L526.98 483.98L528.2 485.98L528.3 486.63L528.24 486.97L528.05 487.69L527.84 488.08L527.33 488.91L526.95 489.39L526.09 490.4L525.51 490.99L524.27 492.23L523.5 492.96L521.84 494.5L520.85 495.4L519.4 496.69L518.74 497.24L517.47 498.27L516.89 498.68L515.78 499.46L515.27 499.76L514.28 500.29L513.82 500.47L512.09 500.97L511.32 500.89L509.81 500.53L509.07 500.06L508.38 499.44L508.14 498.92L508.13 498.54L508.18 497.71L508.31 497.12L508.64 495.81L508.91 494.91L510.51 491.19L511.98 489.02L512.92 488.08L514.93 486.29L516.16 485.53L518.75 484.11L520.26 483.54L521.84 482.94L522.69 482.63L523.04 482.52L524.25 482.2M61.4402 487.11L62.6902 487.37L63.3702 487.74L64.7802 488.63L65.5702 489.31L67.2202 491.19L67.7202 492.45L67.6702 493.15L67.3602 494.61L66.9002 495.47L65.7702 497.3L64.8902 498.42L63.7002 499.81L63.1702 500.22L62.1502 500.84L61.6402 500.86L60.6102 500.71L60.0502 500.35L58.8702 499.43L58.1702 498.69L56.6402 496.24L56.1002 494.39L56.0702 493.45L56.1602 491.6L56.4602 490.77L57.2102 489.22L57.8302 488.65L59.6402 487.42L60.8302 487.06M217.97 425.67L216.58 425.92L215.59 426.18L213.42 426.8L211.98 427.25L204.5 429.6L204.83 433.76L204.88 437.27L204.81 438.34L204.75 438.79L204.62 439.61L204.54 439.88L203.63 440.99L202.49 441.82L201.71 442.27L200 443.17L198.99 443.63L196.86 444.55L195.7 444.99L190.82 446.71L188.35 447.36L185.91 447.97L184.75 448.19L182.5 448.58L181.51 448.67L178.29 448.88L176.7 448.85L176.08 448.73L174.92 448.43L174.39 448.15L173.34 447.51L172.75 447.04L170.81 444.93L170.36 444.19L170.22 443.85L170 443.19V442.93L169.76 441.7L169.39 441.17L169.15 441.07L168.63 440.98L168.35 441.12L167.8 441.52L167.55 441.91L166.7 442.51L165.57 443.1L164.78 443.47L163.09 444.23L162.1 444.64L160.03 445.49L158.92 445.91L155.63 447.21L153.56 448.08L152.65 448.49L150.94 449.26L150.3 449.58L149.18 450.16L148.91 450.35L147.85 451.17L147.5 451.63L147.52 451.89L147.67 452.45L147.94 452.86L148.61 453.78L149.14 454.45L151.73 456.74L154.24 458.26L155.88 459.02L159.42 460.54L161.58 461.3L166.14 462.81L168.8 463.56L174.37 465.07L177.52 465.81L184.08 467.3L187.73 468.03L195.26 469.5L199.39 470.23L207.89 471.67L212.5 472.38L226.3 474.32L230.61 474.86L232.44 475.06L234.2 475.26L234.97 475.33L236.42 475.47L237 475.51L241.29 475.88L244.77 476.19L246.67 476.38L250.55 476.75L252.48 476.95L256.28 477.34L258 477.53L260.83 477.82L262.94 478.03L264.08 478.14L268.84 478.58L271.38 478.81L276.51 479.24L279 479.44L283.87 479.82L286 479.96L292.33 480.41L296.35 480.69L298.12 480.82L299.84 480.94L300.61 480.99L302.09 481.1L302.72 481.15L303.91 481.23L304.38 481.27L305.22 481.33L305.5 481.35L308.83 481.56L310.84 481.61L315.07 481.69L317.48 481.68L322.48 481.64L325.23 481.57L330.88 481.4L333.9 481.27L340.07 480.99L343.31 480.81L349.87 480.43L353.25 480.19L367.02 479.16L374 478.5L383.38 477.61L389.09 477.06L391.7 476.81L396.75 476.32L399.06 476.09L403.52 475.65L405.56 475.44L409.52 475.03L411.33 474.83L414.84 474.44L416.46 474.25L419.61 473.88L421.07 473.69L423.92 473.32L425.26 473.13L430.41 472.37L432.82 471.96L437.59 471.1L440.02 470.61L444.98 469.57L447.73 468.96L450.53 468.33L452.04 467.99L455.13 467.28L456.8 466.89L464.15 465.16L468.46 464.11L470.34 463.63L473.91 462.7L475.46 462.26L478.38 461.42L479.62 461.03L481.96 460.25L482.93 459.88L484.75 459.16L485.49 458.81L486.87 458.1L487.41 457.76L488.41 457.06L488.79 456.7L490.05 455.37L490.61 454.54L490.76 454.15L490.95 453.37L490.89 453L490.68 452.25L490.42 451.88L489.79 451.13L489.31 450.75L488.24 449.97L487.53 449.55L485.99 448.71L485.05 448.25L483.03 447.32L481.83 446.81L478.26 445.33L476.18 444.52L475.27 444.19L473.54 443.61L472.81 443.4L471.42 443.03L470.85 442.93L469.77 442.79H469.34L468.56 442.86L468.26 442.97L467.74 443.25L467.56 443.46L467.28 443.94L467.21 444.26L467.36 445.24L467.85 445.9L468.33 446.26L469.44 447.01L470.26 447.45L472.09 448.37L473.31 448.91L475.86 450.11L477.4 450.88L478.03 451.23L479.2 451.88L479.6 452.14L480.25 452.59L480.33 452.72L480.18 452.99L479.81 453.24L479.52 453.39L478.84 453.72L478.4 453.91L477.46 454.31L476.9 454.53L474.42 455.47L472.92 456L469.76 457.08L468.03 457.64L460.8 459.9L457.32 460.87L453.91 461.79L452.38 462.17L449.49 462.85L448.34 463.07L446.38 463.42L445.27 463.59L444.79 463.65L443.03 463.77L442.24 463.67L440.68 463.37L439.77 463.03L438.83 462.66L438.28 462.43L437.14 461.92L436.46 461.61L433.8 460.48L431.81 459.69L430.78 459.31L428.73 458.58L427.76 458.26L425.9 457.67L425.13 457.45L422.54 456.74L420.64 456.22L419.67 455.95L417.74 455.42L416.85 455.18L415.14 454.71L414.44 454.52L411.84 453.7L409.7 452.94L408.52 452.5L403.58 450.57L401.38 449.61L393.38 446.09L382.94 449.46L378 451L374.89 451.91L373.37 452.32L367.4 453.8L364.26 454.41L361.07 455L359.37 455.27L355.89 455.8L354 456.05L350.09 456.55L347.94 456.8L343.48 457.29L341 457.55L327.06 458.48L317.63 458.64L312.9 458.5L303.45 458.06L298.77 457.62L289.45 456.61L284.89 455.9L275.87 454.35L271.52 453.37L262.95 451.3L258.89 450.07L250.93 447.5L247.24 446.03L240.05 442.99L236.81 441.3L234.37 439.87L232.64 438.71L231.74 438.05L228.13 435.25L226.47 433.76L224.84 432.27L224.11 431.55L222.71 430.12L222.13 429.46L221.06 428.18L220.68 427.63L220.03 426.58L219.89 426.18L219.33 425.68L218.58 425.59M415.88 390.21L415.27 390.61L414.9 390.93L413.29 392.53L412.45 393.63L410.84 396.15L409.91 398.11L409.47 399.36L408.59 402.06L408.13 403.81L407.67 405.63L407.43 406.66L406.93 408.8L406.66 410.01L405.97 413.12L405.56 414.99L405.37 415.83L404.64 418.95L404.3 420.19L403.61 422.47L403.23 423.36L402.43 424.99L401.95 425.62L400.91 426.78L400.25 427.26L398.82 428.14L397.92 428.55L395.96 429.34L394.73 429.77L392.11 430.65L390.49 431.2L385.42 432.86L382.28 433.84L380.78 434.28L374.98 435.89L372.1 436.55L366.28 437.78L363.05 438.32L359.75 438.86L357.96 439.12L354.27 439.65L352.25 439.92L339 441.68L338.99 438.09L338.76 432.64L338.4 429.37L338.14 428.03L337.57 425.54L337.22 424.69L336.86 423.9L336.67 423.62L336.28 423.15L336.08 423.04L335.52 422.88L334.95 422.79L334.57 422.76L332.85 422.67H331.7L329.23 422.71L327.79 422.78L324.8 422.94L323.19 423.07L312.47 423.5L305.7 423.27L302.29 422.87L298.85 422.42L297.08 422.13L293.5 421.48L291.63 421.07L287.82 420.21L285.8 419.7L281.67 418.62L279.47 417.99L271.55 415.63L266.63 414.03L264.32 413.22L259.81 411.57L257.68 410.72L253.51 409L251.53 408.09L247.64 406.26L245.78 405.29L242.11 403.32L240.33 402.27L233.37 397.9L229.97 395.4L227.23 393.47L225.87 392.61L225.42 392.39L224.65 392.08L224.48 392.13L224.26 392.37L224.36 392.69L224.54 393.34L224.72 394.03L224.85 394.5L225.11 395.5L225.27 396.1L225.6 397.36L225.79 398.08L226.59 401.16L227.05 402.92L228 406.57L228.49 408.5L229.61 412.76L230.25 415.13L230.54 416.12L231.09 417.98L231.34 418.74L231.84 420.17L232.09 420.76L233.06 422.8L233.62 423.55L234.82 424.94L235.61 425.66L240 428.99L243.52 431.13L245.54 432.15L249.77 434.16L252.12 435.11L256.98 436.96L259.62 437.82L265.03 439.5L267.92 440.26L273.81 441.73L276.91 442.38L283.2 443.62L286.47 444.14L293.09 445.13L296.5 445.51L305.77 446.38L310.54 446.57L320.16 446.79L325 446.67L334.7 446.27L339.5 445.85L349.04 444.88L353.67 444.18L362.8 442.67L367.12 441.72L375.59 439.7L379.5 438.51L383.34 437.29L385.16 436.64L388.74 435.32L390.41 434.62L393.69 433.18L395.21 432.43L398.16 430.9L399.5 430.09L402 428.47L403.45 427.38L404.08 426.79L405.3 425.56L405.85 424.85L406.9 423.36L407.39 422.48L408.35 420.61L408.81 419.49L409.75 417.11L410.22 415.7L411.19 412.7L411.71 410.93L412.79 407.19L413.39 405L414.75 400.07L415.57 397.1L415.91 395.88L416.54 393.63L416.76 392.87L416.95 392.19L417.02 391.96L417.14 391.57L417.16 391.5L417.11 390.67L416.78 390.18L416.5 390.06M453.75 407.1L452.13 407.35L451.45 407.62L450.2 408.26L449.76 408.75L449.15 409.93L448.72 411.17L448.51 411.98L448.08 413.71L447.88 414.72L447.48 416.8L447.29 417.93L446.6 422.64L446.37 425.01L446.16 427.36L446.1 428.48L446 430.65V431.63L446.08 434.13L446.31 435.21L446.61 435.57L447.36 436.21L448.02 436.49L448.74 436.76L449.19 436.91L450.16 437.22L450.75 437.4L452.15 437.83L452.73 438.01L453.79 438.32L454.21 438.44L455.63 438.8L456.05 438.82L456.75 438.76L456.99 438.58L457.43 438.12L457.72 437.75L458.67 436.06L459.51 434.27L459.99 433.14L461 430.73L461.53 429.4L462.59 426.67L463.11 425.27L464.14 422.49L464.6 421.18L465.47 418.63L465.81 417.54L466.43 415.52L466.61 414.79L466.76 414.12L466.8 413.88L466.85 413.46L466.83 413.35L465.95 411.52L464.92 410.42L464.23 409.93L462.76 409L461.91 408.62L460.15 407.92L459.22 407.67L457.35 407.24L456.42 407.14L454.59 407.03M180.98 407.45L178.08 408.12L176.8 408.69L175.58 409.29L175.05 409.64L174.06 410.38L173.69 410.79L172.92 412.06L172.82 412.58L172.83 412.9L172.87 413.6L172.95 414.05L173.16 415.01L173.33 415.61L173.7 416.91L173.96 417.72L174.53 419.44L174.89 420.48L175.66 422.7L176.13 424.03L177.73 428.58L178.7 431.34L179.1 432.48L179.83 434.6L180.08 435.33L180.31 435.99L180.38 436.23L180.51 436.62L180.54 436.7L180.77 437.07L181.04 437.15L181.72 437.23L182.25 437.16L183.44 436.94L184.26 436.72L186.05 436.2L187.2 435.82L189.7 434.96L191.22 434.41L191.86 434.17L193.03 433.7L193.43 433.52L194.1 433.2L194.2 433.12L194.36 432.68L194.39 432.15L194.37 431.79L194.23 430.1L194.05 428.96L193.63 426.52L193.35 425.13L192.74 422.26L192.38 420.79L191.66 417.83L191.28 416.43L190.52 413.71L190.15 412.56L189.43 410.41L189.11 409.66L188.8 408.98L188.67 408.74L188.4 408.33L188.29 408.25L186.92 407.58L185.8 407.3L185.16 407.24L182.43 407.2M420.61 425.26L420.3 425.39L420.21 425.52L420 426.19V426.76L420.33 428.35L420.95 429.37L421.53 429.92L422.9 431.06L423.95 431.76L425.05 432.48L425.71 432.89L427.1 433.73L427.9 434.2L429.27 435L429.86 435.32L430.95 435.9L431.41 436.12L432.27 436.49L432.62 436.61L433.27 436.77L433.54 436.78L434.44 436.6L434.73 436.2L435.24 435.19L435.44 434.38L435.81 432.49L435.69 431.62L435.31 431.24L434.87 430.87L434.54 430.67L433.82 430.27L433.33 430.04L432.27 429.55L431.6 429.26L430.16 428.65L429.27 428.28L426.35 427.05L424.75 426.4L424.11 426.16L422.93 425.71L422.47 425.57L421.64 425.32L421.33 425.27L420.79 425.22M405.46 333L404.54 333.21L404.13 333.54L404.02 333.79L403.88 334.34L403.91 334.69L404.02 335.42L404.16 335.85L404.99 337.69L405.74 338.75L407.44 340.93L408.58 342.04L412.48 346.32L414.42 349.05L415.09 350.41L416.24 353.16L416.55 354.61L417 357.58V359.22L416.85 362.18L416.55 363.87L416.26 364.7L415.55 366.4L415 367.39L413.75 369.5L412.86 370.85L409.43 375.4L406.77 378.35L405.26 379.77L402.12 382.58L400.4 383.92L396.84 386.58L394.92 387.84L390.99 390.33L388.9 391.51L384.64 393.81L382.4 394.89L377.85 396.99L375.49 397.96L370.7 399.85L368.23 400.71L363.24 402.37L360.69 403.11L355.55 404.52L352.94 405.13L347.69 406.28L345.05 406.75L339.74 407.62L337.08 407.95L331.75 408.53L329.1 408.71L323.8 408.98L321.18 408.99L315.95 408.94L313.38 408.79L308.27 408.4L305.78 408.07L296.1 406.47L289.59 405.08L286.36 404.23L279.91 402.45L276.75 401.43L270.48 399.31L267.45 398.14L261.47 395.72L258.64 394.42L253.08 391.76L250.5 390.35L245.48 387.49L243.22 386L238.86 382.98L236.97 381.43L231.42 376.34L228.42 372.97L227.28 371.3L225.22 367.98L224.54 366.34L223.42 363.07L223.21 361.45L223.02 358.23L223.28 356.64L224.04 353.48L224.77 351.92L226.46 348.81L227.66 347.28L230.29 344.23L231.96 342.73L233.5 341.32L234.34 340.53L234.67 340.19L235.79 338.97L236.06 338.48L236.44 337.56L236.42 337.1L236.25 336.15L236.02 335.56L235.4 334.12L235.02 333.59L234.77 333.51L234.23 333.48L233.83 333.63L232.92 334.04L232.26 334.39L230.74 335.36L229.6 336.21L229 336.73L226.52 338.99L225.29 340.3L222.87 342.99L221.86 344.31L220.89 345.61L220.49 346.23L219.75 347.42L219.48 347.95L218.76 349.79L218.3 351.36L218.1 352.24L217.37 355.97L217.23 357.7L217.15 361.84L217.38 364.44L217.65 365.68L218.29 368.13L218.79 369.32L219.89 371.69L220.63 372.86L222.23 375.22L223.24 376.41L225.39 378.82L226.69 380.07L229.42 382.61L231.03 383.94L234.4 386.67L236.33 388.13L243.32 392.97L248.27 395.99L250.87 397.39L256.16 400.12L258.92 401.36L264.52 403.79L267.43 404.88L273.31 406.99L276.34 407.92L282.47 409.69L285.61 410.45L291.94 411.89L295.18 412.47L301.69 413.55L305 413.96L308.44 414.31L310.35 414.43L314.28 414.63L316.38 414.66L325.1 414.67L329.62 414.45L338.69 413.88L342.95 413.4L347.14 412.89L349.09 412.59L352.88 411.96L354.58 411.6L359.49 410.45L362.9 409.53L364.64 409.01L371.67 406.79L375.09 405.53L381.8 402.93L384.76 401.59L387.65 400.24L388.95 399.58L391.44 398.25L392.5 397.61L399.58 392.97L404.15 389.63L406.23 387.94L410.21 384.59L411.84 383.02L413.4 381.47L414.07 380.74L415.32 379.33L415.82 378.68L417.77 376.03L418.9 374.4L419.39 373.64L421.12 370.73L421.72 369.35L422.76 366.63L423.08 365.2L423.6 362.25L423.73 360.55L423.88 357.12L423.77 355.3L423.57 354.43L423.07 352.7L422.63 351.68L422.15 350.62L421.85 350.03L421.23 348.78L420.85 348.06L419.36 345.56L418.16 343.85L417.49 342.99L414.62 339.6L413.11 338.12L411.6 336.69L410.87 336.07L409.42 334.9L408.76 334.45L407.47 333.63L406.91 333.38L405.87 333M246.33 195.34L246.27 195.78L246.24 196.44L246.23 196.95L246.2 198.09L246.19 198.82L246.17 200.4V201.35L246.16 203.35L246.15 204.5V206.89V208.23V210.99V212.5L246.16 215.61L246.17 217.28L246.18 220.71L246.19 222.53L246.21 226.25L246.23 228.21L246.28 236.32L246.32 240.71L246.4 249.71L246.45 254.48L246.56 264.18L246.62 269.22L247.5 342.5L250.76 349.39L254.52 356.54L257.26 361.06L258.76 363.19L261.83 367.37L263.49 369.33L266.88 373.17L268.7 374.96L272.4 378.45L274.38 380.06L278.4 383.2L280.52 384.64L284.85 387.43L287.13 388.68L291.76 391.11L294.18 392.19L296.87 393.35L298.49 394.02L299.23 394.3L302.06 395.29L303.41 395.64L306.13 396.25L307.66 396.46L309.23 396.66L310.1 396.75L311.9 396.92L312.91 397L316.06 397.23L317.48 397.3L320.25 397.41L321.53 397.42L326.41 397.32L328.68 397.05L333.17 396.36L335.56 395.76L337.98 395.11L339.28 394.72L341.94 393.89L343.39 393.4L351.58 390.18L356.5 387.73L358.78 386.32L363.23 383.34L365.35 381.6L369.56 377.93L371.66 375.79L376.31 370.73L379.11 367.35L380.37 365.66L382.78 362.26L383.84 360.54L385.88 357.1L386.76 355.35L388.42 351.83L389.12 350.04L390.44 346.44L390.96 344.59L391.93 340.87L392.29 338.96L392.92 335.1L393.11 333.12L393.3 330.41L393.41 327.93L393.46 326.39L393.55 323.13L393.59 321.25L393.67 317.34L393.7 315.18L393.75 310.75L393.77 308.39L393.81 303.57V301.06L393.82 290.79L393.78 285.57L393.5 247.64L388 246.17L387.99 284.84L387.91 300.5L387.86 305.47L387.83 307.82L387.75 312.43L387.71 314.56L387.62 318.67L387.57 320.5L387.46 324L387.41 325.47L387.29 328.23L387.23 329.28L387.11 331.15L387.04 331.72L385.5 339.6L383.85 344.91L382.75 347.54L380.38 352.78L378.95 355.32L375.95 360.35L374.25 362.74L370.72 367.42L368.79 369.59L364.83 373.79L362.72 375.66L358.42 379.24L356.18 380.75L351.65 383.57L349.33 384.65L344.58 386.7L341.51 387.85L340.01 388.33L337.01 389.21L335.53 389.55L332.56 390.16L331.06 390.37L328.06 390.72L326.53 390.8L323.44 390.9L321.84 390.86L318.61 390.72L316.92 390.56L313.5 390.17L311.69 389.9L306.61 388.77L303.03 387.67L301.2 386.96L297.5 385.47L295.67 384.6L292.01 382.79L290.25 381.8L286.79 379.78L285.18 378.71L282.07 376.55L280.69 375.44L278.06 373.23L276.99 372.13L275.01 369.96L274.32 368.91L272.89 366.65L272.38 365.63L272.32 365.25L272.35 364.54L272.55 364.2L273.06 363.48L273.49 363.01L274.64 362.02L275.02 361.91L275.24 361.94L275.7 362.05L275.99 362.21L276.61 362.58L277 362.88L277.84 363.55L278.37 364.01L279.49 365.02L280.19 365.66L281.67 367.03L282.56 367.86L285.97 370.82L288.54 372.85L289.86 373.82L292.51 375.72L293.76 376.53L296.17 378.05L297.18 378.59L299.55 379.84L300.9 380.51L301.49 380.79L303.71 381.7L304.8 381.95L307.05 382.34L308.51 382.42L310.04 382.47L310.94 382.49L312.86 382.5H314L316.8 382.48L318.43 382.44L319.14 382.41L321.74 382.22L322.82 382.03L324.88 381.58L325.89 381.23L327.94 380.42L329.17 379.84L337.91 374.89L343.49 370.88L346.1 368.56L351.19 363.72L353.51 361.04L357.97 355.51L359.91 352.54L361.8 349.61L362.82 347.9L363.23 347.07L363.98 345.38L364.28 344.44L364.83 342.45L365.05 341.23L365.46 338.62L365.63 336.96L365.79 335.25L365.86 334.28L366.01 332.28L366.09 331.16L366.23 328.83L366.3 327.53L366.45 324.83L366.52 323.33L366.68 320.23L366.76 318.51L366.93 314.96L367.02 313L367.51 303.19L367.87 296.39L368.05 293.13L368.24 289.9L368.33 288.37L368.5 285.36L368.59 283.98L368.75 281.31L368.83 280.13L368.98 277.88L369.04 276.94L369.41 270.95L369.63 266.73L369.72 264.66L369.88 260.61L369.92 258.82L369.97 257.08L369.98 256.3L370 254.8V244.96L365.48 242.09L360.92 239.77L357.87 238.78L356.33 238.57L353.23 238.33L351.67 238.49L348.52 238.99L346.92 239.53L344.41 240.28L343.13 240.57L342.65 240.6H341.76L341.41 240.49L340.75 240.21L340.46 239.97L339.32 238.6L339.03 237.68L339.12 237.21L339.46 236.26L339.86 235.79L340.83 234.85L341.55 234.37L343.09 233.12L343.42 232.42L343.2 232.1L342.91 231.78L342.66 231.62L342.1 231.3L341.71 231.13L340.87 230.77L340.33 230.58L339.19 230.19L338.5 229.97L337.34 229.57L336.25 229.16L335.57 228.89L334.11 228.33L333.27 227.99L331.51 227.29L330.53 226.89L326.41 225.2L324.11 224.25L319.41 222.28L317 221.26L306.64 216.97L299.16 213.96L295.29 212.45L287.5 209.43L283.66 207.97L276.04 205.11L272.46 203.79L268.92 202.5L267.24 201.9L263.95 200.72L262.41 200.18L259.41 199.13L258.04 198.67L255.4 197.77L254.23 197.39L252 196.67L251.06 196.39L249.31 195.87L248.63 195.69L247.41 195.39L247.02 195.33L246.4 195.27M355.6 335.56L355.89 338.68L355.45 340.34L354.9 340.97L353.58 342.1L352.58 342.49L350.33 343.16L348.84 343.34L347.98 343.42L347.32 343.46L345.86 343.53L344.93 343.56L342.95 343.62L341.79 343.64L339.37 343.69L338.03 343.71L335.25 343.74L333.76 343.76L330.71 343.78L329.11 343.79L322.54 343.82L319.17 343.81L312.41 343.8L309.18 343.77L305.99 343.74L304.48 343.73L301.51 343.69L300.14 343.67L297.47 343.62L296.28 343.59L294 343.53L293.03 343.5L291.21 343.43L290.5 343.4L289.23 343.32L288.83 343.28L285.96 342.66L284.59 341.98L284.14 341.47L283.4 340.33L283.25 339.56L283.08 337.88L283.18 336.82L283.5 333.5L319.23 333.24L354.96 332.97M325.7 258.14L326.23 258.19L328.41 258.58L328.94 258.91L329.17 259.2L329.63 259.89L329.85 260.41L330.29 261.59L330.53 262.42L331.02 264.25L331.3 265.45L331.91 268.08L332.27 269.74L332.65 271.46L332.86 272.42L333.29 274.41L333.53 275.5L334.73 280.85L335.63 284.67L336.08 286.56L336.99 290.27L337.42 291.93L338.23 295.09L338.57 296.29L339.51 299.85L340.07 302.08L340.29 303.04L340.68 304.84L340.81 305.51L341 306.66V306.91L340.33 309.32L339.27 310.94L338.49 311.7L336.78 313.18L335.74 313.81L333.54 314.99L332.32 315.41L330.03 316.1L328.85 316.33L326.45 316.73L325.23 316.82L322.77 316.93L321.53 316.88L319.05 316.71L317.82 316.52L315.36 316.07L314.15 315.75L311.76 315.03L310.6 314.57L308.31 313.59L307.22 313.01L305.08 311.77L304.09 311.06L302.65 309.85L301.91 309L301.64 308.56L301.2 307.67L301.08 307.2L300.92 306.24L300.95 305.74L301.09 304.72L301.27 304.18L301.69 303.09L302.02 302.51L302.74 301.34L303.21 300.72L304.22 299.47L304.84 298.8L306.35 297.29L307.24 296.51L307.63 296.23L308.38 295.76L308.69 295.64L309.3 295.47L309.55 295.5L310.01 295.64L310.19 295.82L310.53 296.27L310.65 296.6L310.85 297.36L310.91 297.85L311 298.91V303H324.6L323.89 296.25L323.78 294.96L323.7 293.88L323.67 293.24L323.52 290.43L323.44 288.74L323.3 285.2L323.24 283.27L323.11 279.34L323.06 277.34L322.96 273.35L322.92 271.45L322.86 267.75L322.84 266.12L322.82 263.05L322.83 261.86L322.85 260.75L322.86 260.3L322.89 259.47L322.91 259.19L323.15 258.64L323.52 258.37L323.79 258.28L324.42 258.15L324.82 258.13M233.25 267.62L230.44 268.55L229.22 269.41L228.85 270.1L228.53 270.84L228.42 271.31L228.22 272.31L228.16 272.92L228.06 274.22L228.03 275.01L228 276.68V277.67L228.02 279.88L228.05 281.14L228.08 281.67L228.24 283.56L228.42 284.25L228.83 285.49L229.16 286.01L229.91 287L230.45 287.55L231.6 288.66L232.08 289.07L232.99 289.77L233.36 289.96L234.05 290.21L234.33 290.16L234.84 289.92L235.04 289.6L235.39 288.82L235.52 288.22L235.74 286.86L235.81 285.95L235.93 283.96L235.96 282.72L236 280.07V266.96M406.12 267L405.81 278.5L405.75 280.99L405.72 282.03L405.69 283.97V284.75L405.7 286.21L405.72 286.78L405.78 287.82L405.83 288.21L405.95 288.91L406.03 289.15L406.22 289.56L406.34 289.69L406.9 290H407.32L409.17 289.7L410.53 289.25L411.07 288.96L412.09 288.09L412.54 287.16L412.68 286.37L412.8 285.5L412.84 284.96L412.92 283.79L412.94 283.07L412.98 281.53L412.99 280.6L413 278.63V267M356.4 251.93L357.83 252.21L358.51 252.47L359.85 253.08L360.46 253.5L361.64 254.43L362.15 255.01L363.11 256.25L363.49 256.98L364.49 259.39L364.9 260.94L364.98 261.7L365.05 263.18L364.96 263.88L364.7 265.27L364.44 265.92L363.86 267.18L363.45 267.77L362.55 268.9L361.98 269.41L360.77 270.38L360.06 270.81L358.55 271.61L357.68 271.93L355.89 272.58L355.18 272.74L353.86 272.94L353.25 272.86L352.03 272.56L351.34 272.21L349.87 271.36L348.91 270.72L346.92 269.1L345.86 267.92L345.46 267.3L344.75 266.03L344.53 265.36L344.18 264.01L344.14 263.32L344.15 261.92L344.29 261.21L344.66 259.79L344.97 259.08L345.7 257.66L346.2 256.95L347.29 255.55L347.97 254.87L349.9 253.34L351.28 252.59L352 252.35L353.46 251.95L354.19 251.88L355.67 251.83M285.28 251.18L286.26 251.31L289.51 252.24L291.44 253.3L292.25 254.03L293.77 255.6L294.34 256.54L295.35 258.53L295.63 259.65L295.65 262.39L295.14 264.44L294.68 265.45L293.64 267.44L292.98 268.29L291.57 269.86L290.79 270.35L288.04 271.84L286.69 272.19L284.04 272.63L282.78 272.47L280.32 271.89L279.21 271.22L278.11 270.48L277.6 270.02L276.6 269.03L276.14 268.45L274.3 265.11L273.84 262.86L273.99 261.72L274.56 259.43L275.23 258.27L276.83 255.94L278.01 254.75L280.32 252.57L281.51 251.67L282.06 251.43L283.17 251.11L283.84 251.1M286.67 225.37L290.69 226.27L293.21 227.17L294.37 227.74L296.61 228.95L297.58 229.64L299.43 231.08L300.19 231.84L301.57 233.4L302.05 234.2L302.86 235.79L303.03 236.57L303.19 238.1L302.99 238.81L302.4 240.2L301.8 240.8L300.46 241.73L299.5 241.96L298.92 241.86L297.69 241.54L296.92 241.16L295.27 240.25L294.23 239.57L291.29 237.94L289.33 237.13L288.34 236.87L286.36 236.43L285.37 236.35L283.39 236.28L282.41 236.38L280.43 236.67L279.45 236.96L277.48 237.62L276.51 238.09L274.57 239.12L273.6 239.77L271.68 241.17L270.74 242L269.51 243.06L268.97 243.5L267.95 244.31L267.49 244.62L266.63 245.18L266.24 245.37L265.5 245.69L265.17 245.76L263.9 245.83L263.32 245.54L262.16 244.73L261.52 244.03L260.63 242.89L260.31 242.22L260.27 241.86L260.28 241.12L260.4 240.66L260.73 239.66L261 238.99L262.67 236.07L264.18 234.2L265.1 233.33L267.03 231.62L268.12 230.85L270.38 229.36L271.59 228.72L274.06 227.51L275.33 227.02L277.91 226.14L279.2 225.84L281.78 225.35L283.03 225.26L285.51 225.21M398.1 193L397.13 193.37L396.23 193.91L395.8 194.25L395.01 195.27L394.69 196.32L394.64 197.16L394.6 198.07V198.64L394.62 199.84L394.66 200.57L394.74 202.12L394.8 203.04L394.93 204.99L395.02 206.13L396.1 215.28L396.59 218.14L396.84 219.35L397.35 221.6L397.59 222.37L398.24 224.58L398.58 225.92L398.7 226.47L398.89 227.48L398.93 227.82L398.95 228.39L398.88 228.45L398.47 228.52L397.94 228.5L397.56 228.45L396.74 228.34L396.23 228.25L395.16 228.07L394.54 227.95L391.87 227.41L390.33 227.06L387.12 226.33L385.44 225.93L382.04 225.09L380.38 224.66L377.13 223.8L375.68 223.39L372.92 222.59L371.85 222.23L370.83 221.89L370.42 221.74L369.66 221.45L369.4 221.33L367.35 220.24L366.42 219.56L366.13 219.16L365.63 218.33L365.49 217.78L365.26 216.57L365.19 215.76L365.59 211.71L366.56 208.68L367.4 207.01L368.34 205.14L368.81 204.15L368.94 203.77L369.13 203.09L369.09 202.86L368.91 202.46L368.66 202.36L368.05 202.21L367.55 202.22L366.43 202.3L365.65 202.41L363.94 202.67L362.83 202.86L360.46 203.28L359 203.54L354.12 204.23L350.72 204.52L348.79 204.59L346.82 204.64L345.74 204.65H343.52L342.3 204.63L339.79 204.58L338.4 204.54L335.52 204.44L333.92 204.38L330.07 204.23L327.73 204.16L326.68 204.13L324.66 204.09L323.76 204.08L322.04 204.07L321.29 204.08L319.86 204.11L319.26 204.13L318.12 204.2L317.66 204.25L316.81 204.37L316.49 204.44L315.93 204.6L315.74 204.7L315.45 204.91L315.4 205.04L315.37 205.3L315.46 205.45L316.05 206.13L316.73 206.55L318.33 207.48L319.5 208.04L322.06 209.24L323.68 209.95L328.44 212.03L332.17 213.66L334.15 214.53L338.15 216.28L340.08 217.13L343.87 218.8L345.53 219.52L350.26 221.58L353.09 222.76L354.42 223.29L359.55 225.23L362.27 226.1L365.06 226.97L366.6 227.41L369.8 228.29L371.63 228.77L375.44 229.75L377.65 230.3L382.3 231.45L385 232.1L389.13 233.09L390.96 233.5L394.47 234.27L395.99 234.57L398.9 235.13L400.14 235.33L402.48 235.67L403.44 235.77L405.23 235.91L405.93 235.9L407.21 235.83L407.66 235.72L408.45 235.45L408.67 235.24L409 234.77V234.47L408.81 233.49L408.5 232.55L408.28 231.97L407.23 229.45L406.56 228.12L404.89 224L404.35 222.32L404.09 221.37L403.56 219.4L403.3 218.29L402.77 215.98L402.5 214.68L401.96 212.01L401.69 210.52L401.13 207.43L400.84 205.72L400.26 202.19L399.96 200.25L399.46 197.43L399.11 195.79L398.94 195.13L398.61 193.94L398.47 193.57L398.2 193M449.86 155.94L445.76 156.12L443.51 156.38L438.9 157.01L436.41 157.5L431.3 158.59L428.56 159.3L422.97 160.84L420 161.78L413 164.06L407.92 165.77L405.38 166.64L400.36 168.38L398.08 169.2L395.85 170L394.83 170.37L392.86 171.09L392 171.42L381.87 174.93L374.87 177.05L371.37 177.97L364.41 179.72L361.07 180.41L354.52 181.67L351.52 182.09L346.54 182.67L342.82 183L340.81 183.13L336.7 183.37L334.55 183.46L330.19 183.62L327.97 183.67L319.02 183.77L314.74 183.69L310.51 183.58L308.51 183.49L304.61 183.28L302.83 183.14L294.85 182.4L289.88 181.82L287.47 181.45L282.67 180.67L280.24 180.18L275.34 179.12L272.74 178.46L267.42 177.06L264.5 176.2L261.54 175.32L259.97 174.83L256.79 173.83L255.1 173.28L251.65 172.15L249.82 171.54L246.07 170.27L244.08 169.59L240 168.18L237.82 167.42L233.38 165.85L231 165.01L224.04 162.6L219.86 161.21L217.97 160.63L214.3 159.52L212.63 159.06L209.36 158.21L207.84 157.87L204.86 157.24L203.45 157L200.65 156.58L199.29 156.43L193.87 156.02L191 156.03L186.18 156.22L183.27 156.52L181.96 156.75L179.45 157.29L178.36 157.64L176.26 158.4L175.38 158.86L173.71 159.84L173.04 160.41L171.81 161.61L171.36 162.28L170.57 163.69L170.35 164.47L170.01 166.09L170.02 166.97L170.09 168.57L170.2 169.44L170.3 169.78L170.51 170.4L170.65 170.61L170.95 170.97L171.15 171.06L171.56 171.17L171.81 171.14L172.33 171L172.64 170.84L173.28 170.46L173.64 170.18L174.41 169.55L174.84 169.15L178.57 166.61L181.57 165.36L183.33 164.97L187.01 164.33L189.1 164.24L193.45 164.21L195.87 164.42L203.68 165.39L208.68 166.33L211.41 167.05L214.19 167.82L215.71 168.27L218.83 169.25L220.56 169.82L224.14 171.04L226.15 171.75L230.32 173.24L232.67 174.1L243.57 177.99L250.34 180.3L253.5 181.33L259.69 183.28L262.59 184.13L268.27 185.75L270.95 186.44L276.21 187.74L278.71 188.28L283.62 189.29L285.97 189.68L290.61 190.41L292.86 190.68L297.32 191.15L299.5 191.3L301.09 191.4L301.99 191.44L303.86 191.52L304.9 191.56L309.25 191.69L311.7 191.73L316.72 191.79L319.37 191.8L324.71 191.81L327.37 191.79L332.67 191.75L335.18 191.7L340.07 191.6L342.24 191.54L344.37 191.46L345.33 191.42L347.21 191.34L348.04 191.29L349.62 191.19L350.29 191.14L351.54 191.03L352.03 190.97L361.63 189.43L368.34 188L371.79 187.09L378.71 185.16L382.19 184.03L389.14 181.66L392.55 180.33L395.28 179.28L397.33 178.5L398.45 178.08L403.16 176.33L405.69 175.41L410.83 173.55L413.34 172.65L418.3 170.9L420.5 170.14L425.79 168.32L428.7 167.34L429.92 166.95L432.23 166.24L433.23 165.97L435.15 165.48L436.04 165.31L439.47 164.78L441.46 164.68L443.52 164.61L444.73 164.59L447.29 164.57L448.82 164.56L461.14 164.5L464.55 168.22L466.45 170.2L467.3 170.96L467.6 171.08L468.13 171.16L468.34 170.98L468.75 170.47L468.98 170.03L469.84 167.68L469.98 166.17L469.83 165.43L469.38 163.95L468.94 163.22L467.9 161.75L467.16 161L464.09 158.71L461.62 157.53L460.17 157.11L457.14 156.38L455.42 156.18L451.84 155.91M317.46 132.5H305.42L298.03 132.51H294.65L288.1 132.52L285.11 132.53L279.32 132.54L276.71 132.55L271.65 132.57L269.37 132.58L265 132.61L263.04 132.63L259.3 132.66L257.64 132.69L254.48 132.73L253.1 132.76L250.47 132.81L249.34 132.84L247.19 132.91L246.29 132.95L244.59 133.03L243.88 133.07L242.57 133.16L242.05 133.21L241.08 133.32L240.71 133.37L240.04 133.49L239.8 133.56L239.07 133.84L238.96 134L238.61 135.36L238.42 136.92L238.35 137.94L238.24 140.13L238.22 141.38L238.21 143.96L238.25 145.31L238.5 155.12L248.5 159.09L252.66 160.7L255.37 161.71L256.59 162.15L258.93 162.98L259.85 163.28L261.52 163.81L262 163.93L262.77 164.07L263.45 164.13L264.98 164.25L266.01 164.31L268.23 164.41L269.57 164.46L272.4 164.54L274.02 164.58L277.39 164.65L279.25 164.68L283.09 164.73L285.16 164.75L289.39 164.79L291.62 164.8L296.17 164.82H298.54H308.24L313.28 164.79L323.45 164.71L328.51 164.65L338.56 164.5L343.33 164.4L348.06 164.3L350.32 164.24L354.78 164.12L356.88 164.05L361.67 163.9L364.58 163.8L365.89 163.75L368.43 163.65L369.57 163.61L371.76 163.51L372.74 163.46L374.61 163.36L375.44 163.3L377.02 163.19L377.71 163.13L380.21 162.87L381.11 162.71L382.71 162.35L383.24 162.13L384.14 161.66L384.4 161.36L384.8 160.73L384.88 160.34L384.98 159.5V159L384.8 158.56L384.45 158.32L384.13 158.22L383.38 158.03L382.81 157.95L381.54 157.8L380.68 157.75L378.78 157.64L377.57 157.6L374.94 157.53L373.31 157.5L369.83 157.45L367.74 157.43L363.31 157.4L360.7 157.39L351.94 157.31L346.67 157.23L344.32 157.17L339.81 157.05L337.85 156.97L334.11 156.81L332.53 156.71L329.56 156.5L328.37 156.38L326.19 156.13L325.4 155.99L324 155.7L323.6 155.54L323 155.21V155.03L323.2 154.64L323.54 154.38L323.8 154.25L325.12 153.75L326.15 153.52L328.44 153.05L329.93 152.83L333.14 152.41L335.06 152.22L339.11 151.84L341.43 151.67L346.25 151.35L348.93 151.21L354.47 150.95L357.48 150.84L363.66 150.64L366.97 150.57L373.5 150.43L377.11 150.33L378.58 150.28L381.32 150.17L382.4 150.11L384.38 149.98L385.14 149.9L386.5 149.74L386.99 149.64L387.86 149.43L388.15 149.3L388.98 148.72L389.15 148.31L389.67 146.84L389.91 146.04L389.93 145.86L389.38 145.73L388.48 145.64L387.79 145.59L386.25 145.49L385.26 145.44L383.15 145.35L381.91 145.3L379.31 145.21L377.85 145.17L374.83 145.08L373.19 145.05L369.83 144.97L368.05 144.94L364.42 144.87L362.53 144.85L355.59 144.73L351.52 144.65L349.74 144.6L346.35 144.51L344.9 144.45L342.16 144.34L341.02 144.27L338.89 144.14L338.04 144.06L336.47 143.91L335.88 143.82L334.84 143.65L334.5 143.55L333.95 143.35L333.83 143.23L332.23 142.36L330.79 142H330.1L328.94 141.94L328.46 141.84L328.37 141.75L328.26 141.54L328.34 141.38L328.57 141.03L328.81 140.79L329.53 140.48L330.41 140.29L331.06 140.21L332.52 140.05L333.48 139.97L335.57 139.83L336.86 139.77L339.62 139.65L341.26 139.59L344.73 139.49L346.75 139.44L350.98 139.35L353.39 139.31L358.43 139.24L361.26 139.2L366.09 139.14L369.06 139.1L370.42 139.08L373.05 139.04L374.26 139.02L376.59 138.97L377.65 138.95L379.7 138.9L380.62 138.88L382.4 138.83L383.2 138.8L386.14 138.68L387.29 138.61L389.38 138.46L390.16 138.37L391.55 138.18L392.04 138.07L392.88 137.83L393.16 137.69L393.61 137.39L393.75 137.22L394.63 135.63L395 134.49V134.06L394.52 133.59L394.11 133.46L393.8 133.4L393.12 133.28L392.67 133.23L391.66 133.12L391.03 133.08L389.65 132.99L388.81 132.95L387.01 132.88L385.93 132.84L383.65 132.78L382.32 132.76L379.51 132.7L377.89 132.68L374.5 132.64L372.56 132.62L368.54 132.59L366.27 132.58L361.56 132.56L358.92 132.55L353.47 132.53L350.45 132.52L344.2 132.51H340.77L333.68 132.5H329.8H321.81M409.79 121.16L409.37 122.92L408.99 124.31L408.77 125.09L407.77 128.46L407.16 130.36L404.5 138.41L403.1 142.16L401.12 147.55L399.96 150.8L399.5 152.13L399.06 153.41L398.87 153.96L398.53 155L398.4 155.41L398.17 156.16L398.1 156.42L398 156.84V156.91L398.02 157.53L398.12 157.69L398.4 157.93L398.71 157.91L399.46 157.76L400.09 157.53L401.53 156.97L402.58 156.53L404.51 155.49L405.59 154.58L406.1 153.92L407.12 152.44L407.69 151.39L408.27 150.28L408.59 149.63L409.25 148.26L409.61 147.46L411.27 143.65L412.54 140.57L413.2 138.89L414.52 135.47L415.15 133.78L416.37 130.44L416.89 128.94L418.04 125.56L418.66 123.7L418.91 122.93L419.34 121.51L419.49 120.93L419.76 119.88L419.83 119.46L419.93 118.69V118.39L419.89 117.84L419.81 117.62L419.4 116.86L419.02 116.51L416.97 115.29L415.2 114.59L414.38 114.43L411.39 113.83M318.45 25.1999L312.71 25.2799L309.95 25.3999L304.53 25.6899L302 25.9199L289.85 27.2499L282.45 28.3199L279.1 28.9599L272.62 30.2899L269.72 31.0599L264.14 32.6699L261.68 33.5799L256.96 35.4699L254.92 36.5199L251.04 38.6999L249.41 39.8999L246.35 42.3799L245.12 43.7399L242.85 46.5299L242 48.0399L239.5 52.4999L238.88 119H249.56L250.69 111.78L251.11 108.64L251.26 106.8L251.28 106.03V104.59L251.22 104.06L251.06 103.11L250.92 102.84L250.73 102.07L250.62 101.17L250.56 100.54L250.46 99.1599L250.41 98.3199L250.32 96.5399L250.28 95.5199L250.2 93.3999L250.17 92.2299L250.11 89.8199L250.09 88.5299L250.02 83.1799V80.3199L250.03 76.0499L250.05 73.4499L250.07 72.2599L250.11 69.9599L250.13 68.9199L250.2 66.8899L250.24 65.9599L250.45 62.5199L250.62 61.0999L251.01 58.4499L251.29 57.3499L251.91 55.2899L252.33 54.4099L253.24 52.7299L253.82 51.9599L255.06 50.4399L255.83 49.6699L257.47 48.1099L258.46 47.2399L260.62 45.5599L262.3 44.4399L263.25 43.8899L267.32 41.6899L269.67 40.6599L274.56 38.6599L277.19 37.7899L282.54 36.1499L285.27 35.5199L289.1 34.7699L292.01 34.3199L293.62 34.1299L296.94 33.7499L298.73 33.5899L302.38 33.2799L304.31 33.1599L312.28 32.7199L316.49 32.6099L325.03 32.4399L329.32 32.4599L337.86 32.5699L341.94 32.7299L345.98 32.8999L347.91 33.0199L351.72 33.2599L353.52 33.3999L357.03 33.7099L358.65 33.8899L361.8 34.2599L363.21 34.4699L365.91 34.9099L367.08 35.1499L369.27 35.6599L370.15 35.9399L376.79 38.6899L380.95 41.0699L382.81 42.4799L386.37 45.4199L387.83 47.0299L389.25 48.6699L389.86 49.5099L391.02 51.2099L391.5 52.0699L394.5 57.4999L394.84 89.2499L394.9 93.5699L394.93 95.6299L395 99.6799L395.03 101.58L395.11 105.28L395.16 106.97L395.25 110.23L395.29 111.67L395.39 114.41L395.44 115.56L395.54 117.69L395.59 118.49L395.7 119.93L395.75 120.35L395.85 121H395.89L396.31 120.47L396.7 119.63L396.94 119.02L397.42 117.68L397.67 116.87L398.19 115.18L398.45 114.25L399.37 109.97L399.61 108.34L399.71 107.42L399.91 105.52L400 104.45L400.17 102.21L400.24 100.93L400.37 98.2699L400.43 96.7599L400.54 93.6099L400.59 91.8199L400.68 88.0999L400.72 85.9999L400.8 80.9299L400.82 77.7899V76.3399L400.81 73.4899L400.78 72.1699L400.72 69.5999L400.67 68.4099L400.42 63.8899L400.21 61.9499L399.73 58.2799L399.38 56.6899L398.63 53.6799L398.13 52.3599L397.05 49.8299L396.39 48.6799L394.96 46.4499L394.1 45.3899L392.28 43.2799L391.21 42.2099L389.14 40.3799L387.5 39.1399L386.58 38.5199L382.63 36.0399L380.42 34.8999L375.9 32.6899L373.61 31.7899L369.07 30.1599L367 29.6499L360.43 28.2999L355.56 27.5199L352.93 27.1799L347.55 26.5499L344.73 26.2899L339.01 25.8199L336.09 25.6599L324.24 25.1599L318.45 25.1999Z" fill="#A7C8DF"/>
</g>
<defs>
<clipPath id="clip0_67_162">
<rect width="636" height="739" fill="white"/>
</clipPath>
</defs>
</svg>
